EncodeSans-Regular.ufo
<glyph name="exclam" format="2">
  <advance width="500.99475757575755"/>
  <unicode hex="0021"/>
  <outline>
    <contour>
      <point x="200.28492424242424" y="371.50872727272724" type="line"/>
      <point x="301.9947575757576" y="371.50872727272724" type="line"/>
      <point x="335.3245" y="917.2403939393939" type="line"/>
      <point x="335.3245" y="1480.0" type="line"/>
      <point x="165.67025757575757" y="1480.0" type="line"/>
      <point x="165.67025757575757" y="917.2403939393939" type="line"/>
    </contour>
    <contour>
      <point x="250.49737878787877" y="-12.569848484848485" type="curve" smooth="yes"/>
      <point x="319.13445454545456" y="-12.569848484848485"/>
      <point x="365.43625757575757" y="29.67607575757576"/>
      <point x="365.43625757575757" y="94.14551515151516" type="curve" smooth="yes"/>
      <point x="365.43625757575757" y="158.61495454545454"/>
      <point x="320.16239393939395" y="202.3469090909091"/>
      <point x="250.49737878787877" y="202.3469090909091" type="curve" smooth="yes"/>
      <point x="180.83236363636362" y="202.3469090909091"/>
      <point x="135.5585" y="159.64289393939396"/>
      <point x="135.5585" y="94.14551515151516" type="curve" smooth="yes"/>
      <point x="135.5585" y="28.648136363636365"/>
      <point x="181.86030303030304" y="-12.569848484848485"/>
    </contour>
  </outline>
</glyph>
<glyph name="numbersign" format="2">
  <advance width="1156.5366666666666"/>
  <unicode hex="0023"/>
  <outline>
    <contour>
      <point x="624.7095454545455" y="0.0" type="line"/>
      <point x="756.2406818181819" y="0.0" type="line"/>
      <point x="910.2406818181819" y="1480.0" type="line"/>
      <point x="778.7095454545455" y="1480.0" type="line"/>
    </contour>
    <contour>
      <point x="100.0" y="456.9941818181818" type="line"/>
      <point x="1056.5366666666666" y="456.9941818181818" type="line"/>
      <point x="1056.5366666666666" y="587.2403939393939" type="line"/>
      <point x="100.0" y="587.2403939393939" type="line"/>
    </contour>
    <contour>
      <point x="246.29598484848484" y="0.0" type="line"/>
      <point x="377.8271212121212" y="0.0" type="line"/>
      <point x="531.8271212121213" y="1480.0" type="line"/>
      <point x="400.29598484848486" y="1480.0" type="line"/>
    </contour>
    <contour>
      <point x="100.0" y="892.7596060606061" type="line"/>
      <point x="1056.5366666666666" y="892.7596060606061" type="line"/>
      <point x="1056.5366666666666" y="1023.0058181818182" type="line"/>
      <point x="100.0" y="1023.0058181818182" type="line"/>
    </contour>
  </outline>
</glyph>
<glyph name="dollar" format="2">
  <advance width="1062.424909090909"/>
  <unicode hex="0024"/>
  <outline>
    <contour>
      <point x="459.0727575757576" y="-18.513969696969696" type="curve" smooth="yes"/>
      <point x="796.7712424242425" y="-18.513969696969696"/>
      <point x="988.4752575757576" y="134.05034848484848"/>
      <point x="988.4752575757576" y="400.8157727272727" type="curve" smooth="yes"/>
      <point x="988.4752575757576" y="615.2683333333333"/>
      <point x="864.1065151515152" y="739.4080303030303"/>
      <point x="590.3969696969697" y="808.4359696969697" type="curve" smooth="yes"/>
      <point x="510.4080303030303" y="829.061696969697" type="line" smooth="yes"/>
      <point x="309.503196969697" y="882.0951666666666"/>
      <point x="237.95022727272726" y="952.4190909090909"/>
      <point x="237.95022727272726" y="1097.7540757575757" type="curve" smooth="yes"/>
      <point x="237.95022727272726" y="1264.0052424242424"/>
      <point x="350.9054090909091" y="1360.815196969697"/>
      <point x="609.9388787878788" y="1360.815196969697" type="curve" smooth="yes"/>
      <point x="713.9388787878788" y="1360.815196969697"/>
      <point x="822.6484242424242" y="1346.3012272727274"/>
      <point x="923.7936515151515" y="1315.614090909091" type="curve"/>
      <point x="923.7936515151515" y="1455.3128636363635" type="line"/>
      <point x="831.7657121212121" y="1483.2569848484848"/>
      <point x="715.1679242424243" y="1498.5139696969698"/>
      <point x="604.9444090909091" y="1498.5139696969698" type="curve" smooth="yes"/>
      <point x="251.36874242424244" y="1498.5139696969698"/>
      <point x="73.94965151515152" y="1343.0614090909091"/>
      <point x="73.94965151515152" y="1088.8713636363636" type="curve" smooth="yes"/>
      <point x="73.94965151515152" y="875.1618181818181"/>
      <point x="198.83236363636365" y="750.0221212121212"/>
      <point x="450.71507575757573" y="685.7651363636363" type="curve" smooth="yes"/>
      <point x="530.7040151515151" y="665.1394090909091" type="line" smooth="yes"/>
      <point x="743.4636212121212" y="609.3349848484849"/>
      <point x="824.4746818181818" y="541.2121666666667"/>
      <point x="824.4746818181818" y="390.87718181818184" type="curve" smooth="yes"/>
      <point x="824.4746818181818" y="213.4528484848485"/>
      <point x="708.860303030303" y="119.18480303030303"/>
      <point x="459.9889393939394" y="119.18480303030303" type="curve" smooth="yes"/>
      <point x="352.3632121212121" y="119.18480303030303"/>
      <point x="221.40221212121213" y="138.24068181818183"/>
      <point x="97.14522727272727" y="179.21274242424244" type="curve"/>
      <point x="97.14522727272727" y="39.513969696969696" type="line"/>
      <point x="211.74301515151515" y="0.7709545454545452"/>
      <point x="343.9944696969697" y="-18.513969696969696"/>
    </contour>
    <contour>
      <point x="456.78201515151517" y="-240.0" type="line"/>
      <point x="607.1289242424243" y="-240.0" type="line"/>
      <point x="607.1289242424243" y="27.988939393939393" type="line"/>
      <point x="456.78201515151517" y="20.55878787878788" type="line"/>
    </contour>
    <contour>
      <point x="456.78201515151517" y="1464.580909090909" type="line"/>
      <point x="607.1289242424243" y="1464.580909090909" type="line"/>
      <point x="607.1289242424243" y="1720.0" type="line"/>
      <point x="456.78201515151517" y="1720.0" type="line"/>
    </contour>
  </outline>
</glyph>
<glyph name="percent" format="2">
  <advance width="1846.1405606060607"/>
  <unicode hex="0025"/>
  <note>
450
</note>
  <outline>
    <contour>
      <point x="527.8940606060606" y="0.0" type="line"/>
      <point x="668.2799696969697" y="0.0" type="line"/>
      <point x="1318.2465" y="1480.0" type="line"/>
      <point x="1177.860590909091" y="1480.0" type="line"/>
    </contour>
    <contour>
      <point x="444.38562121212124" y="574.9161818181818" type="curve" smooth="yes"/>
      <point x="644.2293333333333" y="574.9161818181818"/>
      <point x="784.5925454545454" y="707.1955757575757"/>
      <point x="784.5925454545454" y="1036.7150757575757" type="curve" smooth="yes"/>
      <point x="784.5925454545454" y="1366.2345757575758"/>
      <point x="646.4583787878788" y="1498.5139696969698"/>
      <point x="444.38562121212124" y="1498.5139696969698" type="curve" smooth="yes"/>
      <point x="242.31286363636363" y="1498.5139696969698"/>
      <point x="104.17869696969697" y="1366.2345757575758"/>
      <point x="104.17869696969697" y="1036.7150757575757" type="curve" smooth="yes"/>
      <point x="104.17869696969697" y="707.1955757575757"/>
      <point x="244.5419090909091" y="574.9161818181818"/>
    </contour>
    <contour>
      <point x="444.38562121212124" y="688.0282272727272" type="curve" smooth="yes"/>
      <point x="322.17345454545455" y="688.0282272727272"/>
      <point x="238.50872727272727" y="775.4359696969697"/>
      <point x="238.50872727272727" y="1038.201106060606" type="curve" smooth="yes"/>
      <point x="238.50872727272727" y="1299.4802121212122"/>
      <point x="322.17345454545455" y="1385.4019242424242"/>
      <point x="444.38562121212124" y="1385.4019242424242" type="curve" smooth="yes"/>
      <point x="565.8547727272727" y="1385.4019242424242"/>
      <point x="650.2625151515151" y="1299.4802121212122"/>
      <point x="650.2625151515151" y="1035.2290454545455" type="curve" smooth="yes"/>
      <point x="650.2625151515151" y="772.463909090909"/>
      <point x="565.8547727272727" y="688.0282272727272"/>
    </contour>
    <contour>
      <point x="1401.7549393939394" y="-18.0" type="curve" smooth="yes"/>
      <point x="1602.3416666666667" y="-18.0"/>
      <point x="1741.9618636363637" y="114.27939393939394"/>
      <point x="1741.9618636363637" y="443.79889393939396" type="curve" smooth="yes"/>
      <point x="1741.9618636363637" y="773.3183939393939"/>
      <point x="1603.0846818181817" y="905.5977878787879"/>
      <point x="1401.7549393939394" y="905.5977878787879" type="curve" smooth="yes"/>
      <point x="1200.425196969697" y="905.5977878787879"/>
      <point x="1061.548015151515" y="773.3183939393939"/>
      <point x="1061.548015151515" y="443.79889393939396" type="curve" smooth="yes"/>
      <point x="1061.548015151515" y="114.27939393939394"/>
      <point x="1201.168212121212" y="-18.0"/>
    </contour>
    <contour>
      <point x="1401.7549393939394" y="95.11204545454545" type="curve" smooth="yes"/>
      <point x="1280.285787878788" y="95.11204545454545"/>
      <point x="1195.8780454545454" y="182.5197878787879"/>
      <point x="1195.8780454545454" y="445.28492424242427" type="curve" smooth="yes"/>
      <point x="1195.8780454545454" y="706.5640303030303"/>
      <point x="1280.285787878788" y="792.4857424242424"/>
      <point x="1401.7549393939394" y="792.4857424242424" type="curve" smooth="yes"/>
      <point x="1523.2240909090908" y="792.4857424242424"/>
      <point x="1607.6318333333334" y="706.5640303030303"/>
      <point x="1607.6318333333334" y="442.31286363636366" type="curve" smooth="yes"/>
      <point x="1607.6318333333334" y="179.5477272727273"/>
      <point x="1523.2240909090908" y="95.11204545454545"/>
    </contour>
  </outline>
</glyph>
<glyph name="ampersand" format="2">
  <advance width="1495.6763636363637"/>
  <unicode hex="0026"/>
  <outline>
    <contour>
      <point x="1415.6146666666666" y="-20.0" type="line"/>
      <point x="1495.6763636363637" y="99.58701515151516" type="line"/>
      <point x="699.9330606060606" y="703.5925454545454" type="line" smooth="yes"/>
      <point x="505.3076212121212" y="858.0727575757576"/>
      <point x="456.21827272727273" y="944.8827121212121"/>
      <point x="456.21827272727273" y="1074.1842272727272" type="curve" smooth="yes"/>
      <point x="456.21827272727273" y="1257.7482575757576"/>
      <point x="563.542196969697" y="1360.815196969697"/>
      <point x="825.6929545454545" y="1360.815196969697" type="curve" smooth="yes"/>
      <point x="908.4080303030303" y="1360.815196969697"/>
      <point x="987.5477272727273" y="1351.3012272727274"/>
      <point x="1062.2348636363636" y="1331.614090909091" type="curve"/>
      <point x="1062.2348636363636" y="1471.3128636363635" type="line"/>
      <point x="992.123106060606" y="1488.0279393939395"/>
      <point x="910.8102424242425" y="1498.5139696969698"/>
      <point x="818.9275303030303" y="1498.5139696969698" type="curve" smooth="yes"/>
      <point x="464.40774242424243" y="1498.5139696969698"/>
      <point x="292.217696969697" y="1343.2625151515151"/>
      <point x="292.217696969697" y="1076.0110606060607" type="curve" smooth="yes"/>
      <point x="292.217696969697" y="904.9496515151516"/>
      <point x="366.39086363636363" y="776.2959848484849"/>
      <point x="619.8713636363636" y="584.0055303030304" type="curve" smooth="yes"/>
    </contour>
    <contour>
      <point x="678.2514545454545" y="-18.0" type="curve" smooth="yes"/>
      <point x="1043.5477272727273" y="-18.0"/>
      <point x="1259.1065151515152" y="169.64813636363635"/>
      <point x="1259.1065151515152" y="528.542196969697" type="curve" smooth="yes"/>
      <point x="1259.1065151515152" y="614.6594848484849"/>
      <point x="1246.620484848485" y="710.0896363636364"/>
      <point x="1220.1903333333335" y="797.5197878787878" type="curve"/>
      <point x="1081.8323636363637" y="797.5197878787878" type="line"/>
      <point x="1109.0055303030304" y="710.0896363636364"/>
      <point x="1123.9775909090908" y="612.6594848484849"/>
      <point x="1123.9775909090908" y="527.5142575757576" type="curve" smooth="yes"/>
      <point x="1123.9775909090908" y="232.542196969697"/>
      <point x="959.860303030303" y="107.62048484848485"/>
      <point x="692.8437121212121" y="107.62048484848485" type="curve" smooth="yes"/>
      <point x="425.41937878787877" y="107.62048484848485"/>
      <point x="301.46972727272725" y="232.77677272727271"/>
      <point x="301.46972727272725" y="419.82130303030306" type="curve" smooth="yes"/>
      <point x="301.46972727272725" y="559.4915606060606"/>
      <point x="367.41937878787877" y="662.5305606060606"/>
      <point x="500.3800909090909" y="729.3349848484849" type="curve"/>
      <point x="415.35186363636365" y="811.2625151515151" type="line"/>
      <point x="242.74854545454545" y="736.2849242424243"/>
      <point x="137.9831212121212" y="593.0838181818182"/>
      <point x="137.9831212121212" y="403.0279393939394" type="curve" smooth="yes"/>
      <point x="137.9831212121212" y="152.4580909090909"/>
      <point x="319.7485454545455" y="-18.0"/>
    </contour>
  </outline>
</glyph>
<glyph name="quotesingle" format="2">
  <advance width="418.89406060606063"/>
  <unicode hex="0027"/>
  <outline>
    <contour>
      <point x="161.17869696969697" y="915.396393939394" type="line"/>
      <point x="257.71536363636363" y="915.396393939394" type="line"/>
      <point x="292.3635" y="1616.0" type="line"/>
      <point x="126.5305606060606" y="1616.0" type="line"/>
    </contour>
  </outline>
</glyph>
<glyph name="parenleft" format="2">
  <advance width="658.8940606060606"/>
  <unicode hex="0028"/>
  <outline>
    <contour>
      <point x="466.9217121212121" y="-440.0" type="curve"/>
      <point x="638.9502272727273" y="-440.0" type="line"/>
      <point x="392.69324242424244" y="-130.82683333333333"/>
      <point x="290.6932424242424" y="209.5195"/>
      <point x="290.6932424242424" y="588.0" type="curve" smooth="yes"/>
      <point x="290.6932424242424" y="966.4805"/>
      <point x="392.69324242424244" y="1306.8268333333333"/>
      <point x="638.9502272727273" y="1616.0" type="curve"/>
      <point x="466.9217121212121" y="1616.0" type="line"/>
      <point x="227.86583333333334" y="1322.9944696969696"/>
      <point x="125.40774242424243" y="971.9665303030303"/>
      <point x="125.40774242424243" y="588.0" type="curve" smooth="yes"/>
      <point x="125.40774242424243" y="204.0334696969697"/>
      <point x="227.86583333333334" y="-146.9944696969697"/>
    </contour>
  </outline>
</glyph>
<glyph name="parenright" format="2">
  <advance width="658.3232323232323"/>
  <unicode hex="0029"/>
  <outline>
    <contour>
      <point x="20.777777777777757" y="-440.0" type="curve"/>
      <point x="191.19191919191923" y="-440.0" type="line"/>
      <point x="430.21212121212125" y="-146.83838383838383"/>
      <point x="532.6969696969697" y="204.17171717171718"/>
      <point x="532.6969696969697" y="588.0" type="curve" smooth="yes"/>
      <point x="532.6969696969697" y="971.8282828282828"/>
      <point x="430.21212121212125" y="1322.8383838383838"/>
      <point x="191.19191919191923" y="1616.0" type="curve"/>
      <point x="20.777777777777757" y="1616.0" type="line"/>
      <point x="267.030303030303" y="1306.7777777777778"/>
      <point x="369.030303030303" y="966.3333333333334"/>
      <point x="369.030303030303" y="588.0" type="curve" smooth="yes"/>
      <point x="369.030303030303" y="209.66666666666666"/>
      <point x="267.030303030303" y="-130.77777777777777"/>
    </contour>
  </outline>
</glyph>
<glyph name="asterisk" format="2">
  <advance width="917.4949494949495"/>
  <unicode hex="002A"/>
  <outline>
    <contour>
      <point x="518.0808080808081" y="1183.0" type="line"/>
      <point x="712.2929292929293" y="1222.919191919192" type="line"/>
      <point x="887.4949494949495" y="1279.4040404040404" type="line"/>
      <point x="851.0808080808081" y="1390.1616161616162" type="line"/>
      <point x="677.3737373737374" y="1333.4242424242425" type="line"/>
      <point x="494.1919191919192" y="1249.8686868686868" type="line"/>
      <point x="517.2626262626263" y="1449.5757575757575" type="line"/>
      <point x="517.2626262626263" y="1616.0" type="line"/>
      <point x="400.2323232323232" y="1616.0" type="line"/>
      <point x="400.2323232323232" y="1449.5757575757575" type="line"/>
      <point x="423.3030303030303" y="1249.8686868686868" type="line"/>
      <point x="240.12121212121212" y="1333.4242424242425" type="line"/>
      <point x="66.41414141414143" y="1390.1616161616162" type="line"/>
      <point x="30.0" y="1279.4040404040404" type="line"/>
      <point x="205.2020202020202" y="1222.919191919192" type="line"/>
      <point x="399.4141414141414" y="1183.0" type="line"/>
      <point x="264.88888888888886" y="1035.5858585858587" type="line"/>
      <point x="163.1919191919192" y="896.8989898989898" type="line"/>
      <point x="258.1212121212121" y="827.8383838383838" type="line"/>
      <point x="359.8181818181818" y="966.2727272727273" type="line"/>
      <point x="458.74747474747477" y="1143.8080808080808" type="line"/>
      <point x="557.6767676767677" y="966.2727272727273" type="line"/>
      <point x="659.3737373737374" y="827.8383838383838" type="line"/>
      <point x="754.3030303030304" y="896.8989898989898" type="line"/>
      <point x="652.6060606060606" y="1035.5858585858587" type="line"/>
    </contour>
  </outline>
</glyph>
<glyph name="plus" format="2">
  <advance width="1075.6363636363637"/>
  <unicode hex="002B"/>
  <outline>
    <contour>
      <point x="470.2323232323232" y="356.78787878787875" type="line"/>
      <point x="605.4040404040404" y="356.78787878787875" type="line"/>
      <point x="605.4040404040404" y="695.6767676767677" type="line"/>
      <point x="926.5656565656566" y="695.6767676767677" type="line"/>
      <point x="926.5656565656566" y="824.3232323232323" type="line"/>
      <point x="605.4040404040404" y="824.3232323232323" type="line"/>
      <point x="605.4040404040404" y="1163.2121212121212" type="line"/>
      <point x="470.2323232323232" y="1163.2121212121212" type="line"/>
      <point x="470.2323232323232" y="824.3232323232323" type="line"/>
      <point x="149.07070707070707" y="824.3232323232323" type="line"/>
      <point x="149.07070707070707" y="695.6767676767677" type="line"/>
      <point x="470.2323232323232" y="695.6767676767677" type="line"/>
    </contour>
  </outline>
</glyph>
<glyph name="hyphen" format="2">
  <advance width="838.6036060606061"/>
  <unicode hex="002D"/>
  <outline>
    <contour>
      <point x="148.75407575757575" y="494.84895454545455" type="line"/>
      <point x="689.8495303030303" y="494.84895454545455" type="line"/>
      <point x="689.8495303030303" y="630.2907424242425" type="line"/>
      <point x="148.75407575757575" y="630.2907424242425" type="line"/>
    </contour>
  </outline>
</glyph>
<glyph name="period" format="2">
  <advance width="460.99475757575755"/>
  <unicode hex="002E"/>
  <outline>
    <contour>
      <point x="230.49737878787877" y="-12.569848484848485" type="curve" smooth="yes"/>
      <point x="299.13445454545456" y="-12.569848484848485"/>
      <point x="345.43625757575757" y="30.70401515151515"/>
      <point x="345.43625757575757" y="97.48631818181818" type="curve" smooth="yes"/>
      <point x="345.43625757575757" y="164.26862121212122"/>
      <point x="300.16239393939395" y="209.02851515151514"/>
      <point x="230.49737878787877" y="209.02851515151514" type="curve" smooth="yes"/>
      <point x="160.83236363636362" y="209.02851515151514"/>
      <point x="115.5585" y="165.2965606060606"/>
      <point x="115.5585" y="97.48631818181818" type="curve" smooth="yes"/>
      <point x="115.5585" y="29.67607575757576"/>
      <point x="161.86030303030304" y="-12.569848484848485"/>
    </contour>
  </outline>
</glyph>
<glyph name="slash" format="2">
  <advance width="616.1961515151515"/>
  <unicode hex="002F"/>
  <outline>
    <contour>
      <point x="0.0" y="-240.0" type="line"/>
      <point x="158.68771212121212" y="-240.0" type="line"/>
      <point x="616.1961515151515" y="1616.0" type="line"/>
      <point x="457.5084393939394" y="1616.0" type="line"/>
    </contour>
  </outline>
</glyph>
<glyph name="zero" format="2">
  <advance width="1248.2525252525252"/>
  <unicode hex="0030"/>
  <note>
600
</note>
  <outline>
    <contour>
      <point x="624.0" y="-18.505050505050505" type="curve" smooth="yes"/>
      <point x="935.010101010101" y="-18.505050505050505"/>
      <point x="1132.6262626262626" y="189.61616161616163"/>
      <point x="1132.6262626262626" y="740.0" type="curve" smooth="yes"/>
      <point x="1132.6262626262626" y="1290.3838383838383"/>
      <point x="938.0" y="1498.5050505050506"/>
      <point x="624.0" y="1498.5050505050506" type="curve" smooth="yes"/>
      <point x="310.0" y="1498.5050505050506"/>
      <point x="115.62626262626262" y="1290.3838383838383"/>
      <point x="115.62626262626262" y="740.0" type="curve" smooth="yes"/>
      <point x="115.62626262626262" y="189.61616161616163"/>
      <point x="312.98989898989896" y="-18.505050505050505"/>
    </contour>
    <contour>
      <point x="624.2525252525253" y="119.4646464646465" type="curve" smooth="yes"/>
      <point x="412.03030303030306" y="119.4646464646465"/>
      <point x="276.51515151515156" y="262.0606060606061"/>
      <point x="276.51515151515156" y="742.989898989899" type="curve" smooth="yes"/>
      <point x="276.51515151515156" y="1217.939393939394"/>
      <point x="412.5353535353536" y="1360.5353535353536"/>
      <point x="624.2525252525253" y="1360.5353535353536" type="curve" smooth="yes"/>
      <point x="835.7171717171717" y="1360.5353535353536"/>
      <point x="971.7373737373737" y="1217.939393939394"/>
      <point x="971.7373737373737" y="737.010101010101" type="curve" smooth="yes"/>
      <point x="971.7373737373737" y="262.0606060606061"/>
      <point x="835.7171717171717" y="119.4646464646465"/>
    </contour>
  </outline>
</glyph>
<glyph name="one" format="2">
  <advance width="730.8215909090909"/>
  <unicode hex="0031"/>
  <outline>
    <contour>
      <point x="389.5809090909091" y="0.0" type="line"/>
      <point x="551.6373636363636" y="0.0" type="line"/>
      <point x="551.6373636363636" y="1484.5139696969698" type="line"/>
      <point x="448.4749696969697" y="1484.5139696969698" type="line"/>
      <point x="24.54190909090909" y="1179.1452272727272" type="line"/>
      <point x="24.54190909090909" y="1019.1391212121212" type="line"/>
      <point x="448.4749696969697" y="1323.0218333333332" type="line"/>
      <point x="389.5809090909091" y="1361.3963939393939" type="line"/>
    </contour>
  </outline>
</glyph>
<glyph name="two" format="2">
  <advance width="985.4949494949495"/>
  <unicode hex="0032"/>
  <outline>
    <contour>
      <point x="60.18181818181818" y="0.0" type="line"/>
      <point x="921.5555555555555" y="0.0" type="line"/>
      <point x="921.5555555555555" y="137.48484848484853" type="line"/>
      <point x="226.969696969697" y="137.48484848484853" type="line"/>
      <point x="240.19191919191923" y="92.52525252525255" type="line"/>
      <point x="616.929292929293" y="589.989898989899" type="line" smooth="yes"/>
      <point x="784.6262626262627" y="808.8383838383838"/>
      <point x="840.8585858585859" y="946.1111111111111"/>
      <point x="841.6060606060606" y="1104.3131313131314" type="curve" smooth="yes"/>
      <point x="843.1010101010102" y="1378.4444444444443"/>
      <point x="674.969696969697" y="1498.5050505050506"/>
      <point x="376.83838383838383" y="1498.5050505050506" type="curve" smooth="yes"/>
      <point x="256.32323232323233" y="1498.5050505050506"/>
      <point x="128.6969696969697" y="1476.4949494949494"/>
      <point x="42.676767676767675" y="1442.010101010101" type="curve"/>
      <point x="42.676767676767675" y="1303.5555555555554" type="line"/>
      <point x="139.64646464646464" y="1341.7878787878788"/>
      <point x="247.95959595959596" y="1362.050505050505"/>
      <point x="364.4646464646465" y="1362.050505050505" type="curve" smooth="yes"/>
      <point x="576.1010101010102" y="1362.050505050505"/>
      <point x="681.4545454545454" y="1283.141414141414"/>
      <point x="681.4545454545454" y="1091.7070707070707" type="curve" smooth="yes"/>
      <point x="681.4545454545454" y="965.8686868686868"/>
      <point x="628.4949494949494" y="844.2424242424242"/>
      <point x="483.8484848484849" y="652.6767676767677" type="curve" smooth="yes"/>
      <point x="60.18181818181818" y="88.23232323232325" type="line"/>
    </contour>
  </outline>
</glyph>
<glyph name="three" format="2">
  <advance width="1012.1734545454545"/>
  <unicode hex="0033"/>
  <outline>
    <contour>
      <point x="409.0503484848485" y="-18.513969696969696" type="curve" smooth="yes"/>
      <point x="760.8326515151515" y="-18.513969696969696"/>
      <point x="940.5980757575758" y="136.34080303030302"/>
      <point x="940.5980757575758" y="399.68160606060604" type="curve" smooth="yes"/>
      <point x="940.5980757575758" y="613.5419090909091"/>
      <point x="809.5087272727272" y="746.8882424242424"/>
      <point x="567.9278181818182" y="778.4022121212121" type="curve"/>
      <point x="567.1848030303031" y="756.0" type="line"/>
      <point x="768.8215909090909" y="797.4580909090909"/>
      <point x="891.8550606060606" y="932.1172878787879"/>
      <point x="891.8550606060606" y="1123.178696969697" type="curve" smooth="yes"/>
      <point x="891.8550606060606" y="1361.4022121212122"/>
      <point x="728.5756666666666" y="1498.5139696969698"/>
      <point x="423.9665303030303" y="1498.5139696969698" type="curve" smooth="yes"/>
      <point x="306.34080303030305" y="1498.5139696969698"/>
      <point x="180.26251515151515" y="1478.4860303030302"/>
      <point x="86.72060606060606" y="1444.2569848484848" type="curve"/>
      <point x="86.72060606060606" y="1312.2677575757575" type="line"/>
      <point x="190.66472727272728" y="1349.9828333333332"/>
      <point x="300.86030303030304" y="1368.0107727272728"/>
      <point x="411.11728787878786" y="1368.0107727272728" type="curve" smooth="yes"/>
      <point x="624.6423181818182" y="1368.0107727272728"/>
      <point x="733.7092575757575" y="1278.658909090909"/>
      <point x="733.7092575757575" y="1112.6423181818182" type="curve" smooth="yes"/>
      <point x="733.7092575757575" y="928.3632121212121"/>
      <point x="599.2066363636363" y="825.3521515151515"/>
      <point x="333.7878333333333" y="825.3521515151515" type="curve" smooth="yes"/>
      <point x="237.41327272727273" y="825.3521515151515" type="line"/>
      <point x="237.41327272727273" y="693.5640303030303" type="line"/>
      <point x="414.28492424242427" y="693.5640303030303" type="line" smooth="yes"/>
      <point x="670.4691515151515" y="693.5640303030303"/>
      <point x="784.2511666666667" y="587.0948787878788"/>
      <point x="784.2511666666667" y="406.87718181818184" type="curve" smooth="yes"/>
      <point x="784.2511666666667" y="214.51425757575757"/>
      <point x="658.5250303030303" y="111.98922727272728"/>
      <point x="404.9106515151515" y="111.98922727272728" type="curve" smooth="yes"/>
      <point x="292.79889393939396" y="111.98922727272728"/>
      <point x="166.34633333333335" y="131.98922727272728"/>
      <point x="51.86030303030303" y="169.64842424242426" type="curve"/>
      <point x="51.86030303030303" y="37.65919696969697" type="line"/>
      <point x="160.9720606060606" y="0.9720606060606061"/>
      <point x="285.0838181818182" y="-18.513969696969696"/>
    </contour>
  </outline>
</glyph>
<glyph name="four" format="2">
  <advance width="1180.9388787878788"/>
  <unicode hex="0034"/>
  <outline>
    <contour>
      <point x="47.83236363636364" y="354.9607121212121" type="line"/>
      <point x="1139.821590909091" y="354.9607121212121" type="line"/>
      <point x="1139.821590909091" y="487.3186818181818" type="line"/>
      <point x="187.8105303030303" y="487.3186818181818" type="line"/>
      <point x="211.00610606060607" y="443.5867272727273" type="line"/>
      <point x="784.5142575757576" y="1480.0" type="line"/>
      <point x="622.1673484848485" y="1480.0" type="line"/>
      <point x="47.83236363636364" y="445.0727575757576" type="line"/>
    </contour>
    <contour>
      <point x="780.6367878787879" y="0.0" type="line"/>
      <point x="930.3579696969697" y="0.0" type="line"/>
      <point x="930.3579696969697" y="980.0" type="line"/>
      <point x="801.3183939393939" y="980.0" type="line"/>
      <point x="780.6367878787879" y="487.3186818181818" type="line"/>
    </contour>
  </outline>
</glyph>
<glyph name="five" format="2">
  <advance width="1022.4583787878788"/>
  <unicode hex="0035"/>
  <outline>
    <contour>
      <point x="436.0503484848485" y="-18.513969696969696" type="curve" smooth="yes"/>
      <point x="783.5197878787878" y="-18.513969696969696"/>
      <point x="966.084106060606" y="134.11175757575757"/>
      <point x="966.3410909090909" y="418.36321212121214" type="curve" smooth="yes"/>
      <point x="966.5980757575758" y="689.3018030303031"/>
      <point x="792.5142575757576" y="828.1845151515151"/>
      <point x="374.0392878787879" y="852.6984848484849" type="curve" smooth="yes"/>
      <point x="188.0113484848485" y="863.4415" type="line"/>
      <point x="290.63736363636366" y="792.5139696969698" type="line"/>
      <point x="333.3245" y="1414.301515151515" type="line"/>
      <point x="259.5197878787879" y="1347.8990151515152" type="line"/>
      <point x="905.1120454545454" y="1347.8990151515152" type="line"/>
      <point x="905.1120454545454" y="1480.0" type="line"/>
      <point x="183.0055303030303" y="1480.0" type="line"/>
      <point x="133.23457575757575" y="734.2232272727273" type="line"/>
      <point x="319.2625151515152" y="723.4802121212122" type="line" smooth="yes"/>
      <point x="686.5250303030303" y="701.9941818181818"/>
      <point x="809.7371969696969" y="609.6423181818182"/>
      <point x="809.7371969696969" y="415.0503484848485" type="curve" smooth="yes"/>
      <point x="809.7371969696969" y="214.7991818181818"/>
      <point x="686.2401060606061" y="113.01716666666667"/>
      <point x="432.65366666666665" y="113.01716666666667" type="curve" smooth="yes"/>
      <point x="316.82683333333335" y="113.01716666666667"/>
      <point x="190.37427272727274" y="134.01716666666667"/>
      <point x="78.11728787878788" y="171.19033333333334" type="curve"/>
      <point x="78.11728787878788" y="39.20110606060606" type="line"/>
      <point x="185.0" y="2.486030303030303"/>
      <point x="310.59778787878787" y="-18.513969696969696"/>
    </contour>
  </outline>
</glyph>
<glyph name="six" format="2">
  <advance width="1149.5656565656566"/>
  <unicode hex="0036"/>
  <outline>
    <contour>
      <point x="640.7272727272727" y="-18.505050505050505" type="curve" smooth="yes"/>
      <point x="903.2727272727273" y="-18.505050505050505"/>
      <point x="1089.3535353535353" y="131.37373737373738"/>
      <point x="1089.3535353535353" y="419.14141414141415" type="curve" smooth="yes"/>
      <point x="1089.3535353535353" y="711.979797979798"/>
      <point x="901.2727272727273" y="850.2222222222223"/>
      <point x="633.010101010101" y="850.2222222222223" type="curve" smooth="yes"/>
      <point x="485.0606060606061" y="850.2222222222223"/>
      <point x="335.6060606060606" y="797.5050505050506"/>
      <point x="251.64646464646466" y="710.0505050505051" type="curve"/>
      <point x="251.64646464646466" y="575.5353535353536" type="line"/>
      <point x="338.8383838383839" y="681.1616161616162"/>
      <point x="485.64646464646466" y="724.1212121212121"/>
      <point x="607.5454545454546" y="724.1212121212121" type="curve" smooth="yes"/>
      <point x="808.4949494949495" y="724.1212121212121"/>
      <point x="938.7979797979798" y="630.020202020202"/>
      <point x="938.7979797979798" y="413.8686868686869" type="curve" smooth="yes"/>
      <point x="938.7979797979798" y="199.969696969697"/>
      <point x="811.7474747474747" y="108.10101010101013"/>
      <point x="641.979797979798" y="108.10101010101013" type="curve" smooth="yes"/>
      <point x="425.7878787878788" y="108.10101010101013"/>
      <point x="284.5050505050506" y="240.63636363636365"/>
      <point x="284.5050505050506" y="674.3232323232323" type="curve" smooth="yes"/>
      <point x="284.5050505050506" y="730.2626262626263" type="line" smooth="yes"/>
      <point x="284.5050505050506" y="1179.3131313131314"/>
      <point x="445.11111111111114" y="1367.1010101010102"/>
      <point x="756.6868686868687" y="1367.1010101010102" type="curve" smooth="yes"/>
      <point x="845.0" y="1367.1010101010102"/>
      <point x="941.2626262626263" y="1353.5959595959596"/>
      <point x="1021.0606060606061" y="1321.8484848484848" type="curve"/>
      <point x="1021.0606060606061" y="1454.7474747474748" type="line"/>
      <point x="942.2626262626263" y="1486.5050505050506"/>
      <point x="845.969696969697" y="1498.5050505050506"/>
      <point x="751.6262626262626" y="1498.5050505050506" type="curve" smooth="yes"/>
      <point x="349.07070707070704" y="1498.5050505050506"/>
      <point x="126.12121212121211" y="1250.4242424242425"/>
      <point x="126.12121212121211" y="692.0" type="curve" smooth="yes"/>
      <point x="126.12121212121211" y="172.5858585858586"/>
      <point x="333.7676767676768" y="-18.505050505050505"/>
    </contour>
  </outline>
</glyph>
<glyph name="seven" format="2">
  <advance width="938.969696969697"/>
  <unicode hex="0037"/>
  <outline>
    <contour>
      <point x="170.65656565656565" y="0.0" type="line"/>
      <point x="337.3434343434344" y="0.0" type="line"/>
      <point x="880.4747474747475" y="1391.7676767676767" type="line"/>
      <point x="880.4747474747475" y="1480.0" type="line"/>
      <point x="11.747474747474747" y="1480.0" type="line"/>
      <point x="11.747474747474747" y="1342.5151515151515" type="line"/>
      <point x="770.4545454545455" y="1342.5151515151515" type="line"/>
      <point x="723.6161616161615" y="1393.2626262626263" type="line"/>
    </contour>
  </outline>
</glyph>
<glyph name="eight" format="2">
  <advance width="1249.1399848484848"/>
  <unicode hex="0038"/>
  <outline>
    <contour>
      <point x="633.1286363636364" y="-18.513969696969696" type="curve" smooth="yes"/>
      <point x="966.2238030303031" y="-18.513969696969696"/>
      <point x="1148.905409090909" y="142.79336363636364"/>
      <point x="1148.905409090909" y="381.13416666666666" type="curve" smooth="yes"/>
      <point x="1148.905409090909" y="593.6760757575757"/>
      <point x="1026.0171666666668" y="718.0727575757576"/>
      <point x="681.3690303030303" y="803.5532575757576" type="curve" smooth="yes"/>
      <point x="388.3076212121212" y="874.6091363636364"/>
      <point x="304.44178787878786" y="959.4470303030303"/>
      <point x="304.44178787878786" y="1118.4636212121213" type="curve" smooth="yes"/>
      <point x="304.44178787878786" y="1275.1114696969696"/>
      <point x="412.7377727272727" y="1374.6923787878789"/>
      <point x="625.8940606060606" y="1374.6923787878789" type="curve" smooth="yes"/>
      <point x="834.6816060606061" y="1374.6923787878789"/>
      <point x="955.1507575757576" y="1283.1114696969696"/>
      <point x="955.1507575757576" y="1113.4356818181818" type="curve" smooth="yes"/>
      <point x="955.1507575757576" y="959.620196969697"/>
      <point x="877.2011060606061" y="864.1286363636364"/>
      <point x="693.0448181818182" y="785.7543636363637" type="curve"/>
      <point x="807.3020909090909" y="735.9944696969696" type="line"/>
      <point x="1003.525606060606" y="813.5643181818182"/>
      <point x="1100.7601818181818" y="948.5643181818182"/>
      <point x="1100.7601818181818" y="1125.4860303030302" type="curve" smooth="yes"/>
      <point x="1100.7601818181818" y="1356.5139696969698"/>
      <point x="923.7377727272727" y="1498.5139696969698"/>
      <point x="627.922" y="1498.5139696969698" type="curve" smooth="yes"/>
      <point x="321.37427272727274" y="1498.5139696969698"/>
      <point x="146.6088484848485" y="1347.5195"/>
      <point x="146.6088484848485" y="1112.8658333333333" type="curve" smooth="yes"/>
      <point x="146.6088484848485" y="897.1507575757576"/>
      <point x="272.80995454545456" y="760.8713636363636"/>
      <point x="617.6871363636363" y="678.2176969696969" type="curve" smooth="yes"/>
      <point x="900.4356818181818" y="610.2456363636363"/>
      <point x="992.6143787878788" y="533.039"/>
      <point x="992.6143787878788" y="371.2514545454545" type="curve" smooth="yes"/>
      <point x="992.6143787878788" y="201.86059090909092"/>
      <point x="867.2011060606061" y="105.3076212121212"/>
      <point x="634.1286363636364" y="105.3076212121212" type="curve" smooth="yes"/>
      <point x="382.7377727272727" y="105.3076212121212"/>
      <point x="255.26862121212122" y="204.8885303030303"/>
      <point x="255.26862121212122" y="385.5643181818182" type="curve" smooth="yes"/>
      <point x="255.26862121212122" y="541.0669393939394"/>
      <point x="354.0785757575758" y="666.9607121212122"/>
      <point x="541.1175757575758" y="721.3908636363636" type="curve"/>
      <point x="418.7206060606061" y="771.8658333333333" type="line"/>
      <point x="218.1228181818182" y="705.6088484848485"/>
      <point x="99.20663636363636" y="561.7206060606061"/>
      <point x="99.20663636363636" y="370.9720606060606" type="curve" smooth="yes"/>
      <point x="99.20663636363636" y="127.9385909090909"/>
      <point x="280.7485454545455" y="-18.513969696969696"/>
    </contour>
  </outline>
</glyph>
<glyph name="less" format="2">
  <advance width="1075.6363636363637"/>
  <unicode hex="003C"/>
  <outline>
    <contour>
      <point x="926.5656565656566" y="360.5454545454545" type="line"/>
      <point x="926.5656565656566" y="495.1717171717172" type="line"/>
      <point x="254.23232323232324" y="774.7777777777778" type="line"/>
      <point x="254.23232323232324" y="746.4848484848485" type="line"/>
      <point x="926.5656565656566" y="1024.828282828283" type="line"/>
      <point x="926.5656565656566" y="1159.4545454545455" type="line"/>
      <point x="149.07070707070707" y="830.9494949494949" type="line"/>
      <point x="149.07070707070707" y="689.0505050505051" type="line"/>
    </contour>
  </outline>
</glyph>
<glyph name="equal" format="2">
  <advance width="1075.6363636363637"/>
  <unicode hex="003D"/>
  <outline>
    <contour>
      <point x="149.07070707070707" y="892.3232323232323" type="line"/>
      <point x="926.5656565656566" y="892.3232323232323" type="line"/>
      <point x="926.5656565656566" y="1020.969696969697" type="line"/>
      <point x="149.07070707070707" y="1020.969696969697" type="line"/>
    </contour>
    <contour>
      <point x="149.07070707070707" y="499.030303030303" type="line"/>
      <point x="926.5656565656566" y="499.030303030303" type="line"/>
      <point x="926.5656565656566" y="627.6767676767677" type="line"/>
      <point x="149.07070707070707" y="627.6767676767677" type="line"/>
    </contour>
  </outline>
</glyph>
<glyph name="greater" format="2">
  <advance width="1075.6363636363637"/>
  <unicode hex="003E"/>
  <outline>
    <contour>
      <point x="149.07070707070707" y="360.5454545454545" type="line"/>
      <point x="926.5656565656566" y="689.0505050505051" type="line"/>
      <point x="926.5656565656566" y="830.9494949494949" type="line"/>
      <point x="149.07070707070707" y="1159.4545454545455" type="line"/>
      <point x="149.07070707070707" y="1024.828282828283" type="line"/>
      <point x="821.4040404040404" y="746.4848484848485" type="line"/>
      <point x="821.4040404040404" y="774.7777777777778" type="line"/>
      <point x="149.07070707070707" y="495.1717171717172" type="line"/>
    </contour>
  </outline>
</glyph>
<glyph name="question" format="2">
  <advance width="903.6260151515152"/>
  <unicode hex="003F"/>
  <outline>
    <contour>
      <point x="354.86030303030304" y="359.62048484848486" type="line"/>
      <point x="456.5701363636364" y="359.62048484848486" type="line"/>
      <point x="471.45284848484846" y="682.4301515151515" type="line"/>
      <point x="739.0896363636364" y="783.039"/>
      <point x="844.5087272727272" y="910.3518636363636"/>
      <point x="844.5087272727272" y="1121.8937727272728" type="curve" smooth="yes"/>
      <point x="844.5087272727272" y="1361.4022121212122"/>
      <point x="681.2293333333333" y="1498.5139696969698"/>
      <point x="376.62019696969696" y="1498.5139696969698" type="curve" smooth="yes"/>
      <point x="258.9944696969697" y="1498.5139696969698"/>
      <point x="132.91618181818183" y="1478.4860303030302"/>
      <point x="39.374272727272725" y="1444.2569848484848" type="curve"/>
      <point x="39.374272727272725" y="1309.697909090909" type="line"/>
      <point x="143.31839393939393" y="1347.412984848485"/>
      <point x="253.0" y="1365.4409242424242"/>
      <point x="362.5139696969697" y="1365.4409242424242" type="curve" smooth="yes"/>
      <point x="577.2959848484849" y="1365.4409242424242"/>
      <point x="686.3629242424242" y="1276.8600151515152"/>
      <point x="686.3629242424242" y="1112.1283484848484" type="curve" smooth="yes"/>
      <point x="686.3629242424242" y="950.1676363636363"/>
      <point x="600.3015151515151" y="850.7878333333333"/>
      <point x="327.1842272727273" y="766.7488333333333" type="curve"/>
    </contour>
    <contour>
      <point x="405.8437121212121" y="-12.569848484848485" type="curve" smooth="yes"/>
      <point x="475.9668181818182" y="-12.569848484848485"/>
      <point x="520.7825909090909" y="31.16210606060606"/>
      <point x="520.7825909090909" y="94.14551515151516" type="curve" smooth="yes"/>
      <point x="520.7825909090909" y="158.61495454545454"/>
      <point x="475.50872727272724" y="202.3469090909091"/>
      <point x="405.8437121212121" y="202.3469090909091" type="curve" smooth="yes"/>
      <point x="336.17869696969694" y="202.3469090909091"/>
      <point x="290.90483333333333" y="159.64289393939396"/>
      <point x="290.90483333333333" y="94.14551515151516" type="curve" smooth="yes"/>
      <point x="290.90483333333333" y="30.134166666666665"/>
      <point x="337.20663636363633" y="-12.569848484848485"/>
    </contour>
  </outline>
</glyph>
<glyph name="at" format="2">
  <advance width="1915.9950454545456"/>
  <unicode hex="0040"/>
  <outline>
    <contour>
      <point x="1005.1120454545454" y="-460.0" type="curve" smooth="yes"/>
      <point x="1144.8774696969697" y="-460.0"/>
      <point x="1281.8719393939393" y="-439.0279393939394"/>
      <point x="1401.2630909090908" y="-404.5139696969697" type="curve"/>
      <point x="1401.2630909090908" y="-285.6309696969697" type="line"/>
      <point x="1265.7546515151516" y="-323.86001515151514"/>
      <point x="1141.162393939394" y="-342.6030303030303"/>
      <point x="1005.1120454545454" y="-342.6030303030303" type="curve" smooth="yes"/>
      <point x="493.8047121212121" y="-342.6030303030303"/>
      <point x="239.08410606060605" y="-102.30704545454546"/>
      <point x="239.08410606060605" y="522.9720606060606" type="curve" smooth="yes"/>
      <point x="239.08410606060605" y="1137.8489545454545"/>
      <point x="492.3186818181818" y="1380.6030303030302"/>
      <point x="964.3969696969697" y="1380.6030303030302" type="curve" smooth="yes"/>
      <point x="1435.9892272727272" y="1380.6030303030302"/>
      <point x="1685.0226969696969" y="1142.876893939394"/>
      <point x="1686.0506363636364" y="560.6816060606061" type="curve" smooth="yes"/>
      <point x="1686.821590909091" y="211.58119696969698"/>
      <point x="1589.7267121212121" y="98.88300000000001"/>
      <point x="1481.4921363636363" y="98.88300000000001" type="curve" smooth="yes"/>
      <point x="1399.542484848485" y="98.88300000000001"/>
      <point x="1359.369318181818" y="143.97234848484848"/>
      <point x="1359.369318181818" y="256.3242121212121" type="curve" smooth="yes"/>
      <point x="1359.369318181818" y="711.9941818181818" type="line" smooth="yes"/>
      <point x="1359.369318181818" y="1001.2066363636363"/>
      <point x="1217.6597727272726" y="1096.5139696969698"/>
      <point x="947.7991818181818" y="1096.5139696969698" type="curve" smooth="yes"/>
      <point x="848.0896363636364" y="1096.5139696969698"/>
      <point x="728.4080303030303" y="1078.7430151515152"/>
      <point x="637.4415" y="1045.7150757575757" type="curve"/>
      <point x="636.9275303030303" y="914.7537878787879" type="line"/>
      <point x="737.8437121212121" y="950.7258484848485"/>
      <point x="845.4135606060606" y="966.0107727272728"/>
      <point x="927.2403939393939" y="966.0107727272728" type="curve" smooth="yes"/>
      <point x="1109.1006969696969" y="966.0107727272728"/>
      <point x="1202.4525606060606" y="911.6085606060606"/>
      <point x="1202.4525606060606" y="716.876893939394" type="curve" smooth="yes"/>
      <point x="1202.4525606060606" y="239.5308484848485" type="line"/>
      <point x="1127.642606060606" y="144.25727272727272"/>
      <point x="1023.3745606060606" y="106.53666666666666"/>
      <point x="929.503196969697" y="106.53666666666666" type="curve" smooth="yes"/>
      <point x="795.0005757575757" y="106.53666666666666"/>
      <point x="722.4810757575758" y="169.9164696969697"/>
      <point x="722.4810757575758" y="293.8157727272727" type="curve" smooth="yes"/>
      <point x="722.4810757575758" y="412.0558787878788"/>
      <point x="794.4307272727273" y="474.4915606060606"/>
      <point x="957.6763636363636" y="492.86583333333334" type="curve" smooth="yes"/>
      <point x="1258.4135606060606" y="526.1562878787879" type="line"/>
      <point x="1246.078287878788" y="630.7040151515151" type="line"/>
      <point x="947.1120454545455" y="597.4135606060606" type="line" smooth="yes"/>
      <point x="678.8437121212121" y="570.4694393939394"/>
      <point x="560.5922575757576" y="467.0448181818182"/>
      <point x="560.5922575757576" y="277.79336363636367" type="curve" smooth="yes"/>
      <point x="560.5922575757576" y="92.19557575757575"/>
      <point x="685.9330606060606" y="-17.54190909090909"/>
      <point x="889.4973787878788" y="-17.54190909090909" type="curve" smooth="yes"/>
      <point x="1018.6426060606061" y="-17.54190909090909"/>
      <point x="1138.0727575757576" y="31.832363636363638"/>
      <point x="1205.3073333333334" y="127.54190909090909" type="curve"/>
      <point x="1217.3911515151515" y="127.54190909090909" type="line"/>
      <point x="1250.5253181818182" y="37.145227272727276"/>
      <point x="1328.4304393939394" y="-17.54190909090909"/>
      <point x="1453.078575757576" y="-17.54190909090909" type="curve" smooth="yes"/>
      <point x="1655.084393939394" y="-17.54190909090909"/>
      <point x="1809.8442878787878" y="145.94412121212122"/>
      <point x="1810.587303030303" y="567.1955757575757" type="curve" smooth="yes"/>
      <point x="1811.3303181818183" y="1199.201106060606"/>
      <point x="1508.2296212121212" y="1498.0"/>
      <point x="964.3969696969697" y="1498.0" type="curve" smooth="yes"/>
      <point x="420.82130303030306" y="1498.0"/>
      <point x="105.40774242424243" y="1199.201106060606"/>
      <point x="105.40774242424243" y="520.0" type="curve" smooth="yes"/>
      <point x="105.40774242424243" y="-163.65919696969695"/>
      <point x="423.0503484848485" y="-459.2569848484849"/>
    </contour>
  </outline>
</glyph>
<glyph name="A" format="2">
  <advance width="1347.6161616161617"/>
  <unicode hex="0041"/>
  <note>
520
</note>
  <anchor x="674.5555555555555" y="0.0" name="bottom"/>
  <anchor x="1318.949494949495" y="0.0" name="ogonek"/>
  <anchor x="674.3030303030303" y="1520.0" name="top"/>
  <outline>
    <contour>
      <point x="28.666666666666664" y="0.0" type="line"/>
      <point x="189.29292929292933" y="0.0" type="line"/>
      <point x="686.070707070707" y="1403.3838383838383" type="line"/>
      <point x="658.5353535353536" y="1403.3838383838383" type="line"/>
      <point x="1155.8181818181818" y="0.0" type="line"/>
      <point x="1318.949494949495" y="0.0" type="line"/>
      <point x="786.5050505050506" y="1480.0" type="line"/>
      <point x="561.1111111111111" y="1480.0" type="line"/>
    </contour>
    <contour>
      <point x="306.47474747474746" y="480.27272727272725" type="line"/>
      <point x="1040.3838383838383" y="480.27272727272725" type="line"/>
      <point x="1002.7070707070707" y="615.4646464646464" type="line"/>
      <point x="344.4040404040404" y="615.4646464646464" type="line"/>
    </contour>
  </outline>
</glyph>
<glyph name="B" format="2">
  <advance width="1257.919191919192"/>
  <unicode hex="0042"/>
  <anchor x="644.4545454545455" y="0.0" name="bottom"/>
  <anchor x="644.4545454545455" y="1480.0" name="top"/>
  <outline>
    <contour>
      <point x="534.0909090909091" y="-12.525252525252526" type="curve" smooth="yes"/>
      <point x="1005.1919191919192" y="-12.525252525252526"/>
      <point x="1185.030303030303" y="132.53535353535352"/>
      <point x="1185.030303030303" y="402.32323232323233" type="curve" smooth="yes"/>
      <point x="1185.030303030303" y="606.3434343434343"/>
      <point x="1072.7373737373737" y="742.989898989899"/>
      <point x="840.979797979798" y="770.2424242424242" type="curve"/>
      <point x="838.7373737373738" y="756.0" type="line"/>
      <point x="1054.2424242424242" y="789.2525252525253"/>
      <point x="1142.7878787878788" y="929.9494949494949"/>
      <point x="1142.7878787878788" y="1101.4141414141413" type="curve" smooth="yes"/>
      <point x="1142.7878787878788" y="1366.4747474747476"/>
      <point x="973.4242424242425" y="1495.5151515151515"/>
      <point x="575.1818181818182" y="1495.5151515151515" type="curve" smooth="yes"/>
      <point x="421.8888888888889" y="1495.5151515151515"/>
      <point x="291.1313131313131" y="1480.2323232323233"/>
      <point x="169.54545454545453" y="1455.20202020202" type="curve"/>
      <point x="169.54545454545453" y="10.757575757575758" type="line"/>
      <point x="295.06060606060606" y="-5.252525252525253"/>
      <point x="415.5656565656566" y="-12.525252525252526"/>
    </contour>
    <contour>
      <point x="566.3939393939394" y="115.09090909090912" type="curve" smooth="yes"/>
      <point x="479.03030303030306" y="115.09090909090912"/>
      <point x="405.13131313131316" y="118.33333333333337"/>
      <point x="327.1919191919192" y="128.56565656565658" type="curve"/>
      <point x="327.1919191919192" y="1346.919191919192" type="line"/>
      <point x="401.8585858585859" y="1360.4040404040404"/>
      <point x="480.2727272727273" y="1367.8989898989898"/>
      <point x="589.5858585858585" y="1367.8989898989898" type="curve" smooth="yes"/>
      <point x="878.3838383838383" y="1367.8989898989898"/>
      <point x="988.9393939393939" y="1289.020202020202"/>
      <point x="988.9393939393939" y="1095.3535353535353" type="curve" smooth="yes"/>
      <point x="988.9393939393939" y="914.1515151515151"/>
      <point x="885.6161616161617" y="824.3030303030304"/>
      <point x="618.0" y="824.3030303030304" type="curve" smooth="yes"/>
      <point x="304.62626262626264" y="824.3030303030304" type="line"/>
      <point x="304.62626262626264" y="694.4141414141413" type="line"/>
      <point x="646.5151515151515" y="694.4141414141413" type="line" smooth="yes"/>
      <point x="912.9090909090909" y="694.4141414141413"/>
      <point x="1032.20202020202" y="602.8181818181818"/>
      <point x="1032.20202020202" y="407.1212121212121" type="curve" smooth="yes"/>
      <point x="1032.20202020202" y="210.43434343434345"/>
      <point x="917.6363636363636" y="115.09090909090912"/>
    </contour>
  </outline>
</glyph>
<glyph name="C" format="2">
  <advance width="1149.989898989899"/>
  <unicode hex="0043"/>
  <anchor x="712.989898989899" y="0.0" name="bottom"/>
  <anchor x="701.7777777777778" y="1520.0" name="top"/>
  <outline>
    <contour>
      <point x="774.4545454545455" y="-18.505050505050505" type="curve" smooth="yes"/>
      <point x="897.929292929293" y="-18.505050505050505"/>
      <point x="1010.969696969697" y="1.484848484848484"/>
      <point x="1109.6969696969697" y="35.95959595959596" type="curve"/>
      <point x="1109.6969696969697" y="175.67676767676772" type="line"/>
      <point x="992.5252525252525" y="136.72727272727275"/>
      <point x="894.7676767676768" y="120.47474747474752"/>
      <point x="785.5656565656566" y="120.47474747474752" type="curve" smooth="yes"/>
      <point x="466.13131313131316" y="120.47474747474752"/>
      <point x="274.0909090909091" y="270.61616161616166"/>
      <point x="274.0909090909091" y="741.4949494949495" type="curve" smooth="yes"/>
      <point x="274.0909090909091" y="1195.4141414141413"/>
      <point x="459.6666666666667" y="1359.5252525252524"/>
      <point x="796.3131313131313" y="1359.5252525252524" type="curve" smooth="yes"/>
      <point x="903.7878787878788" y="1359.5252525252524"/>
      <point x="1005.5050505050506" y="1346.2828282828282"/>
      <point x="1109.6969696969697" y="1315.8282828282827" type="curve"/>
      <point x="1109.6969696969697" y="1455.5454545454545" type="line"/>
      <point x="1006.959595959596" y="1484.020202020202"/>
      <point x="903.6969696969697" y="1498.5050505050506"/>
      <point x="790.4545454545455" y="1498.5050505050506" type="curve" smooth="yes"/>
      <point x="361.5353535353535" y="1498.5050505050506"/>
      <point x="105.62626262626262" y="1272.8484848484848"/>
      <point x="105.62626262626262" y="737.4949494949495" type="curve" smooth="yes"/>
      <point x="105.62626262626262" y="182.62626262626264"/>
      <point x="366.73737373737373" y="-18.505050505050505"/>
    </contour>
  </outline>
</glyph>
<glyph name="D" format="2">
  <advance width="1400.3076212121211"/>
  <unicode hex="0044"/>
  <anchor x="637.983409090909" y="0.0" name="bottom"/>
  <anchor x="696.1845151515151" y="740.0" name="center"/>
  <anchor x="169.18422727272727" y="762.0" name="stroke"/>
  <anchor x="632.8437121212121" y="1520.0" name="top"/>
  <outline>
    <contour>
      <point x="519.3073333333333" y="-11.79889393939394" type="curve" smooth="yes"/>
      <point x="1032.7098333333333" y="-11.79889393939394"/>
      <point x="1294.8998787878788" y="217.6312575757576"/>
      <point x="1294.8998787878788" y="740.0" type="curve" smooth="yes"/>
      <point x="1294.8998787878788" y="1252.8268333333333"/>
      <point x="1043.5087272727274" y="1494.7709545454545"/>
      <point x="555.7264242424243" y="1494.7709545454545" type="curve" smooth="yes"/>
      <point x="429.7374848484849" y="1494.7709545454545"/>
      <point x="289.20663636363633" y="1480.201106060606"/>
      <point x="169.18422727272727" y="1455.860303030303" type="curve"/>
      <point x="169.18422727272727" y="9.486030303030303" type="line"/>
      <point x="301.0110606060606" y="-6.027939393939394"/>
      <point x="407.62572727272726" y="-11.79889393939394"/>
    </contour>
    <contour>
      <point x="551.3745606060606" y="126.67083333333333" type="curve" smooth="yes"/>
      <point x="466.0506363636364" y="126.67083333333333"/>
      <point x="399.53113636363634" y="130.38590909090908"/>
      <point x="331.2406818181818" y="139.3300303030303" type="curve"/>
      <point x="331.2406818181818" y="1337.3850454545454" type="line"/>
      <point x="409.8215909090909" y="1349.5861515151514"/>
      <point x="489.0841060606061" y="1356.815196969697"/>
      <point x="561.0058181818182" y="1356.815196969697" type="curve" smooth="yes"/>
      <point x="940.5474393939394" y="1356.815196969697"/>
      <point x="1127.301515151515" y="1171.798606060606"/>
      <point x="1127.301515151515" y="740.5139696969698" type="curve" smooth="yes"/>
      <point x="1127.301515151515" y="304.743303030303"/>
      <point x="936.1731666666667" y="126.67083333333333"/>
    </contour>
  </outline>
</glyph>
<glyph name="E" format="2">
  <advance width="1165.0"/>
  <unicode hex="0045"/>
  <anchor x="650.1414141414141" y="0.0" name="bottom"/>
  <anchor x="1011.2222222222223" y="0.0" name="ogonek"/>
  <anchor x="648.6464646464647" y="1520.0" name="top"/>
  <anchor x="40.24242424242424" y="1480.0" name="topleft"/>
  <outline>
    <contour>
      <point x="169.54545454545453" y="0.0" type="line"/>
      <point x="1093.7474747474748" y="0.0" type="line"/>
      <point x="1093.7474747474748" y="135.69696969696975" type="line"/>
      <point x="328.4545454545455" y="135.69696969696975" type="line"/>
      <point x="328.4545454545455" y="1344.3030303030303" type="line"/>
      <point x="1083.7474747474748" y="1344.3030303030303" type="line"/>
      <point x="1083.7474747474748" y="1480.0" type="line"/>
      <point x="169.54545454545453" y="1480.0" type="line"/>
    </contour>
    <contour>
      <point x="270.80808080808083" y="691.6363636363636" type="line"/>
      <point x="986.2222222222222" y="691.6363636363636" type="line"/>
      <point x="986.2222222222222" y="827.3333333333334" type="line"/>
      <point x="270.80808080808083" y="827.3333333333334" type="line"/>
    </contour>
  </outline>
</glyph>
<glyph name="F" format="2">
  <advance width="1124.883"/>
  <unicode hex="0046"/>
  <outline>
    <contour>
      <point x="169.18422727272727" y="0.0" type="line"/>
      <point x="331.2406818181818" y="0.0" type="line"/>
      <point x="331.2406818181818" y="1341.2732878787879" type="line"/>
      <point x="1077.1958636363636" y="1341.2732878787879" type="line"/>
      <point x="1077.1958636363636" y="1480.0" type="line"/>
      <point x="169.18422727272727" y="1480.0" type="line"/>
    </contour>
    <contour>
      <point x="282.89406060606063" y="677.6309696969697" type="line"/>
      <point x="979.6260151515152" y="677.6309696969697" type="line"/>
      <point x="979.6260151515152" y="816.3576818181818" type="line"/>
      <point x="282.89406060606063" y="816.3576818181818" type="line"/>
    </contour>
  </outline>
</glyph>
<glyph name="G" format="2">
  <advance width="1345.949494949495"/>
  <unicode hex="0047"/>
  <anchor x="743.3434343434344" y="0.0" name="bottom"/>
  <anchor x="743.3434343434344" y="1520.0" name="top"/>
  <outline>
    <contour>
      <point x="863.8686868686868" y="-12.525252525252526" type="curve" smooth="yes"/>
      <point x="971.939393939394" y="-12.525252525252526"/>
      <point x="1069.0707070707072" y="-4.505050505050505"/>
      <point x="1194.5858585858587" y="16.494949494949495" type="curve"/>
      <point x="1194.5858585858587" y="720.0" type="line"/>
      <point x="1042.2424242424242" y="720.0" type="line"/>
      <point x="1042.2424242424242" y="81.36363636363637" type="line"/>
      <point x="1106.1616161616162" y="147.42424242424246" type="line"/>
      <point x="1032.6969696969697" y="133.19191919191923"/>
      <point x="949.6969696969697" y="125.69696969696973"/>
      <point x="854.7777777777778" y="125.69696969696973" type="curve" smooth="yes"/>
      <point x="469.13131313131316" y="125.69696969696973"/>
      <point x="274.33333333333337" y="301.03030303030306"/>
      <point x="273.58585858585866" y="737.2222222222222" type="curve" smooth="yes"/>
      <point x="272.8383838383839" y="1195.909090909091"/>
      <point x="486.5858585858586" y="1359.2727272727273"/>
      <point x="839.1313131313132" y="1359.5252525252524" type="curve" smooth="yes"/>
      <point x="939.8888888888889" y="1359.5252525252524"/>
      <point x="1040.6262626262626" y="1348.2727272727273"/>
      <point x="1160.7878787878788" y="1315.070707070707" type="curve"/>
      <point x="1160.7878787878788" y="1454.7878787878788" type="line"/>
      <point x="1050.5555555555557" y="1483.7676767676767"/>
      <point x="942.040404040404" y="1498.5050505050506"/>
      <point x="829.5252525252525" y="1498.5050505050506" type="curve" smooth="yes"/>
      <point x="386.7171717171717" y="1498.5050505050506"/>
      <point x="104.87878787878788" y="1275.090909090909"/>
      <point x="105.62626262626262" y="737.4949494949495" type="curve" smooth="yes"/>
      <point x="106.37373737373737" y="214.3030303030303"/>
      <point x="365.25252525252523" y="-12.525252525252526"/>
    </contour>
  </outline>
</glyph>
<glyph name="H" format="2">
  <advance width="1444.7712424242425"/>
  <unicode hex="0048"/>
  <anchor x="722.6426060606061" y="0.0" name="bottom"/>
  <anchor x="722.6426060606061" y="1158.2459242424243" name="center"/>
  <anchor x="722.6426060606061" y="1520.0" name="top"/>
  <anchor x="39.71507575757576" y="1480.0" name="topleft"/>
  <outline>
    <contour>
      <point x="169.18422727272727" y="0.0" type="line"/>
      <point x="331.2406818181818" y="0.0" type="line"/>
      <point x="331.2406818181818" y="686.1114696969697" type="line"/>
      <point x="1113.5305606060606" y="686.1114696969697" type="line"/>
      <point x="1113.5305606060606" y="0.0" type="line"/>
      <point x="1275.587015151515" y="0.0" type="line"/>
      <point x="1275.587015151515" y="1480.0" type="line"/>
      <point x="1113.5305606060606" y="1480.0" type="line"/>
      <point x="1113.5305606060606" y="832.8047121212121" type="line"/>
      <point x="331.2406818181818" y="832.8047121212121" type="line"/>
      <point x="331.2406818181818" y="1480.0" type="line"/>
      <point x="169.18422727272727" y="1480.0" type="line"/>
    </contour>
  </outline>
</glyph>
<glyph name="I" format="2">
  <advance width="500.42490909090907"/>
  <unicode hex="0049"/>
  <anchor x="249.9554696969697" y="0.0" name="bottom"/>
  <anchor x="331.2406818181818" y="0.0" name="ogonek"/>
  <anchor x="250.21245454545453" y="1520.0" name="top"/>
  <outline>
    <contour>
      <point x="169.18422727272727" y="0.0" type="line"/>
      <point x="331.2406818181818" y="0.0" type="line"/>
      <point x="331.2406818181818" y="1480.0" type="line"/>
      <point x="169.18422727272727" y="1480.0" type="line"/>
    </contour>
  </outline>
</glyph>
<glyph name="J" format="2">
  <advance width="500.42490909090907"/>
  <unicode hex="004A"/>
  <anchor x="369.8774696969697" y="0.0" name="bottom"/>
  <anchor x="250.4694393939394" y="1520.0" name="top"/>
  <outline>
    <contour>
      <point x="98.11204545454545" y="-343.59778787878787" type="line"/>
      <point x="263.4138484848485" y="-140.4580909090909"/>
      <point x="323.0675151515152" y="34.335272727272724"/>
      <point x="331.2406818181818" y="270.21798484848483" type="curve"/>
      <point x="331.2406818181818" y="1480.0" type="line"/>
      <point x="169.69819696969697" y="1480.0" type="line"/>
      <point x="169.69819696969697" y="290.62572727272726" type="line" smooth="yes"/>
      <point x="169.69819696969697" y="59.36321212121212"/>
      <point x="118.12281818181819" y="-97.84342424242425"/>
      <point x="-8.709545454545454" y="-270.82101515151516" type="curve"/>
    </contour>
  </outline>
</glyph>
<glyph name="K" format="2">
  <advance width="1236.7098333333333"/>
  <unicode hex="004B"/>
  <anchor x="645.5532575757576" y="0.0" name="bottom"/>
  <anchor x="643.2403939393939" y="1480.0" name="top"/>
  <outline>
    <contour>
      <point x="1076.6478484848485" y="0.0" type="line"/>
      <point x="1259.8160606060605" y="0.0" type="line"/>
      <point x="659.1682121212122" y="784.2793939393939" type="line"/>
      <point x="657.1123333333333" y="738.178696969697" type="line"/>
      <point x="1217.5590757575758" y="1480.0" type="line"/>
      <point x="1039.7316666666666" y="1480.0" type="line"/>
      <point x="494.4246212121212" y="756.4580909090909" type="line"/>
    </contour>
    <contour>
      <point x="169.18422727272727" y="0.0" type="line"/>
      <point x="331.2406818181818" y="0.0" type="line"/>
      <point x="331.2406818181818" y="1480.0" type="line"/>
      <point x="169.18422727272727" y="1480.0" type="line"/>
    </contour>
    <contour>
      <point x="304.44731818181816" y="686.1114696969697" type="line"/>
      <point x="569.2628030303031" y="686.1114696969697" type="line"/>
      <point x="569.2628030303031" y="832.061696969697" type="line"/>
      <point x="304.44731818181816" y="832.061696969697" type="line"/>
    </contour>
  </outline>
</glyph>
<glyph name="L" format="2">
  <advance width="1071.201393939394"/>
  <unicode hex="004C"/>
  <anchor x="615.0782878787879" y="0.0" name="bottom"/>
  <anchor x="699.4080303030303" y="1616.0" name="caronalt"/>
  <anchor x="775.8271212121213" y="809.463909090909" name="periodcentered"/>
  <anchor x="251.24039393939393" y="794.5587878787878" name="slash"/>
  <anchor x="251.24039393939393" y="1520.0" name="top"/>
  <outline>
    <contour>
      <point x="169.18422727272727" y="0.0" type="line"/>
      <point x="1059.4863181818182" y="0.0" type="line"/>
      <point x="1059.4863181818182" y="140.7825909090909" type="line"/>
      <point x="331.2406818181818" y="140.7825909090909" type="line"/>
      <point x="331.2406818181818" y="1480.0" type="line"/>
      <point x="169.18422727272727" y="1480.0" type="line"/>
    </contour>
  </outline>
</glyph>
<glyph name="M" format="2">
  <advance width="1759.844"/>
  <unicode hex="004D"/>
  <anchor x="887.3745606060606" y="0.0" name="bottom"/>
  <anchor x="887.3745606060606" y="1480.0" name="top"/>
  <outline>
    <contour>
      <point x="173.18422727272727" y="0.0" type="line"/>
      <point x="326.04510606060603" y="0.0" type="line"/>
      <point x="326.04510606060603" y="1339.2508787878787" type="line"/>
      <point x="273.3969696969697" y="1339.2508787878787" type="line"/>
      <point x="806.9720606060606" y="205.13969696969696" type="line"/>
      <point x="952.8719393939393" y="205.13969696969696" type="line"/>
      <point x="1480.078287878788" y="1339.2508787878787" type="line"/>
      <point x="1433.798893939394" y="1339.2508787878787" type="line"/>
      <point x="1433.798893939394" y="0.0" type="line"/>
      <point x="1586.6597727272726" y="0.0" type="line"/>
      <point x="1586.6597727272726" y="1480.0" type="line"/>
      <point x="1394.4746818181818" y="1480.0" type="line"/>
      <point x="865.922" y="330.6821818181818" type="line"/>
      <point x="900.4918484848484" y="330.6821818181818" type="line"/>
      <point x="365.3693181818182" y="1480.0" type="line"/>
      <point x="173.18422727272727" y="1480.0" type="line"/>
    </contour>
  </outline>
</glyph>
<glyph name="N" format="2">
  <advance width="1468.6666666666667"/>
  <unicode hex="004E"/>
  <anchor x="734.7070707070707" y="0.0" name="bottom"/>
  <anchor x="734.7070707070707" y="1520.0" name="top"/>
  <outline>
    <contour>
      <point x="169.54545454545453" y="0.0" type="line"/>
      <point x="321.6565656565657" y="0.0" type="line"/>
      <point x="321.6565656565657" y="1296.7676767676767" type="line"/>
      <point x="281.81818181818187" y="1296.7676767676767" type="line"/>
      <point x="1133.7171717171716" y="0.0" type="line"/>
      <point x="1299.1212121212122" y="0.0" type="line"/>
      <point x="1299.1212121212122" y="1480.0" type="line"/>
      <point x="1147.010101010101" y="1480.0" type="line"/>
      <point x="1147.010101010101" y="183.2323232323233" type="line"/>
      <point x="1186.8484848484848" y="183.2323232323233" type="line"/>
      <point x="334.949494949495" y="1480.0" type="line"/>
      <point x="169.54545454545453" y="1480.0" type="line"/>
    </contour>
  </outline>
</glyph>
<glyph name="O" format="2">
  <advance width="1437.6969696969697"/>
  <unicode hex="004F"/>
  <anchor x="718.8484848484849" y="0.0" name="bottom"/>
  <anchor x="718.8484848484849" y="740.0" name="center"/>
  <anchor x="882.6363636363636" y="0.0" name="ogonek"/>
  <anchor x="718.8484848484849" y="1520.0" name="top"/>
  <anchor x="45.76767676767677" y="1480.0" name="topleft"/>
  <anchor x="889.969696969697" y="1480.0" name="topright"/>
  <outline>
    <contour>
      <point x="718.8484848484849" y="-18.505050505050505" type="curve" smooth="yes"/>
      <point x="1085.4040404040404" y="-18.505050505050505"/>
      <point x="1332.0707070707072" y="206.11111111111111"/>
      <point x="1332.0707070707072" y="740.0" type="curve" smooth="yes"/>
      <point x="1332.0707070707072" y="1273.888888888889"/>
      <point x="1087.8989898989898" y="1498.5050505050506"/>
      <point x="718.8484848484849" y="1498.5050505050506" type="curve" smooth="yes"/>
      <point x="352.04040404040404" y="1498.5050505050506"/>
      <point x="105.62626262626262" y="1274.3939393939395"/>
      <point x="105.62626262626262" y="740.0" type="curve" smooth="yes"/>
      <point x="105.62626262626262" y="205.60606060606062"/>
      <point x="350.0505050505051" y="-18.505050505050505"/>
    </contour>
    <contour>
      <point x="718.8484848484849" y="118.94949494949499" type="curve" smooth="yes"/>
      <point x="448.5858585858586" y="118.94949494949499"/>
      <point x="271.5656565656566" y="280.31313131313135"/>
      <point x="271.5656565656566" y="745.010101010101" type="curve" smooth="yes"/>
      <point x="271.5656565656566" y="1199.6868686868686"/>
      <point x="449.3434343434344" y="1361.050505050505"/>
      <point x="718.8484848484849" y="1361.050505050505" type="curve" smooth="yes"/>
      <point x="988.3535353535353" y="1361.050505050505"/>
      <point x="1166.1313131313132" y="1198.9292929292928"/>
      <point x="1166.1313131313132" y="734.989898989899" type="curve" smooth="yes"/>
      <point x="1166.1313131313132" y="281.0707070707071"/>
      <point x="989.1111111111111" y="118.94949494949499"/>
    </contour>
  </outline>
</glyph>
<glyph name="P" format="2">
  <advance width="1232.5701363636363"/>
  <unicode hex="0050"/>
  <outline>
    <contour>
      <point x="169.18422727272727" y="0.0" type="line"/>
      <point x="331.2406818181818" y="0.0" type="line"/>
      <point x="331.2406818181818" y="494.0500606060606" type="line"/>
      <point x="399.19033333333334" y="488.10593939393937"/>
      <point x="456.70983333333334" y="485.36292424242424"/>
      <point x="525.6874242424242" y="485.36292424242424" type="curve" smooth="yes"/>
      <point x="948.9723484848485" y="485.36292424242424"/>
      <point x="1143.0785757575757" y="662.2176969696969"/>
      <point x="1143.0785757575757" y="991.0669393939394" type="curve" smooth="yes"/>
      <point x="1143.0785757575757" y="1339.659196969697"/>
      <point x="939.2852121212121" y="1495.541909090909"/>
      <point x="548.7598939393939" y="1495.541909090909" type="curve" smooth="yes"/>
      <point x="411.34080303030305" y="1495.541909090909"/>
      <point x="291.6926666666667" y="1481.4860303030302"/>
      <point x="169.18422727272727" y="1458.1731666666667" type="curve"/>
    </contour>
    <contour>
      <point x="528.9444090909091" y="616.6370757575758" type="curve" smooth="yes"/>
      <point x="455.96681818181816" y="616.6370757575758"/>
      <point x="395.2462121212121" y="620.123106060606"/>
      <point x="331.2406818181818" y="628.8381818181819" type="curve"/>
      <point x="331.2406818181818" y="1345.8655454545456" type="line"/>
      <point x="401.13445454545456" y="1357.8096666666668"/>
      <point x="472.97234848484845" y="1364.2677575757575"/>
      <point x="559.5532575757576" y="1364.2677575757575" type="curve" smooth="yes"/>
      <point x="843.977590909091" y="1364.2677575757575"/>
      <point x="981.9048333333334" y="1251.1728787878787"/>
      <point x="981.9048333333334" y="988.3239242424243" type="curve" smooth="yes"/>
      <point x="981.9048333333334" y="736.0782878787879"/>
      <point x="846.9496515151516" y="616.6370757575758"/>
    </contour>
  </outline>
</glyph>
<glyph name="Q" format="2">
  <advance width="1437.6969696969697"/>
  <unicode hex="0051"/>
  <outline>
    <contour>
      <point x="1282.1919191919192" y="-228.98989898989902" type="curve"/>
      <point x="1307.848484848485" y="-95.31313131313131" type="line"/>
      <point x="1087.5353535353536" y="-74.77777777777777"/>
      <point x="845.1010101010102" y="-33.74747474747474"/>
      <point x="657.1212121212121" y="46.050505050505066" type="curve"/>
      <point x="624.2424242424242" y="1.848484848484853" type="line"/>
      <point x="1090.1515151515152" y="-55.22222222222222"/>
      <point x="1332.0707070707072" y="211.62626262626264"/>
      <point x="1332.0707070707072" y="740.0" type="curve" smooth="yes"/>
      <point x="1332.0707070707072" y="1278.3737373737374"/>
      <point x="1085.6565656565656" y="1498.5050505050506"/>
      <point x="718.8484848484849" y="1498.5050505050506" type="curve" smooth="yes"/>
      <point x="352.04040404040404" y="1498.5050505050506"/>
      <point x="105.62626262626262" y="1274.3939393939395"/>
      <point x="105.62626262626262" y="737.4747474747475" type="curve" smooth="yes"/>
      <point x="105.62626262626262" y="146.44444444444446"/>
      <point x="372.2828282828283" y="-118.74747474747475"/>
    </contour>
    <contour>
      <point x="718.8484848484849" y="118.94949494949499" type="curve" smooth="yes"/>
      <point x="448.0808080808081" y="118.94949494949499"/>
      <point x="271.5656565656566" y="279.80808080808083"/>
      <point x="271.5656565656566" y="745.010101010101" type="curve" smooth="yes"/>
      <point x="271.5656565656566" y="1199.6868686868686"/>
      <point x="449.3434343434344" y="1361.050505050505"/>
      <point x="718.8484848484849" y="1361.050505050505" type="curve" smooth="yes"/>
      <point x="988.3535353535353" y="1361.050505050505"/>
      <point x="1166.1313131313132" y="1198.9292929292928"/>
      <point x="1166.1313131313132" y="734.989898989899" type="curve" smooth="yes"/>
      <point x="1166.1313131313132" y="281.0707070707071"/>
      <point x="989.1111111111111" y="118.94949494949499"/>
    </contour>
  </outline>
</glyph>
<glyph name="R" format="2">
  <advance width="1306.860590909091"/>
  <unicode hex="0052"/>
  <anchor x="683.1286363636364" y="0.0" name="bottom"/>
  <anchor x="629.4973787878788" y="1520.0" name="top"/>
  <outline>
    <contour>
      <point x="169.18422727272727" y="0.0" type="line"/>
      <point x="329.18480303030304" y="0.0" type="line"/>
      <point x="329.18480303030304" y="619.6254393939394" type="line"/>
      <point x="394.96128787878786" y="614.9103636363636"/>
      <point x="451.53666666666663" y="611.4243333333334"/>
      <point x="534.1734545454545" y="611.4243333333334" type="curve" smooth="yes"/>
      <point x="931.061696969697" y="611.4243333333334"/>
      <point x="1143.223803030303" y="761.876893939394"/>
      <point x="1141.7377727272728" y="1057.698196969697" type="curve" smooth="yes"/>
      <point x="1141.7377727272728" y="1358.0893484848484"/>
      <point x="953.061696969697" y="1495.541909090909"/>
      <point x="563.502909090909" y="1495.541909090909" type="curve" smooth="yes"/>
      <point x="409.84924242424245" y="1495.541909090909"/>
      <point x="282.0055303030303" y="1477.9720606060605"/>
      <point x="169.18422727272727" y="1455.860303030303" type="curve"/>
    </contour>
    <contour>
      <point x="1074.1673484848484" y="0.0" type="line"/>
      <point x="1256.3635" y="0.0" type="line"/>
      <point x="730.0340454545454" y="696.0614090909091" type="line"/>
      <point x="551.8937727272727" y="696.0614090909091" type="line"/>
    </contour>
    <contour>
      <point x="535.2572727272727" y="741.1845151515151" type="curve" smooth="yes"/>
      <point x="453.3355606060606" y="741.1845151515151"/>
      <point x="405.62048484848486" y="744.1845151515151"/>
      <point x="329.18480303030304" y="750.6705454545455" type="curve"/>
      <point x="329.18480303030304" y="1345.1504696969696" type="line"/>
      <point x="404.3355606060606" y="1358.0945909090908"/>
      <point x="472.62601515151516" y="1366.0666515151515"/>
      <point x="573.3800909090909" y="1366.0666515151515" type="curve" smooth="yes"/>
      <point x="863.2959848484849" y="1366.0666515151515"/>
      <point x="987.1338787878788" y="1275.8600151515152"/>
      <point x="987.1338787878788" y="1055.4691515151515" type="curve" smooth="yes"/>
      <point x="987.1338787878788" y="841.4525606060606"/>
      <point x="852.1507575757576" y="741.1845151515151"/>
    </contour>
  </outline>
</glyph>
<glyph name="S" format="2">
  <advance width="1062.424909090909"/>
  <unicode hex="0053"/>
  <anchor x="539.7543636363637" y="0.0" name="bottom"/>
  <anchor x="539.7543636363637" y="1520.0" name="top"/>
  <outline>
    <contour>
      <point x="461.8995909090909" y="-18.513969696969696" type="curve" smooth="yes"/>
      <point x="796.7712424242425" y="-18.513969696969696"/>
      <point x="988.4752575757576" y="134.05034848484848"/>
      <point x="988.4752575757576" y="400.8157727272727" type="curve" smooth="yes"/>
      <point x="988.4752575757576" y="615.2683333333333"/>
      <point x="864.1065151515152" y="739.4080303030303"/>
      <point x="590.3969696969697" y="808.4359696969697" type="curve" smooth="yes"/>
      <point x="510.4080303030303" y="829.061696969697" type="line" smooth="yes"/>
      <point x="309.503196969697" y="882.0951666666666"/>
      <point x="237.95022727272726" y="952.4190909090909"/>
      <point x="237.95022727272726" y="1097.7540757575757" type="curve" smooth="yes"/>
      <point x="237.95022727272726" y="1264.0052424242424"/>
      <point x="350.9054090909091" y="1360.815196969697"/>
      <point x="605.3131515151515" y="1360.815196969697" type="curve" smooth="yes"/>
      <point x="713.9388787878788" y="1360.815196969697"/>
      <point x="822.6484242424242" y="1345.7872575757576"/>
      <point x="923.7936515151515" y="1314.3291666666667" type="curve"/>
      <point x="923.7936515151515" y="1454.0279393939395" type="line"/>
      <point x="831.7657121212121" y="1482.7430151515152"/>
      <point x="714.6539545454546" y="1498.5139696969698"/>
      <point x="601.0896363636364" y="1498.5139696969698" type="curve" smooth="yes"/>
      <point x="251.36874242424244" y="1498.5139696969698"/>
      <point x="73.94965151515152" y="1343.0614090909091"/>
      <point x="73.94965151515152" y="1088.8713636363636" type="curve" smooth="yes"/>
      <point x="73.94965151515152" y="875.1618181818181"/>
      <point x="198.83236363636365" y="750.0221212121212"/>
      <point x="450.71507575757573" y="685.7651363636363" type="curve" smooth="yes"/>
      <point x="530.7040151515151" y="665.1394090909091" type="line" smooth="yes"/>
      <point x="743.4636212121212" y="609.3349848484849"/>
      <point x="824.4746818181818" y="541.2121666666667"/>
      <point x="824.4746818181818" y="390.87718181818184" type="curve" smooth="yes"/>
      <point x="824.4746818181818" y="213.4528484848485"/>
      <point x="708.860303030303" y="119.18480303030303"/>
      <point x="464.10069696969697" y="119.18480303030303" type="curve" smooth="yes"/>
      <point x="351.84924242424245" y="119.18480303030303"/>
      <point x="221.40221212121213" y="138.75465151515152"/>
      <point x="97.14522727272727" y="180.49766666666667" type="curve"/>
      <point x="97.14522727272727" y="40.79889393939394" type="line"/>
      <point x="211.74301515151515" y="1.2849242424242426"/>
      <point x="343.9944696969697" y="-18.513969696969696"/>
    </contour>
  </outline>
</glyph>
<glyph name="T" format="2">
  <advance width="1174.3737373737374"/>
  <unicode hex="0054"/>
  <anchor x="587.3131313131313" y="0.0" name="bottom"/>
  <anchor x="587.3131313131313" y="774.7474747474747" name="center"/>
  <anchor x="587.3131313131313" y="1520.0" name="top"/>
  <outline>
    <contour>
      <point x="506.8484848484849" y="0.0" type="line"/>
      <point x="667.5252525252525" y="0.0" type="line"/>
      <point x="667.5252525252525" y="1340.5151515151515" type="line"/>
      <point x="1160.6262626262626" y="1340.5151515151515" type="line"/>
      <point x="1160.6262626262626" y="1480.0" type="line"/>
      <point x="13.747474747474747" y="1480.0" type="line"/>
      <point x="13.747474747474747" y="1340.5151515151515" type="line"/>
      <point x="506.8484848484849" y="1340.5151515151515" type="line"/>
    </contour>
  </outline>
</glyph>
<glyph name="U" format="2">
  <advance width="1416.9723484848485"/>
  <unicode hex="0055"/>
  <anchor x="710.3856212121212" y="0.0" name="bottom"/>
  <anchor x="876.2238030303031" y="1.486030303030303" name="ogonek"/>
  <anchor x="710.3856212121212" y="1520.0" name="top"/>
  <anchor x="1105.497090909091" y="1480.0" name="topright"/>
  <outline>
    <contour>
      <point x="710.3856212121212" y="-18.513969696969696" type="curve" smooth="yes"/>
      <point x="1086.6818939393938" y="-18.513969696969696"/>
      <point x="1255.2741515151515" y="163.36321212121211"/>
      <point x="1255.2741515151515" y="559.8381818181819" type="curve" smooth="yes"/>
      <point x="1255.2741515151515" y="1480.0" type="line"/>
      <point x="1096.759606060606" y="1480.0" type="line"/>
      <point x="1096.759606060606" y="541.8716515151515" type="line" smooth="yes"/>
      <point x="1096.759606060606" y="249.50872727272727"/>
      <point x="977.0948787878788" y="120.98369696969696"/>
      <point x="710.3856212121212" y="120.98369696969696" type="curve" smooth="yes"/>
      <point x="443.67636363636365" y="120.98369696969696"/>
      <point x="323.7546515151515" y="249.50872727272727"/>
      <point x="323.7546515151515" y="541.8716515151515" type="curve" smooth="yes"/>
      <point x="323.7546515151515" y="1480.0" type="line"/>
      <point x="161.69819696969697" y="1480.0" type="line"/>
      <point x="161.69819696969697" y="559.8381818181819" type="line" smooth="yes"/>
      <point x="161.69819696969697" y="163.36321212121211"/>
      <point x="332.29045454545457" y="-18.513969696969696"/>
    </contour>
  </outline>
</glyph>
<glyph name="V" format="2">
  <advance width="1313.844"/>
  <unicode hex="0056"/>
  <outline>
    <contour>
      <point x="539.2511666666667" y="0.0" type="line"/>
      <point x="774.5928333333334" y="0.0" type="line"/>
      <point x="1302.7546515151516" y="1480.0" type="line"/>
      <point x="1141.8099545454545" y="1480.0" type="line"/>
      <point x="643.2124545454545" y="74.17898484848484" type="line"/>
      <point x="679.2572727272727" y="74.17898484848484" type="line"/>
      <point x="182.97263636363635" y="1480.0" type="line"/>
      <point x="11.089348484848484" y="1480.0" type="line"/>
    </contour>
  </outline>
</glyph>
<glyph name="W" format="2">
  <advance width="2113.6767676767677"/>
  <unicode hex="0057"/>
  <anchor x="1057.959595959596" y="0.0" name="bottom"/>
  <anchor x="1057.959595959596" y="1520.0" name="top"/>
  <outline>
    <contour>
      <point x="472.95959595959596" y="0.0" type="line"/>
      <point x="683.1212121212121" y="0.0" type="line"/>
      <point x="1080.111111111111" y="1377.9595959595958" type="line"/>
      <point x="1038.3636363636365" y="1377.9595959595958" type="line"/>
      <point x="1430.5555555555557" y="0.0" type="line"/>
      <point x="1640.7171717171718" y="0.0" type="line"/>
      <point x="2057.818181818182" y="1480.0" type="line"/>
      <point x="1902.959595959596" y="1480.0" type="line"/>
      <point x="1512.979797979798" y="77.12121212121214" type="line"/>
      <point x="1549.939393939394" y="77.12121212121214" type="line"/>
      <point x="1155.2222222222222" y="1480.0" type="line"/>
      <point x="965.7676767676768" y="1480.0" type="line"/>
      <point x="567.0" y="77.12121212121214" type="line"/>
      <point x="606.7373737373738" y="77.12121212121214" type="line"/>
      <point x="220.03030303030306" y="1480.0" type="line"/>
      <point x="55.1111111111111" y="1480.0" type="line"/>
    </contour>
  </outline>
</glyph>
<glyph name="X" format="2">
  <advance width="1278.2796818181819"/>
  <unicode hex="0058"/>
  <outline>
    <contour>
      <point x="1079.955181818182" y="0.0" type="line"/>
      <point x="1265.922287878788" y="0.0" type="line"/>
      <point x="734.2351515151515" y="756.2235151515151" type="line"/>
      <point x="639.2683333333333" y="879.2406818181818" type="line"/>
      <point x="215.8329393939394" y="1480.0" type="line"/>
      <point x="29.83789393939394" y="1480.0" type="line"/>
      <point x="542.2735757575757" y="754.1955757575757" type="line"/>
      <point x="637.2403939393939" y="631.2063484848485" type="line"/>
    </contour>
    <contour>
      <point x="10.586439393939393" y="0.0" type="line"/>
      <point x="193.7825909090909" y="0.0" type="line"/>
      <point x="637.2403939393939" y="631.2063484848485" type="line"/>
      <point x="734.2351515151515" y="756.2235151515151" type="line"/>
      <point x="1244.3579696969696" y="1480.0" type="line"/>
      <point x="1063.1897575757575" y="1480.0" type="line"/>
      <point x="639.2683333333333" y="879.2406818181818" type="line"/>
      <point x="542.2735757575757" y="754.1955757575757" type="line"/>
    </contour>
  </outline>
</glyph>
<glyph name="Y" format="2">
  <advance width="1174.3737373737374"/>
  <unicode hex="0059"/>
  <anchor x="587.0606060606061" y="0.0" name="bottom"/>
  <anchor x="587.3131313131313" y="1520.0" name="top"/>
  <anchor x="6.171717171717168" y="1480.0" name="topleft"/>
  <outline>
    <contour>
      <point x="507.6060606060606" y="0.0" type="line"/>
      <point x="668.030303030303" y="0.0" type="line"/>
      <point x="668.030303030303" y="723.6666666666666" type="line"/>
      <point x="632.8585858585859" y="604.2727272727273" type="line"/>
      <point x="1195.979797979798" y="1480.0" type="line"/>
      <point x="1029.6161616161617" y="1480.0" type="line"/>
      <point x="563.7373737373738" y="758.1313131313132" type="line"/>
      <point x="618.4444444444445" y="758.1313131313132" type="line"/>
      <point x="146.32323232323236" y="1480.0" type="line"/>
      <point x="-30.868686868686876" y="1480.0" type="line"/>
      <point x="542.7777777777778" y="604.2727272727273" type="line"/>
      <point x="507.6060606060606" y="725.1818181818182" type="line"/>
    </contour>
  </outline>
</glyph>
<glyph name="Z" format="2">
  <advance width="1151.989898989899"/>
  <unicode hex="005A"/>
  <anchor x="575.7373737373738" y="0.0" name="bottom"/>
  <anchor x="576.7474747474747" y="1520.0" name="top"/>
  <outline>
    <contour>
      <point x="61.73737373737374" y="0.0" type="line"/>
      <point x="1090.2525252525252" y="0.0" type="line"/>
      <point x="1090.2525252525252" y="137.98989898989902" type="line"/>
      <point x="237.60606060606068" y="137.98989898989902" type="line"/>
      <point x="248.0707070707071" y="99.85858585858588" type="line"/>
      <point x="1078.7575757575758" y="1390.2525252525252" type="line"/>
      <point x="1078.7575757575758" y="1480.0" type="line"/>
      <point x="73.23232323232322" y="1480.0" type="line"/>
      <point x="73.23232323232322" y="1342.010101010101" type="line"/>
      <point x="902.8888888888889" y="1342.010101010101" type="line"/>
      <point x="892.4242424242424" y="1380.141414141414" type="line"/>
      <point x="61.73737373737374" y="89.74747474747477" type="line"/>
    </contour>
  </outline>
</glyph>
<glyph name="bracketleft" format="2">
  <advance width="658.3232323232323"/>
  <unicode hex="005B"/>
  <outline>
    <contour>
      <point x="189.54545454545453" y="-440.0" type="line"/>
      <point x="692.2626262626263" y="-440.0" type="line"/>
      <point x="692.2626262626263" y="-308.8282828282828" type="line"/>
      <point x="347.69696969696975" y="-308.8282828282828" type="line"/>
      <point x="347.69696969696975" y="1484.8282828282827" type="line"/>
      <point x="694.7878787878788" y="1484.8282828282827" type="line"/>
      <point x="694.7878787878788" y="1616.0" type="line"/>
      <point x="189.54545454545453" y="1616.0" type="line"/>
    </contour>
  </outline>
</glyph>
<glyph name="backslash" format="2">
  <advance width="619.1682121212122"/>
  <unicode hex="005C"/>
  <outline>
    <contour>
      <point x="458.9944696969697" y="-240.0" type="line"/>
      <point x="619.1682121212122" y="-240.0" type="line"/>
      <point x="160.17374242424242" y="1616.0" type="line"/>
      <point x="0.0" y="1616.0" type="line"/>
    </contour>
  </outline>
</glyph>
<glyph name="bracketright" format="2">
  <advance width="658.8940606060606"/>
  <unicode hex="005D"/>
  <outline>
    <contour>
      <point x="-33.83236363636364" y="-440.0" type="line"/>
      <point x="469.70983333333334" y="-440.0" type="line"/>
      <point x="469.70983333333334" y="1616.0" type="line"/>
      <point x="-36.40221212121212" y="1616.0" type="line"/>
      <point x="-36.40221212121212" y="1483.6420303030304" type="line"/>
      <point x="309.9662424242424" y="1483.6420303030304" type="line"/>
      <point x="309.9662424242424" y="-307.6420303030303" type="line"/>
      <point x="-33.83236363636364" y="-307.6420303030303" type="line"/>
    </contour>
  </outline>
</glyph>
<glyph name="asciicircum" format="2">
  <advance width="1156.5366666666666"/>
  <unicode hex="005E"/>
  <outline>
    <contour>
      <point x="96.01106060606061" y="740.0" type="line"/>
      <point x="259.5590757575758" y="740.0" type="line"/>
      <point x="604.6260151515152" y="1395.139409090909" type="line"/>
      <point x="551.9106515151515" y="1395.139409090909" type="line"/>
      <point x="896.9775909090908" y="740.0" type="line"/>
      <point x="1060.5256060606062" y="740.0" type="line"/>
      <point x="662.5590757575758" y="1480.0" type="line"/>
      <point x="492.4915606060606" y="1480.0" type="line"/>
    </contour>
  </outline>
</glyph>
<glyph name="underscore" format="2">
  <advance width="1121.4949494949497"/>
  <unicode hex="005F"/>
  <outline>
    <contour>
      <point x="92.47474747474747" y="-131.42424242424246" type="line"/>
      <point x="1029.020202020202" y="-131.42424242424246" type="line"/>
      <point x="1029.020202020202" y="-0.25252525252525265" type="line"/>
      <point x="92.47474747474747" y="-0.25252525252525265" type="line"/>
    </contour>
  </outline>
</glyph>
<glyph name="a" format="2">
  <advance width="1028.7474747474748"/>
  <unicode hex="0061"/>
  <anchor x="520.7171717171717" y="0.0" name="bottom"/>
  <anchor x="889.1616161616162" y="0.0" name="ogonek"/>
  <anchor x="510.2525252525253" y="1200.0" name="top"/>
  <outline>
    <contour>
      <point x="420.4848484848485" y="-17.515151515151516" type="curve" smooth="yes"/>
      <point x="547.6868686868687" y="-17.515151515151516"/>
      <point x="663.1313131313132" y="31.434343434343432"/>
      <point x="734.1010101010102" y="121.18181818181817" type="curve"/>
      <point x="744.6262626262626" y="121.18181818181817" type="line"/>
      <point x="756.4343434343434" y="0.0" type="line"/>
      <point x="889.1616161616162" y="0.0" type="line"/>
      <point x="889.1616161616162" y="711.6565656565656" type="line" smooth="yes"/>
      <point x="889.1616161616162" y="1006.4444444444445"/>
      <point x="747.5858585858587" y="1101.5555555555557"/>
      <point x="473.9191919191919" y="1101.5555555555557" type="curve" smooth="yes"/>
      <point x="373.6161616161616" y="1101.5555555555557"/>
      <point x="252.2828282828283" y="1085.060606060606"/>
      <point x="160.44444444444446" y="1053.5656565656566" type="curve"/>
      <point x="160.44444444444446" y="923.6969696969696" type="line"/>
      <point x="262.42424242424244" y="958.1717171717171"/>
      <point x="370.45454545454544" y="972.1717171717171"/>
      <point x="453.4646464646465" y="972.1717171717171" type="curve" smooth="yes"/>
      <point x="640.1818181818182" y="972.1717171717171"/>
      <point x="733.7878787878788" y="917.7070707070707"/>
      <point x="733.7878787878788" y="718.9797979797979" type="curve" smooth="yes"/>
      <point x="733.7878787878788" y="238.1818181818182" type="line"/>
      <point x="657.1818181818182" y="141.93939393939397"/>
      <point x="555.8888888888889" y="104.54545454545458"/>
      <point x="459.8484848484849" y="104.54545454545458" type="curve" smooth="yes"/>
      <point x="322.0909090909091" y="104.54545454545458"/>
      <point x="252.20202020202024" y="169.92929292929296"/>
      <point x="252.20202020202024" y="292.44444444444446" type="curve" smooth="yes"/>
      <point x="252.20202020202024" y="409.24242424242425"/>
      <point x="322.8383838383839" y="474.14141414141415"/>
      <point x="495.5555555555556" y="492.5959595959596" type="curve" smooth="yes"/>
      <point x="791.6969696969697" y="524.2727272727273" type="line"/>
      <point x="777.3333333333334" y="629.9191919191919" type="line"/>
      <point x="485.1818181818182" y="598.2424242424242" type="line" smooth="yes"/>
      <point x="209.92929292929293" y="571.7676767676768"/>
      <point x="91.83838383838383" y="466.6969696969697"/>
      <point x="91.83838383838383" y="277.6060606060606" type="curve" smooth="yes"/>
      <point x="91.83838383838383" y="93.57575757575758"/>
      <point x="216.37373737373736" y="-17.515151515151516"/>
    </contour>
  </outline>
</glyph>
<glyph name="b" format="2">
  <advance width="1129.0785757575757"/>
  <unicode hex="0062"/>
  <anchor x="567.8102424242425" y="0.0" name="bottom"/>
  <anchor x="231.24039393939393" y="1616.0" name="top"/>
  <outline>
    <contour>
      <point x="485.60913636363637" y="-18.770954545454547" type="curve" smooth="yes"/>
      <point x="845.9892272727272" y="-19.027939393939395"/>
      <point x="1035.2127424242424" y="170.45256060606062"/>
      <point x="1035.2127424242424" y="563.340803030303" type="curve" smooth="yes"/>
      <point x="1035.2127424242424" y="957.3742727272727"/>
      <point x="847.1009848484848" y="1101.6536666666666"/>
      <point x="620.5590757575758" y="1101.6536666666666" type="curve" smooth="yes"/>
      <point x="489.18480303030304" y="1101.6536666666666"/>
      <point x="386.0395757575758" y="1048.5084393939394"/>
      <point x="320.3245" y="973.2235151515151" type="curve"/>
      <point x="310.983696969697" y="973.2235151515151" type="line"/>
      <point x="310.983696969697" y="1616.0" type="line"/>
      <point x="151.24010606060605" y="1616.0" type="line"/>
      <point x="151.24010606060605" y="30.167636363636362" type="line"/>
      <point x="252.14522727272725" y="-2.2290454545454548"/>
      <point x="372.67607575757575" y="-18.770954545454547"/>
    </contour>
    <contour>
      <point x="498.0896363636364" y="111.47525757575758" type="curve" smooth="yes"/>
      <point x="427.68189393939394" y="111.47525757575758"/>
      <point x="359.2741515151515" y="122.16239393939394"/>
      <point x="310.983696969697" y="136.3355606060606" type="curve"/>
      <point x="310.983696969697" y="838.1618181818181" type="line"/>
      <point x="374.96128787878786" y="924.2622272727273"/>
      <point x="474.68742424242424" y="964.2118787878787"/>
      <point x="573.6426060606061" y="964.2118787878787" type="curve" smooth="yes"/>
      <point x="744.8268333333333" y="964.2118787878787"/>
      <point x="872.2401060606061" y="872.8320757575758"/>
      <point x="872.2401060606061" y="548.9161818181818" type="curve" smooth="yes"/>
      <point x="872.2401060606061" y="238.14551515151516"/>
      <point x="742.8268333333333" y="111.47525757575758"/>
    </contour>
  </outline>
</glyph>
<glyph name="c" format="2">
  <advance width="875.5980757575758"/>
  <unicode hex="0063"/>
  <anchor x="517.5587878787878" y="0.0" name="bottom"/>
  <anchor x="513.620196969697" y="1200.0" name="top"/>
  <outline>
    <contour>
      <point x="574.2348636363636" y="-19.027939393939395" type="curve" smooth="yes"/>
      <point x="663.1455151515152" y="-19.027939393939395"/>
      <point x="752.7712424242425" y="-4.027939393939394"/>
      <point x="837.4583787878788" y="25.91618181818182" type="curve"/>
      <point x="837.4583787878788" y="161.24621212121212" type="line"/>
      <point x="741.5142575757576" y="129.844"/>
      <point x="666.3969696969697" y="116.8719393939394"/>
      <point x="596.9109393939394" y="116.8719393939394" type="curve" smooth="yes"/>
      <point x="376.12892424242426" y="116.8719393939394"/>
      <point x="259.665303030303" y="230.19586363636364"/>
      <point x="259.665303030303" y="545.5419090909091" type="curve" smooth="yes"/>
      <point x="259.665303030303" y="854.117"/>
      <point x="380.7881212121212" y="965.7537878787879"/>
      <point x="632.2852121212121" y="965.7537878787879" type="curve" smooth="yes"/>
      <point x="697.7991818181818" y="965.7537878787879"/>
      <point x="766.2293333333333" y="956.7817272727273"/>
      <point x="837.4583787878788" y="938.6085606060606" type="curve"/>
      <point x="837.4583787878788" y="1073.9385909090909" type="line"/>
      <point x="768.3745606060606" y="1092.9106515151516"/>
      <point x="690.3186818181819" y="1101.6536666666666"/>
      <point x="614.8661212121212" y="1101.6536666666666" type="curve" smooth="yes"/>
      <point x="279.62572727272726" y="1101.6536666666666"/>
      <point x="93.86583333333333" y="935.6871363636363"/>
      <point x="93.86583333333333" y="541.7988939393939" type="curve" smooth="yes"/>
      <point x="93.86583333333333" y="148.9665303030303"/>
      <point x="266.5698484848485" y="-19.027939393939395"/>
    </contour>
  </outline>
</glyph>
<glyph name="d" format="2">
  <advance width="1129.0785757575757"/>
  <unicode hex="0064"/>
  <anchor x="565.8940606060606" y="0.0" name="bottom"/>
  <anchor x="1090.1289242424243" y="1616.0" name="caronalt"/>
  <anchor x="561.7823030303031" y="541.2849242424243" name="center"/>
  <anchor x="977.8384696969697" y="1355.2290454545455" name="stroke"/>
  <anchor x="558.6984848484849" y="1200.0" name="top"/>
  <anchor x="1080.1344545454544" y="1085.139696969697" name="topright"/>
  <outline>
    <contour>
      <point x="521.2011060606061" y="-18.513969696969696" type="curve" smooth="yes"/>
      <point x="650.9441212121212" y="-18.513969696969696"/>
      <point x="755.6033181818182" y="37.20110606060606"/>
      <point x="820.3183939393939" y="117.45809090909091" type="curve"/>
      <point x="830.8882424242424" y="117.45809090909091" type="line"/>
      <point x="841.7709545454545" y="0.0" type="line"/>
      <point x="977.8384696969697" y="0.0" type="line"/>
      <point x="977.8384696969697" y="1616.0" type="line"/>
      <point x="818.0948787878788" y="1616.0" type="line"/>
      <point x="818.0948787878788" y="1087.5084393939394" type="line"/>
      <point x="766.3183939393939" y="1095.4525606060606"/>
      <point x="702.3687424242424" y="1101.9106515151516"/>
      <point x="641.1341666666667" y="1101.9106515151516" type="curve" smooth="yes"/>
      <point x="283.86030303030304" y="1101.9106515151516"/>
      <point x="93.86583333333333" y="911.659196969697"/>
      <point x="93.86583333333333" y="520.3128636363637" type="curve" smooth="yes"/>
      <point x="93.86583333333333" y="128.39668181818183"/>
      <point x="283.86030303030304" y="-18.513969696969696"/>
    </contour>
    <contour>
      <point x="557.3521515151515" y="118.67083333333333" type="curve" smooth="yes"/>
      <point x="380.7936515151515" y="118.67083333333333"/>
      <point x="256.8384696969697" y="213.02269696969697"/>
      <point x="256.8384696969697" y="534.4805" type="curve" smooth="yes"/>
      <point x="256.8384696969697" y="844.7371969696969"/>
      <point x="386.2517424242424" y="971.4074545454546"/>
      <point x="639.1621060606061" y="971.4074545454546" type="curve" smooth="yes"/>
      <point x="700.6257272727273" y="971.4074545454546"/>
      <point x="769.8044242424243" y="963.6923787878787"/>
      <point x="818.0948787878788" y="952.2622272727273" type="curve"/>
      <point x="818.0948787878788" y="252.97787878787878" type="line"/>
      <point x="754.3742727272727" y="159.39143939393938"/>
      <point x="654.3632121212121" y="118.67083333333333"/>
    </contour>
  </outline>
</glyph>
<glyph name="e" format="2">
  <advance width="1028.949494949495"/>
  <unicode hex="0065"/>
  <anchor x="530.7272727272727" y="0.0" name="bottom"/>
  <anchor x="817.0202020202021" y="0.0" name="ogonek"/>
  <anchor x="530.7272727272727" y="1200.0" name="top"/>
  <outline>
    <contour>
      <point x="607.3535353535353" y="-19.01010101010101" type="curve" smooth="yes"/>
      <point x="699.909090909091" y="-19.01010101010101"/>
      <point x="791.4646464646464" y="-6.272727272727273"/>
      <point x="896.2828282828283" y="24.454545454545453" type="curve"/>
      <point x="896.2828282828283" y="153.81818181818184" type="line"/>
      <point x="796.0606060606061" y="124.8585858585859"/>
      <point x="707.7676767676768" y="109.8686868686869"/>
      <point x="626.0" y="109.8686868686869" type="curve" smooth="yes"/>
      <point x="373.5050505050505" y="109.8686868686869"/>
      <point x="254.49494949494954" y="218.40404040404042"/>
      <point x="254.49494949494954" y="519.5959595959596" type="curve" smooth="yes"/>
      <point x="254.49494949494954" y="575.0" type="line" smooth="yes"/>
      <point x="254.49494949494954" y="880.5050505050505"/>
      <point x="360.51515151515156" y="986.5656565656566"/>
      <point x="530.989898989899" y="986.5656565656566" type="curve" smooth="yes"/>
      <point x="700.4646464646464" y="986.5656565656566"/>
      <point x="798.010101010101" y="879.5050505050505"/>
      <point x="798.010101010101" y="574.7474747474747" type="curve"/>
      <point x="833.5959595959596" y="598.4747474747475" type="line"/>
      <point x="180.39393939393943" y="598.4747474747475" type="line"/>
      <point x="180.39393939393943" y="490.050505050505" type="line"/>
      <point x="950.0707070707072" y="490.050505050505" type="line"/>
      <point x="950.0707070707072" y="539.2424242424242" type="line" smooth="yes"/>
      <point x="950.0707070707072" y="925.6666666666666"/>
      <point x="797.5050505050506" y="1101.5555555555557"/>
      <point x="532.2525252525253" y="1101.5555555555557" type="curve" smooth="yes"/>
      <point x="263.19191919191917" y="1101.5555555555557"/>
      <point x="94.1111111111111" y="924.9191919191919"/>
      <point x="94.1111111111111" y="542.7777777777778" type="curve" smooth="yes"/>
      <point x="94.1111111111111" y="144.03030303030303"/>
      <point x="269.92929292929296" y="-19.01010101010101"/>
    </contour>
  </outline>
</glyph>
<glyph name="f" format="2">
  <advance width="715.7373737373738"/>
  <unicode hex="0066"/>
  <outline>
    <contour>
      <point x="223.38383838383837" y="0.0" type="line"/>
      <point x="380.7777777777778" y="0.0" type="line"/>
      <point x="380.7777777777778" y="1256.858585858586" type="line" smooth="yes"/>
      <point x="380.7777777777778" y="1433.6262626262626"/>
      <point x="461.949494949495" y="1502.8282828282827"/>
      <point x="631.3737373737374" y="1502.8282828282827" type="curve" smooth="yes"/>
      <point x="676.0808080808081" y="1502.8282828282827"/>
      <point x="718.5353535353536" y="1498.5858585858587"/>
      <point x="763.5050505050506" y="1490.8484848484848" type="curve"/>
      <point x="763.5050505050506" y="1624.0" type="line"/>
      <point x="715.979797979798" y="1632.0"/>
      <point x="664.4848484848485" y="1636.0"/>
      <point x="616.4343434343434" y="1636.0" type="curve" smooth="yes"/>
      <point x="357.5959595959596" y="1636.0"/>
      <point x="223.38383838383837" y="1502.5353535353536"/>
      <point x="223.38383838383837" y="1249.5656565656566" type="curve" smooth="yes"/>
    </contour>
    <contour>
      <point x="18.535353535353536" y="953.8787878787879" type="line"/>
      <point x="721.979797979798" y="953.8787878787879" type="line"/>
      <point x="721.979797979798" y="1085.050505050505" type="line"/>
      <point x="18.535353535353536" y="1085.050505050505" type="line"/>
    </contour>
  </outline>
</glyph>
<glyph name="g" format="2">
  <advance width="1128.0707070707072"/>
  <unicode hex="0067"/>
  <anchor x="576.989898989899" y="-440.0" name="bottom"/>
  <anchor x="584.0606060606061" y="1200.0" name="top"/>
  <outline>
    <contour>
      <point x="482.41414141414145" y="-460.0" type="curve" smooth="yes"/>
      <point x="810.8383838383838" y="-460.0"/>
      <point x="976.5050505050506" y="-319.35353535353534"/>
      <point x="976.5050505050506" y="32.646464646464665" type="curve" smooth="yes"/>
      <point x="976.5050505050506" y="1052.7373737373737" type="line"/>
      <point x="879.6262626262627" y="1083.5353535353536"/>
      <point x="755.6666666666667" y="1101.5555555555557"/>
      <point x="643.2626262626263" y="1101.5555555555557" type="curve" smooth="yes"/>
      <point x="283.19191919191917" y="1101.3030303030303"/>
      <point x="94.1111111111111" y="910.4545454545455"/>
      <point x="94.1111111111111" y="520.5252525252525" type="curve" smooth="yes"/>
      <point x="94.1111111111111" y="130.3939393939394"/>
      <point x="283.9191919191919" y="-13.959595959595958"/>
      <point x="508.6666666666667" y="-13.959595959595958" type="curve" smooth="yes"/>
      <point x="640.1212121212121" y="-13.959595959595958"/>
      <point x="743.3333333333334" y="39.25252525252525"/>
      <point x="809.070707070707" y="114.51515151515152" type="curve"/>
      <point x="818.3535353535353" y="114.51515151515152" type="line"/>
      <point x="818.3535353535353" y="8.454545454545467" type="line" smooth="yes"/>
      <point x="818.3535353535353" y="-240.4444444444444"/>
      <point x="708.4545454545455" y="-329.60606060606057"/>
      <point x="474.07070707070704" y="-329.60606060606057" type="curve" smooth="yes"/>
      <point x="379.04040404040404" y="-329.60606060606057"/>
      <point x="275.7070707070707" y="-313.8585858585858"/>
      <point x="163.15151515151516" y="-278.12121212121207" type="curve"/>
      <point x="163.15151515151516" y="-411.27272727272725" type="line"/>
      <point x="261.020202020202" y="-443.7676767676768"/>
      <point x="383.07070707070704" y="-460.0"/>
    </contour>
    <contour>
      <point x="554.8383838383838" y="121.48484848484853" type="curve" smooth="yes"/>
      <point x="382.7878787878788" y="121.48484848484853"/>
      <point x="255.50505050505055" y="212.84848484848487"/>
      <point x="255.50505050505055" y="535.3434343434343" type="curve" smooth="yes"/>
      <point x="255.50505050505055" y="845.3838383838383"/>
      <point x="386.80808080808083" y="972.4242424242424"/>
      <point x="630.6767676767677" y="972.4242424242424" type="curve" smooth="yes"/>
      <point x="701.3030303030303" y="972.4242424242424"/>
      <point x="769.929292929293" y="962.4444444444445"/>
      <point x="818.3535353535353" y="949.969696969697" type="curve"/>
      <point x="818.3535353535353" y="248.14141414141415" type="line"/>
      <point x="754.2020202020202" y="161.62626262626264"/>
      <point x="652.6464646464647" y="121.48484848484853"/>
    </contour>
  </outline>
</glyph>
<glyph name="h" format="2">
  <advance width="1136.5980757575758"/>
  <unicode hex="0068"/>
  <anchor x="574.8995909090909" y="0.0" name="bottom"/>
  <anchor x="574.8995909090909" y="542.5698484848485" name="center"/>
  <anchor x="151.24010606060605" y="1354.458090909091" name="stroke"/>
  <anchor x="574.8995909090909" y="1616.0" name="top"/>
  <outline>
    <contour>
      <point x="151.24010606060605" y="0.0" type="line"/>
      <point x="310.983696969697" y="0.0" type="line"/>
      <point x="310.983696969697" y="813.7092575757575" type="line"/>
      <point x="388.7936515151515" y="917.5247424242424"/>
      <point x="509.4080303030303" y="957.8431363636364"/>
      <point x="610.4470303030303" y="957.8431363636364" type="curve" smooth="yes"/>
      <point x="747.2904545454545" y="957.8431363636364"/>
      <point x="837.5585" y="897.3795151515152"/>
      <point x="837.5585" y="710.9607121212122" type="curve" smooth="yes"/>
      <point x="837.5585" y="0.0" type="line"/>
      <point x="997.3020909090909" y="0.0" type="line"/>
      <point x="997.3020909090909" y="718.1842272727273" type="line" smooth="yes"/>
      <point x="997.3020909090909" y="1000.1452272727273"/>
      <point x="852.3634999999999" y="1101.6536666666666"/>
      <point x="654.8215909090909" y="1101.6536666666666" type="curve" smooth="yes"/>
      <point x="524.6484242424242" y="1101.6536666666666"/>
      <point x="407.8719393939394" y="1055.424621212121"/>
      <point x="320.3245" y="964.3073333333333" type="curve"/>
      <point x="310.983696969697" y="964.3073333333333" type="line"/>
      <point x="310.983696969697" y="1616.0" type="line"/>
      <point x="151.24010606060605" y="1616.0" type="line"/>
    </contour>
  </outline>
</glyph>
<glyph name="k" format="2">
  <advance width="1036.79797979798"/>
  <unicode hex="006B"/>
  <anchor x="556.3737373737374" y="0.0" name="bottom"/>
  <anchor x="230.7676767676768" y="1616.0" name="top"/>
  <outline>
    <contour>
      <point x="879.1717171717172" y="0.0" type="line"/>
      <point x="1058.3636363636365" y="0.0" type="line"/>
      <point x="608.3333333333334" y="579.9191919191919" type="line"/>
      <point x="608.3333333333334" y="535.6969696969697" type="line"/>
      <point x="1025.1010101010102" y="1085.050505050505" type="line"/>
      <point x="849.1818181818182" y="1085.050505050505" type="line"/>
      <point x="442.949494949495" y="555.5353535353536" type="line"/>
    </contour>
    <contour>
      <point x="289.6767676767677" y="489.19191919191917" type="line"/>
      <point x="510.949494949495" y="489.19191919191917" type="line"/>
      <point x="510.949494949495" y="621.8787878787879" type="line"/>
      <point x="289.6767676767677" y="621.8787878787879" type="line"/>
    </contour>
    <contour>
      <point x="151.56565656565655" y="0.0" type="line"/>
      <point x="309.71717171717177" y="0.0" type="line"/>
      <point x="309.71717171717177" y="1616.0" type="line"/>
      <point x="151.56565656565655" y="1616.0" type="line"/>
    </contour>
  </outline>
</glyph>
<glyph name="l" format="2">
  <advance width="461.2828282828283"/>
  <unicode hex="006C"/>
  <anchor x="230.51515151515153" y="0.0" name="bottom"/>
  <anchor x="422.1414141414142" y="1616.0" name="caronalt"/>
  <anchor x="499.2727272727273" y="794.0" name="periodcentered"/>
  <anchor x="230.7676767676768" y="714.0" name="slash"/>
  <anchor x="230.7676767676768" y="1616.0" name="top"/>
  <outline>
    <contour>
      <point x="151.56565656565655" y="0.0" type="line"/>
      <point x="309.71717171717177" y="0.0" type="line"/>
      <point x="309.71717171717177" y="1616.0" type="line"/>
      <point x="151.56565656565655" y="1616.0" type="line"/>
    </contour>
  </outline>
</glyph>
<glyph name="m" format="2">
  <advance width="1694.961287878788"/>
  <unicode hex="006D"/>
  <anchor x="857.0951666666667" y="0.0" name="bottom"/>
  <anchor x="857.0951666666667" y="1200.0" name="top"/>
  <outline>
    <contour>
      <point x="151.24010606060605" y="0.0" type="line"/>
      <point x="310.983696969697" y="0.0" type="line"/>
      <point x="310.983696969697" y="809.9941818181818" type="line"/>
      <point x="380.8215909090909" y="917.5247424242424"/>
      <point x="488.49184848484845" y="959.3291666666667"/>
      <point x="577.8716515151515" y="959.3291666666667" type="curve" smooth="yes"/>
      <point x="697.3128636363637" y="959.3291666666667"/>
      <point x="778.1228181818182" y="897.6365"/>
      <point x="778.1228181818182" y="710.7596060606061" type="curve" smooth="yes"/>
      <point x="778.1228181818182" y="0.0" type="line"/>
      <point x="935.5535454545454" y="0.0" type="line"/>
      <point x="935.5535454545454" y="721.5250303030303" type="line" smooth="yes"/>
      <point x="935.5535454545454" y="1000.659196969697"/>
      <point x="802.5870151515152" y="1101.6536666666666"/>
      <point x="621.6204848484848" y="1101.6536666666666" type="curve" smooth="yes"/>
      <point x="500.7936515151515" y="1101.6536666666666"/>
      <point x="390.3914393939394" y="1054.9385909090909"/>
      <point x="307.73224242424243" y="961.821303030303" type="curve"/>
      <point x="297.16239393939395" y="961.821303030303" type="line"/>
      <point x="285.50872727272724" y="1085.139696969697" type="line"/>
      <point x="151.24010606060605" y="1085.139696969697" type="line"/>
    </contour>
    <contour>
      <point x="1396.178696969697" y="0.0" type="line"/>
      <point x="1555.665303030303" y="0.0" type="line"/>
      <point x="1555.665303030303" y="717.6702575757575" type="line" smooth="yes"/>
      <point x="1555.665303030303" y="1000.1452272727273"/>
      <point x="1417.184803030303" y="1101.6536666666666"/>
      <point x="1228.8495303030304" y="1101.6536666666666" type="curve" smooth="yes"/>
      <point x="1110.0226969696969" y="1101.6536666666666"/>
      <point x="974.1344545454546" y="1054.139696969697"/>
      <point x="869.2462121212121" y="916.6760757575757" type="curve"/>
      <point x="909.123393939394" y="787.7037272727273" type="line"/>
      <point x="980.2182727272727" y="917.5247424242424"/>
      <point x="1099.7488333333333" y="959.3291666666667"/>
      <point x="1190.6705454545454" y="959.3291666666667" type="curve" smooth="yes"/>
      <point x="1310.5977878787878" y="959.3291666666667"/>
      <point x="1396.178696969697" y="897.6365"/>
      <point x="1396.178696969697" y="710.7596060606061" type="curve" smooth="yes"/>
    </contour>
  </outline>
</glyph>
<glyph name="n" format="2">
  <advance width="1136.5980757575758"/>
  <unicode hex="006E"/>
  <anchor x="12.486030303030303" y="1200.0" name="apostrophe"/>
  <anchor x="574.8995909090909" y="0.0" name="bottom"/>
  <anchor x="574.8995909090909" y="1200.0" name="top"/>
  <outline>
    <contour>
      <point x="151.24010606060605" y="0.0" type="line"/>
      <point x="310.983696969697" y="0.0" type="line"/>
      <point x="310.983696969697" y="814.4522727272728" type="line"/>
      <point x="390.2796818181818" y="920.496803030303"/>
      <point x="513.3521515151515" y="959.3291666666667"/>
      <point x="610.4470303030303" y="959.3291666666667" type="curve" smooth="yes"/>
      <point x="749.5195" y="959.3291666666667"/>
      <point x="837.5585" y="896.1504696969697"/>
      <point x="837.5585" y="710.2456363636363" type="curve" smooth="yes"/>
      <point x="837.5585" y="0.0" type="line"/>
      <point x="997.3020909090909" y="0.0" type="line"/>
      <point x="997.3020909090909" y="717.4412121212122" type="line" smooth="yes"/>
      <point x="997.3020909090909" y="999.1452272727273"/>
      <point x="852.3634999999999" y="1101.6536666666666"/>
      <point x="648.4249090909091" y="1101.6536666666666" type="curve" smooth="yes"/>
      <point x="516.4807878787879" y="1101.6536666666666"/>
      <point x="396.10651515151517" y="1051.9665303030304"/>
      <point x="307.73224242424243" y="962.5643181818182" type="curve"/>
      <point x="297.16239393939395" y="962.5643181818182" type="line"/>
      <point x="285.50872727272724" y="1085.139696969697" type="line"/>
      <point x="151.24010606060605" y="1085.139696969697" type="line"/>
    </contour>
  </outline>
</glyph>
<glyph name="o" format="2">
  <advance width="1111.4528484848486"/>
  <unicode hex="006F"/>
  <anchor x="555.7264242424243" y="0.0" name="bottom"/>
  <anchor x="555.7264242424243" y="542.5698484848485" name="center"/>
  <anchor x="704.3745606060606" y="0.0" name="ogonek"/>
  <anchor x="555.7264242424243" y="1200.0" name="top"/>
  <anchor x="649.6033181818182" y="1085.139696969697" name="topright"/>
  <outline>
    <contour>
      <point x="555.7264242424243" y="-19.027939393939395" type="curve" smooth="yes"/>
      <point x="835.2238030303031" y="-19.027939393939395"/>
      <point x="1017.5870151515152" y="151.4805"/>
      <point x="1017.5870151515152" y="542.0558787878788" type="curve" smooth="yes"/>
      <point x="1017.5870151515152" y="934.5753787878788"/>
      <point x="838.0506363636364" y="1101.6536666666666"/>
      <point x="555.7264242424243" y="1101.6536666666666" type="curve" smooth="yes"/>
      <point x="273.40221212121213" y="1101.6536666666666"/>
      <point x="93.86583333333333" y="932.8882424242424"/>
      <point x="93.86583333333333" y="541.5419090909091" type="curve" smooth="yes"/>
      <point x="93.86583333333333" y="148.5084393939394"/>
      <point x="276.2290454545454" y="-19.027939393939395"/>
    </contour>
    <contour>
      <point x="555.7264242424243" y="111.21827272727273" type="curve" smooth="yes"/>
      <point x="371.9947575757576" y="111.21827272727273"/>
      <point x="256.8384696969697" y="217.48631818181818"/>
      <point x="256.8384696969697" y="544.2849242424243" type="curve" smooth="yes"/>
      <point x="256.8384696969697" y="866.6254393939394"/>
      <point x="372.50872727272724" y="971.4074545454546"/>
      <point x="555.7264242424243" y="971.4074545454546" type="curve" smooth="yes"/>
      <point x="738.9441212121212" y="971.4074545454546"/>
      <point x="854.6143787878788" y="866.6254393939394"/>
      <point x="854.6143787878788" y="539.3128636363637" type="curve" smooth="yes"/>
      <point x="854.6143787878788" y="217.48631818181818"/>
      <point x="739.4580909090909" y="111.21827272727273"/>
    </contour>
  </outline>
</glyph>
<glyph name="p" format="2">
  <advance width="1128.0707070707072"/>
  <unicode hex="0070"/>
  <outline>
    <contour>
      <point x="151.56565656565655" y="-440.0" type="line"/>
      <point x="309.71717171717177" y="-440.0" type="line"/>
      <point x="309.71717171717177" y="-5.040404040404042" type="line"/>
      <point x="361.6363636363637" y="-12.272727272727273"/>
      <point x="425.7777777777778" y="-18.757575757575758"/>
      <point x="487.18181818181824" y="-18.757575757575758" type="curve" smooth="yes"/>
      <point x="844.8686868686868" y="-18.757575757575758"/>
      <point x="1033.959595959596" y="171.33333333333334"/>
      <point x="1033.959595959596" y="562.7777777777778" type="curve" smooth="yes"/>
      <point x="1033.959595959596" y="959.9797979797979"/>
      <point x="841.1313131313132" y="1101.5555555555557"/>
      <point x="606.8383838383838" y="1101.5555555555557" type="curve" smooth="yes"/>
      <point x="477.0909090909091" y="1101.5555555555557"/>
      <point x="372.3737373737374" y="1045.8181818181818"/>
      <point x="307.6363636363637" y="965.5656565656566" type="curve"/>
      <point x="297.8585858585859" y="965.5656565656566" type="line"/>
      <point x="286.31313131313135" y="1085.050505050505" type="line"/>
      <point x="151.56565656565655" y="1085.050505050505" type="line"/>
    </contour>
    <contour>
      <point x="489.1717171717172" y="110.62626262626266" type="curve" smooth="yes"/>
      <point x="427.52525252525254" y="110.62626262626266"/>
      <point x="358.1414141414142" y="118.3636363636364"/>
      <point x="309.71717171717177" y="129.8383838383839" type="curve"/>
      <point x="309.71717171717177" y="830.6969696969697" type="line"/>
      <point x="373.61616161616166" y="924.7070707070707"/>
      <point x="473.93939393939394" y="965.6060606060605"/>
      <point x="571.2626262626263" y="965.6060606060605" type="curve" smooth="yes"/>
      <point x="744.5252525252525" y="965.6060606060605"/>
      <point x="872.5656565656566" y="873.989898989899"/>
      <point x="872.5656565656566" y="548.7171717171717" type="curve" smooth="yes"/>
      <point x="872.5656565656566" y="237.66666666666669"/>
      <point x="742.7777777777778" y="110.62626262626266"/>
    </contour>
  </outline>
</glyph>
<glyph name="q" format="2">
  <advance width="1129.0785757575757"/>
  <unicode hex="0071"/>
  <outline>
    <contour>
      <point x="818.0948787878788" y="-440.0" type="line"/>
      <point x="977.8384696969697" y="-440.0" type="line"/>
      <point x="977.8384696969697" y="1052.7150757575757" type="line"/>
      <point x="880.7322424242424" y="1083.5977878787878"/>
      <point x="756.4025" y="1101.6536666666666"/>
      <point x="643.4694393939394" y="1101.6536666666666" type="curve" smooth="yes"/>
      <point x="283.0893484848485" y="1101.6536666666666"/>
      <point x="93.86583333333333" y="912.4301515151515"/>
      <point x="93.86583333333333" y="519.5419090909091" type="curve" smooth="yes"/>
      <point x="93.86583333333333" y="125.5084393939394"/>
      <point x="281.9775909090909" y="-18.770954545454547"/>
      <point x="508.5195" y="-18.770954545454547" type="curve" smooth="yes"/>
      <point x="639.8937727272727" y="-18.770954545454547"/>
      <point x="743.039" y="34.374272727272725"/>
      <point x="808.7540757575757" y="109.65919696969698" type="curve"/>
      <point x="818.0948787878788" y="109.65919696969698" type="line"/>
    </contour>
    <contour>
      <point x="555.4359696969697" y="118.67083333333333" type="curve" smooth="yes"/>
      <point x="384.2517424242424" y="118.67083333333333"/>
      <point x="256.8384696969697" y="210.05063636363636"/>
      <point x="256.8384696969697" y="533.9665303030303" type="curve" smooth="yes"/>
      <point x="256.8384696969697" y="844.7371969696969"/>
      <point x="387.7936515151515" y="971.4074545454546"/>
      <point x="630.7319545454545" y="971.4074545454546" type="curve" smooth="yes"/>
      <point x="701.3966818181818" y="971.4074545454546"/>
      <point x="769.8044242424243" y="961.4633333333334"/>
      <point x="818.0948787878788" y="949.0331818181818" type="curve"/>
      <point x="818.0948787878788" y="244.72089393939393" type="line"/>
      <point x="754.1172878787879" y="158.62048484848486"/>
      <point x="652.9051212121212" y="118.67083333333333"/>
    </contour>
  </outline>
</glyph>
<glyph name="r" format="2">
  <advance width="723.1120454545455"/>
  <unicode hex="0072"/>
  <anchor x="231.24039393939393" y="0.0" name="bottom"/>
  <anchor x="421.5308484848485" y="1200.0" name="top"/>
  <outline>
    <contour>
      <point x="151.24010606060605" y="0.0" type="line"/>
      <point x="310.983696969697" y="0.0" type="line"/>
      <point x="310.983696969697" y="792.3125757575758" type="line"/>
      <point x="382.21827272727273" y="896.0107727272728"/>
      <point x="510.59807575757577" y="946.0442424242424"/>
      <point x="617.1455151515152" y="946.0442424242424" type="curve" smooth="yes"/>
      <point x="650.6594848484849" y="946.0442424242424"/>
      <point x="680.3131515151515" y="944.7872575757576"/>
      <point x="710.6260151515152" y="939.7593181818182" type="curve"/>
      <point x="710.6260151515152" y="1088.4525606060606" type="line"/>
      <point x="684.3969696969697" y="1093.1955757575759"/>
      <point x="657.5701363636364" y="1095.7095454545454"/>
      <point x="624.8271212121213" y="1095.7095454545454" type="curve" smooth="yes"/>
      <point x="502.8271212121212" y="1095.7095454545454"/>
      <point x="382.0506363636364" y="1042.5363787878787"/>
      <point x="308.2462121212121" y="940.1955757575757" type="curve"/>
      <point x="297.67636363636365" y="940.1955757575757" type="line"/>
      <point x="284.7377727272727" y="1085.139696969697" type="line"/>
      <point x="151.24010606060605" y="1085.139696969697" type="line"/>
    </contour>
  </outline>
</glyph>
<glyph name="s" format="2">
  <advance width="900.7153636363637"/>
  <unicode hex="0073"/>
  <anchor x="455.8437121212121" y="0.0" name="bottom"/>
  <anchor x="455.8437121212121" y="1200.0" name="top"/>
  <outline>
    <contour>
      <point x="409.7319545454545" y="-19.027939393939395" type="curve" smooth="yes"/>
      <point x="686.0337575757576" y="-19.027939393939395"/>
      <point x="832.022696969697" y="102.16763636363636"/>
      <point x="832.022696969697" y="298.7598939393939" type="curve" smooth="yes"/>
      <point x="832.022696969697" y="461.20692424242424"/>
      <point x="750.7153636363637" y="551.4080303030303"/>
      <point x="550.7991818181818" y="594.0672272727272" type="curve" smooth="yes"/>
      <point x="404.0672272727273" y="623.6091363636364" type="line" smooth="yes"/>
      <point x="283.5646060606061" y="649.9275303030303"/>
      <point x="242.07304545454545" y="705.9944696969696"/>
      <point x="242.07304545454545" y="792.379803030303" type="curve" smooth="yes"/>
      <point x="242.07304545454545" y="894.4522727272728"/>
      <point x="314.9109393939394" y="974.7482575757576"/>
      <point x="522.0058181818182" y="974.7482575757576" type="curve" smooth="yes"/>
      <point x="609.9444090909091" y="974.7482575757576"/>
      <point x="687.022696969697" y="964.9493636363636"/>
      <point x="774.4807878787879" y="941.2063484848485" type="curve"/>
      <point x="774.4807878787879" y="1069.8547727272728" type="line"/>
      <point x="696.681893939394" y="1090.3687424242423"/>
      <point x="611.3745606060606" y="1101.6536666666666"/>
      <point x="518.6650151515151" y="1101.6536666666666" type="curve" smooth="yes"/>
      <point x="226.5139696969697" y="1101.6536666666666"/>
      <point x="88.58090909090909" y="970.5139696969698"/>
      <point x="88.58090909090909" y="787.8378939393939" type="curve" smooth="yes"/>
      <point x="88.58090909090909" y="632.7875454545455"/>
      <point x="166.0055303030303" y="535.4467424242424"/>
      <point x="364.37427272727274" y="493.0165909090909" type="curve" smooth="yes"/>
      <point x="511.10622727272727" y="463.4746818181818" type="line" smooth="yes"/>
      <point x="631.6088484848485" y="437.1562878787879"/>
      <point x="678.5305606060606" y="389.7485454545455"/>
      <point x="678.5305606060606" y="290.70401515151514" type="curve" smooth="yes"/>
      <point x="678.5305606060606" y="174.71536363636363"/>
      <point x="597.9775909090908" y="107.8774696969697"/>
      <point x="409.90512121212123" y="107.8774696969697" type="curve" smooth="yes"/>
      <point x="309.59778787878787" y="107.8774696969697"/>
      <point x="215.20663636363636" y="121.19033333333333"/>
      <point x="109.20663636363636" y="153.19033333333334" type="curve"/>
      <point x="109.20663636363636" y="24.54190909090909" type="line"/>
      <point x="201.6312575757576" y="-5.0"/>
      <point x="300.9665303030303" y="-19.027939393939395"/>
    </contour>
  </outline>
</glyph>
<glyph name="t" format="2">
  <advance width="747.5353535353536"/>
  <unicode hex="0074"/>
  <anchor x="473.65656565656565" y="0.0" name="bottom"/>
  <anchor x="549.7878787878788" y="1616.0" name="caronalt"/>
  <anchor x="215.38383838383837" y="633.989898989899" name="stroke"/>
  <anchor x="294.5858585858586" y="1490.1010101010102" name="top"/>
  <anchor x="696.8787878787879" y="1616.0" name="topright"/>
  <outline>
    <contour>
      <point x="564.979797979798" y="-18.757575757575758" type="curve" smooth="yes"/>
      <point x="621.0505050505051" y="-18.757575757575758"/>
      <point x="677.1616161616162" y="-11.98989898989899"/>
      <point x="731.1818181818182" y="0.5151515151515156" type="curve"/>
      <point x="731.1818181818182" y="134.67676767676772" type="line"/>
      <point x="679.4646464646465" y="123.44444444444449"/>
      <point x="639.4949494949495" y="117.94949494949499"/>
      <point x="598.7777777777778" y="117.94949494949499" type="curve" smooth="yes"/>
      <point x="448.90909090909093" y="117.94949494949499"/>
      <point x="373.5353535353536" y="182.11111111111114"/>
      <point x="373.5353535353536" y="364.67676767676767" type="curve" smooth="yes"/>
      <point x="373.5353535353536" y="1480.0" type="line"/>
      <point x="241.31313131313132" y="1480.0" type="line"/>
      <point x="215.38383838383837" y="1085.050505050505" type="line"/>
      <point x="215.38383838383837" y="339.04040404040404" type="line" smooth="yes"/>
      <point x="215.38383838383837" y="88.5959595959596"/>
      <point x="343.73737373737373" y="-18.757575757575758"/>
    </contour>
    <contour>
      <point x="10.535353535353536" y="953.8787878787879" type="line"/>
      <point x="714.7373737373738" y="953.8787878787879" type="line"/>
      <point x="714.7373737373738" y="1085.050505050505" type="line"/>
      <point x="10.535353535353536" y="1085.050505050505" type="line"/>
    </contour>
  </outline>
</glyph>
<glyph name="u" format="2">
  <advance width="1125.989898989899"/>
  <unicode hex="0075"/>
  <anchor x="557.5050505050506" y="0.0" name="bottom"/>
  <anchor x="974.4242424242425" y="0.0" name="ogonek"/>
  <anchor x="557.5050505050506" y="1200.0" name="top"/>
  <anchor x="828.1414141414141" y="1085.050505050505" name="topright"/>
  <outline>
    <contour>
      <point x="486.2525252525253" y="-18.252525252525253" type="curve" smooth="yes"/>
      <point x="610.969696969697" y="-18.252525252525253"/>
      <point x="729.6565656565657" y="27.737373737373737"/>
      <point x="819.8686868686868" y="118.94949494949495" type="curve"/>
      <point x="829.8888888888889" y="118.94949494949495" type="line"/>
      <point x="841.4444444444445" y="0.0" type="line"/>
      <point x="974.4242424242425" y="0.0" type="line"/>
      <point x="974.4242424242425" y="1085.050505050505" type="line"/>
      <point x="816.2727272727273" y="1085.050505050505" type="line"/>
      <point x="816.2727272727273" y="268.1818181818182" type="line"/>
      <point x="738.929292929293" y="164.67676767676772"/>
      <point x="617.9090909090909" y="122.74747474747478"/>
      <point x="520.5757575757576" y="122.74747474747478" type="curve" smooth="yes"/>
      <point x="388.31313131313135" y="122.74747474747478"/>
      <point x="297.7373737373738" y="184.8888888888889"/>
      <point x="297.7373737373738" y="371.33333333333337" type="curve" smooth="yes"/>
      <point x="297.7373737373738" y="1085.050505050505" type="line"/>
      <point x="139.58585858585857" y="1085.050505050505" type="line"/>
      <point x="139.58585858585857" y="364.2525252525253" type="line" smooth="yes"/>
      <point x="139.58585858585857" y="83.0909090909091"/>
      <point x="284.9090909090909" y="-18.252525252525253"/>
    </contour>
  </outline>
</glyph>
<glyph name="v" format="2">
  <advance width="1057.4473181818182"/>
  <unicode hex="0076"/>
  <anchor x="529.8381818181819" y="0.0" name="bottom"/>
  <anchor x="529.8381818181819" y="1200.0" name="top"/>
  <outline>
    <contour>
      <point x="426.0724696969697" y="0.0" type="line"/>
      <point x="631.1178636363636" y="0.0" type="line"/>
      <point x="1041.9557575757576" y="1085.139696969697" type="line"/>
      <point x="880.8099545454545" y="1085.139696969697" type="line"/>
      <point x="523.1510454545455" y="115.15133333333333" type="line"/>
      <point x="543.2069242424243" y="115.15133333333333" type="line"/>
      <point x="185.54801515151513" y="1085.139696969697" type="line"/>
      <point x="15.491560606060606" y="1085.139696969697" type="line"/>
    </contour>
  </outline>
</glyph>
<glyph name="w" format="2">
  <advance width="1691.1717171717173"/>
  <unicode hex="0077"/>
  <anchor x="846.5858585858587" y="0.0" name="bottom"/>
  <anchor x="847.3333333333334" y="1200.0" name="top"/>
  <outline>
    <contour>
      <point x="378.27272727272725" y="0.0" type="line"/>
      <point x="565.2020202020202" y="0.0" type="line"/>
      <point x="855.8484848484849" y="958.7474747474747" type="line"/>
      <point x="838.3434343434344" y="958.7474747474747" type="line"/>
      <point x="1127.2222222222222" y="0.0" type="line"/>
      <point x="1314.1515151515152" y="0.0" type="line"/>
      <point x="1630.767676767677" y="1085.050505050505" type="line"/>
      <point x="1481.2323232323233" y="1085.050505050505" type="line"/>
      <point x="1207.878787878788" y="137.22222222222229" type="line"/>
      <point x="1225.8989898989898" y="137.22222222222229" type="line"/>
      <point x="942.3232323232323" y="1085.050505050505" type="line"/>
      <point x="755.3939393939394" y="1085.050505050505" type="line"/>
      <point x="471.3030303030303" y="137.22222222222229" type="line"/>
      <point x="487.0505050505051" y="137.22222222222229" type="line"/>
      <point x="215.72727272727275" y="1085.050505050505" type="line"/>
      <point x="60.4040404040404" y="1085.050505050505" type="line"/>
    </contour>
  </outline>
</glyph>
<glyph name="x" format="2">
  <advance width="1008.5870151515152"/>
  <unicode hex="0078"/>
  <anchor x="505.4080303030303" y="0.0" name="bottom"/>
  <anchor x="505.66501515151515" y="1200.0" name="top"/>
  <outline>
    <contour>
      <point x="812.5529696969697" y="0.0" type="line"/>
      <point x="995.4362575757576" y="0.0" type="line"/>
      <point x="599.3469090909091" y="549.340803030303" type="line"/>
      <point x="506.69295454545454" y="664.9892272727272" type="line"/>
      <point x="205.52007575757577" y="1085.139696969697" type="line"/>
      <point x="22.636787878787878" y="1085.139696969697" type="line"/>
      <point x="409.2121666666667" y="546.5698484848485" type="line"/>
      <point x="503.15104545454545" y="432.1784090909091" type="line"/>
    </contour>
    <contour>
      <point x="15.636787878787878" y="0.0" type="line"/>
      <point x="194.43625757575757" y="0.0" type="line"/>
      <point x="503.15104545454545" y="432.1784090909091" type="line"/>
      <point x="599.3469090909091" y="549.340803030303" type="line"/>
      <point x="985.1513333333334" y="1085.139696969697" type="line"/>
      <point x="807.837893939394" y="1085.139696969697" type="line"/>
      <point x="506.69295454545454" y="664.9892272727272" type="line"/>
      <point x="409.2121666666667" y="546.5698484848485" type="line"/>
    </contour>
  </outline>
</glyph>
<glyph name="y" format="2">
  <advance width="1056.3636363636365"/>
  <unicode hex="0079"/>
  <anchor x="813.1515151515152" y="0.0" name="bottom"/>
  <anchor x="529.3030303030303" y="1200.0" name="top"/>
  <outline>
    <contour>
      <point x="304.55555555555554" y="-440.0" type="line"/>
      <point x="462.919191919192" y="-440.0" type="line"/>
      <point x="1040.7070707070707" y="1085.050505050505" type="line"/>
      <point x="881.0909090909091" y="1085.050505050505" type="line"/>
      <point x="522.5757575757576" y="113.77777777777781" type="line"/>
      <point x="472.24242424242425" y="0.0" type="line"/>
    </contour>
    <contour>
      <point x="426.50505050505046" y="0.0" type="line"/>
      <point x="577.8181818181819" y="0.0" type="line"/>
      <point x="184.08080808080814" y="1085.050505050505" type="line"/>
      <point x="15.656565656565652" y="1085.050505050505" type="line"/>
    </contour>
  </outline>
</glyph>
<glyph name="z" format="2">
  <advance width="918.9668181818182"/>
  <unicode hex="007A"/>
  <anchor x="464.0392878787879" y="0.0" name="bottom"/>
  <anchor x="464.0392878787879" y="1200.0" name="top"/>
  <outline>
    <contour>
      <point x="62.54190909090909" y="0.0" type="line"/>
      <point x="864.5366666666666" y="0.0" type="line"/>
      <point x="864.5366666666666" y="132.3579696969697" type="line"/>
      <point x="238.7380606060606" y="132.3579696969697" type="line"/>
      <point x="238.7380606060606" y="95.27968181818181" type="line"/>
      <point x="853.0506363636364" y="986.0331818181818" type="line"/>
      <point x="853.0506363636364" y="1085.139696969697" type="line"/>
      <point x="74.02793939393939" y="1085.139696969697" type="line"/>
      <point x="74.02793939393939" y="952.7817272727273" type="line"/>
      <point x="676.8544848484848" y="952.7817272727273" type="line"/>
      <point x="676.8544848484848" y="989.8600151515152" type="line"/>
      <point x="62.54190909090909" y="99.10651515151515" type="line"/>
    </contour>
  </outline>
</glyph>
<glyph name="braceleft" format="2">
  <advance width="698.3232323232323"/>
  <unicode hex="007B"/>
  <outline>
    <contour>
      <point x="595.3434343434343" y="-460.0" type="curve" smooth="yes"/>
      <point x="647.6767676767677" y="-460.0"/>
      <point x="697.969696969697" y="-455.4949494949495"/>
      <point x="734.7878787878788" y="-448.98989898989896" type="curve"/>
      <point x="734.7878787878788" y="-325.81818181818176" type="line"/>
      <point x="612.0505050505051" y="-325.81818181818176" type="line" smooth="yes"/>
      <point x="462.0707070707071" y="-325.81818181818176"/>
      <point x="387.69696969696975" y="-263.19191919191917"/>
      <point x="387.69696969696975" y="-112.96969696969695" type="curve" smooth="yes"/>
      <point x="387.69696969696975" y="383.3939393939394" type="line" smooth="yes"/>
      <point x="387.69696969696975" y="534.5454545454545"/>
      <point x="326.04040404040404" y="615.6363636363636"/>
      <point x="180.56565656565658" y="635.070707070707" type="curve"/>
      <point x="180.56565656565658" y="613.9797979797979" type="line"/>
      <point x="326.04040404040404" y="633.4141414141415"/>
      <point x="387.69696969696975" y="714.5050505050505"/>
      <point x="387.69696969696975" y="865.6565656565657" type="curve" smooth="yes"/>
      <point x="387.69696969696975" y="1288.969696969697" type="line" smooth="yes"/>
      <point x="387.69696969696975" y="1439.1919191919192"/>
      <point x="462.0707070707071" y="1501.8181818181818"/>
      <point x="612.0505050505051" y="1501.8181818181818" type="curve" smooth="yes"/>
      <point x="734.7878787878788" y="1501.8181818181818" type="line"/>
      <point x="734.7878787878788" y="1624.989898989899" type="line"/>
      <point x="697.969696969697" y="1631.4949494949494"/>
      <point x="647.6767676767677" y="1636.0"/>
      <point x="595.3434343434343" y="1636.0" type="curve" smooth="yes"/>
      <point x="353.3939393939394" y="1636.0"/>
      <point x="229.54545454545453" y="1519.1515151515152"/>
      <point x="229.54545454545453" y="1287.7777777777778" type="curve" smooth="yes"/>
      <point x="229.54545454545453" y="856.6666666666666" type="line" smooth="yes"/>
      <point x="229.54545454545453" y="741.5858585858587"/>
      <point x="172.0909090909091" y="690.1111111111111"/>
      <point x="64.48484848484848" y="690.1111111111111" type="curve" smooth="yes"/>
      <point x="36.10101010101009" y="690.1111111111111" type="line"/>
      <point x="36.10101010101009" y="558.9393939393939" type="line"/>
      <point x="64.48484848484848" y="558.9393939393939" type="line" smooth="yes"/>
      <point x="172.0909090909091" y="558.9393939393939"/>
      <point x="229.54545454545453" y="507.4646464646465"/>
      <point x="229.54545454545453" y="392.3838383838384" type="curve" smooth="yes"/>
      <point x="229.54545454545453" y="-111.77777777777776" type="line" smooth="yes"/>
      <point x="229.54545454545453" y="-343.1515151515151"/>
      <point x="353.3939393939394" y="-460.0"/>
    </contour>
  </outline>
</glyph>
<glyph name="bar" format="2">
  <advance width="485.8787878787879"/>
  <unicode hex="007C"/>
  <outline>
    <contour>
      <point x="169.54545454545453" y="-440.0" type="line"/>
      <point x="316.33333333333337" y="-440.0" type="line"/>
      <point x="316.33333333333337" y="1616.0" type="line"/>
      <point x="169.54545454545453" y="1616.0" type="line"/>
    </contour>
  </outline>
</glyph>
<glyph name="braceright" format="2">
  <advance width="698.3232323232323"/>
  <unicode hex="007D"/>
  <outline>
    <contour>
      <point x="102.979797979798" y="-460.0" type="curve" smooth="yes"/>
      <point x="344.92929292929296" y="-460.0"/>
      <point x="468.7777777777778" y="-343.1515151515151"/>
      <point x="468.7777777777778" y="-111.77777777777776" type="curve" smooth="yes"/>
      <point x="468.7777777777778" y="392.3838383838384" type="line" smooth="yes"/>
      <point x="468.7777777777778" y="507.4646464646465"/>
      <point x="526.2323232323233" y="558.9393939393939"/>
      <point x="633.8383838383838" y="558.9393939393939" type="curve" smooth="yes"/>
      <point x="662.2222222222222" y="558.9393939393939" type="line"/>
      <point x="662.2222222222222" y="690.1111111111111" type="line"/>
      <point x="633.8383838383838" y="690.1111111111111" type="line" smooth="yes"/>
      <point x="526.2323232323233" y="690.1111111111111"/>
      <point x="468.7777777777778" y="741.5858585858587"/>
      <point x="468.7777777777778" y="856.6666666666666" type="curve" smooth="yes"/>
      <point x="468.7777777777778" y="1287.7777777777778" type="line" smooth="yes"/>
      <point x="468.7777777777778" y="1519.1515151515152"/>
      <point x="344.92929292929296" y="1636.0"/>
      <point x="102.979797979798" y="1636.0" type="curve" smooth="yes"/>
      <point x="50.64646464646465" y="1636.0"/>
      <point x="0.35353535353535825" y="1631.4949494949494"/>
      <point x="-36.464646464646464" y="1624.989898989899" type="curve"/>
      <point x="-36.464646464646464" y="1501.8181818181818" type="line"/>
      <point x="86.27272727272728" y="1501.8181818181818" type="line" smooth="yes"/>
      <point x="236.25252525252523" y="1501.8181818181818"/>
      <point x="310.6262626262626" y="1439.1919191919192"/>
      <point x="310.6262626262626" y="1288.969696969697" type="curve" smooth="yes"/>
      <point x="310.6262626262626" y="865.6565656565657" type="line" smooth="yes"/>
      <point x="310.6262626262626" y="714.5050505050505"/>
      <point x="373.04040404040404" y="633.4141414141415"/>
      <point x="517.7575757575758" y="613.9797979797979" type="curve"/>
      <point x="517.7575757575758" y="635.070707070707" type="line"/>
      <point x="373.04040404040404" y="615.6363636363636"/>
      <point x="310.6262626262626" y="534.5454545454545"/>
      <point x="310.6262626262626" y="383.3939393939394" type="curve" smooth="yes"/>
      <point x="310.6262626262626" y="-112.96969696969695" type="line" smooth="yes"/>
      <point x="310.6262626262626" y="-263.19191919191917"/>
      <point x="236.25252525252523" y="-325.81818181818176"/>
      <point x="86.27272727272728" y="-325.81818181818176" type="curve" smooth="yes"/>
      <point x="-36.464646464646464" y="-325.81818181818176" type="line"/>
      <point x="-36.464646464646464" y="-448.98989898989896" type="line"/>
      <point x="0.35353535353535825" y="-455.4949494949495"/>
      <point x="50.64646464646465" y="-460.0"/>
    </contour>
  </outline>
</glyph>
<glyph name="asciitilde" format="2">
  <advance width="1075.6363636363637"/>
  <unicode hex="007E"/>
  <outline>
    <contour>
      <point x="718.4040404040404" y="633.6969696969696" type="curve" smooth="yes"/>
      <point x="804.7373737373738" y="633.6969696969696"/>
      <point x="876.2525252525253" y="665.1919191919192"/>
      <point x="926.5656565656566" y="726.7272727272727" type="curve"/>
      <point x="926.5656565656566" y="869.3333333333334" type="line"/>
      <point x="865.4949494949495" y="795.8181818181819"/>
      <point x="799.2222222222222" y="760.8282828282828"/>
      <point x="717.9191919191919" y="760.8282828282828" type="curve" smooth="yes"/>
      <point x="606.8484848484849" y="760.8282828282828"/>
      <point x="497.3131313131313" y="877.3333333333334"/>
      <point x="357.2323232323232" y="877.3333333333334" type="curve" smooth="yes"/>
      <point x="270.8989898989899" y="877.3333333333334"/>
      <point x="199.38383838383837" y="845.8383838383838"/>
      <point x="149.07070707070707" y="784.3030303030304" type="curve"/>
      <point x="149.07070707070707" y="641.6969696969696" type="line"/>
      <point x="210.14141414141415" y="715.2121212121212"/>
      <point x="276.4141414141414" y="750.2020202020202"/>
      <point x="357.7171717171717" y="750.2020202020202" type="curve" smooth="yes"/>
      <point x="468.7878787878788" y="750.2020202020202"/>
      <point x="578.3232323232323" y="633.6969696969696"/>
    </contour>
  </outline>
</glyph>
<glyph name="exclamdown" format="2">
  <advance width="500.04040404040404"/>
  <unicode hex="00A1"/>
  <outline>
    <contour>
      <point x="200.26262626262627" y="707.9393939393939" type="line"/>
      <point x="166.04040404040404" y="165.0" type="line"/>
      <point x="166.04040404040404" y="-380.0" type="line"/>
      <point x="334.00000000000006" y="-380.0" type="line"/>
      <point x="334.00000000000006" y="165.0" type="line"/>
      <point x="301.04040404040404" y="707.9393939393939" type="line"/>
    </contour>
    <contour>
      <point x="250.02020202020202" y="1097.5757575757575" type="curve" smooth="yes"/>
      <point x="181.94949494949495" y="1097.5757575757575"/>
      <point x="136.0" y="1055.6464646464647"/>
      <point x="136.0" y="988.3535353535353" type="curve" smooth="yes"/>
      <point x="136.0" y="921.060606060606"/>
      <point x="180.93939393939394" y="877.6363636363636"/>
      <point x="250.02020202020202" y="877.6363636363636" type="curve" smooth="yes"/>
      <point x="319.10101010101016" y="877.6363636363636"/>
      <point x="364.0404040404041" y="922.070707070707"/>
      <point x="364.0404040404041" y="988.3535353535353" type="curve" smooth="yes"/>
      <point x="364.0404040404041" y="1054.6363636363637"/>
      <point x="318.0909090909091" y="1097.5757575757575"/>
    </contour>
  </outline>
</glyph>
<glyph name="cent" format="2">
  <advance width="879.7373737373738"/>
  <unicode hex="00A2"/>
  <outline>
    <contour>
      <point x="573.6060606060606" y="-19.01010101010101" type="curve" smooth="yes"/>
      <point x="662.4141414141415" y="-19.01010101010101"/>
      <point x="751.959595959596" y="-4.01010101010101"/>
      <point x="836.6868686868687" y="25.96969696969697" type="curve"/>
      <point x="836.6868686868687" y="160.13131313131316" type="line"/>
      <point x="740.7070707070707" y="128.66666666666669"/>
      <point x="665.5050505050506" y="115.67676767676771"/>
      <point x="596.010101010101" y="115.67676767676771" type="curve" smooth="yes"/>
      <point x="374.92929292929296" y="115.67676767676771"/>
      <point x="258.2828282828283" y="229.2727272727273"/>
      <point x="258.2828282828283" y="545.5151515151515" type="curve" smooth="yes"/>
      <point x="258.2828282828283" y="855.0"/>
      <point x="377.4040404040404" y="966.8686868686868"/>
      <point x="628.4747474747475" y="966.8686868686868" type="curve" smooth="yes"/>
      <point x="696.2222222222222" y="966.8686868686868"/>
      <point x="763.9494949494949" y="957.8787878787879"/>
      <point x="836.6868686868687" y="939.6565656565656" type="curve"/>
      <point x="836.6868686868687" y="1073.8181818181818" type="line"/>
      <point x="764.6666666666667" y="1092.8080808080808"/>
      <point x="691.1313131313132" y="1101.5555555555557"/>
      <point x="615.0606060606061" y="1101.5555555555557" type="curve" smooth="yes"/>
      <point x="278.7979797979798" y="1101.5555555555557"/>
      <point x="94.1111111111111" y="935.7272727272727"/>
      <point x="94.1111111111111" y="541.7676767676768" type="curve" smooth="yes"/>
      <point x="94.1111111111111" y="148.82828282828282"/>
      <point x="265.77777777777777" y="-19.01010101010101"/>
    </contour>
    <contour>
      <point x="493.1212121212121" y="-240.0" type="line"/>
      <point x="631.8686868686868" y="-240.0" type="line"/>
      <point x="631.8686868686868" y="15.15151515151516" type="line"/>
      <point x="493.1212121212121" y="15.15151515151516" type="line"/>
    </contour>
    <contour>
      <point x="493.1212121212121" y="1069.8989898989898" type="line"/>
      <point x="631.8686868686868" y="1069.8989898989898" type="line"/>
      <point x="631.8686868686868" y="1325.050505050505" type="line"/>
      <point x="493.1212121212121" y="1325.050505050505" type="line"/>
    </contour>
  </outline>
</glyph>
<glyph name="sterling" format="2">
  <advance width="1265.6868686868688"/>
  <unicode hex="00A3"/>
  <outline>
    <contour>
      <point x="297.83838383838383" y="55.23232323232324" type="line"/>
      <point x="454.72727272727275" y="55.23232323232324" type="line"/>
      <point x="454.72727272727275" y="1047.8181818181818" type="line" smooth="yes"/>
      <point x="454.72727272727275" y="1274.6868686868686"/>
      <point x="579.0202020202021" y="1362.050505050505"/>
      <point x="838.6969696969697" y="1362.050505050505" type="curve" smooth="yes"/>
      <point x="942.6969696969697" y="1362.050505050505"/>
      <point x="1051.2727272727273" y="1347.5454545454545"/>
      <point x="1152.4848484848485" y="1316.8181818181818" type="curve"/>
      <point x="1152.4848484848485" y="1455.2727272727273" type="line"/>
      <point x="1060.4747474747476" y="1483.2525252525252"/>
      <point x="943.939393939394" y="1498.5050505050506"/>
      <point x="833.1111111111111" y="1498.5050505050506" type="curve" smooth="yes"/>
      <point x="480.969696969697" y="1498.5050505050506"/>
      <point x="297.83838383838383" y="1349.6262626262626"/>
      <point x="297.83838383838383" y="1043.2727272727273" type="curve" smooth="yes"/>
    </contour>
    <contour>
      <point x="77.47474747474747" y="0.0" type="line"/>
      <point x="1192.7575757575758" y="0.0" type="line"/>
      <point x="1192.7575757575758" y="134.20202020202024" type="line"/>
      <point x="77.47474747474747" y="134.20202020202024" type="line"/>
    </contour>
    <contour>
      <point x="77.47474747474747" y="686.9393939393939" type="line"/>
      <point x="974.909090909091" y="686.9393939393939" type="line"/>
      <point x="974.909090909091" y="813.0606060606061" type="line"/>
      <point x="77.47474747474747" y="813.0606060606061" type="line"/>
    </contour>
  </outline>
</glyph>
<glyph name="currency" format="2">
  <advance width="1156.5366666666666"/>
  <unicode hex="00A4"/>
  <outline>
    <contour>
      <point x="354.2683333333333" y="904.0221212121212" type="line"/>
      <point x="414.2462121212121" y="962.5139696969698" type="line"/>
      <point x="294.9499393939394" y="1110.8381818181817" type="line"/>
      <point x="193.29627272727274" y="1215.9778787878788" type="line"/>
      <point x="100.80442424242425" y="1123.4860303030302" type="line"/>
      <point x="207.43015151515152" y="1021.8323636363637" type="line"/>
    </contour>
    <contour>
      <point x="802.2683333333333" y="904.0221212121212" type="line"/>
      <point x="949.1065151515152" y="1021.8323636363637" type="line"/>
      <point x="1055.7322424242425" y="1123.4860303030302" type="line"/>
      <point x="963.2403939393939" y="1215.9778787878788" type="line"/>
      <point x="861.5867272727273" y="1110.8381818181817" type="line"/>
      <point x="742.2904545454545" y="962.5139696969698" type="line"/>
    </contour>
    <contour>
      <point x="961.7543636363637" y="264.0221212121212" type="line"/>
      <point x="1054.246212121212" y="356.5139696969697" type="line"/>
      <point x="949.1065151515152" y="458.16763636363635" type="line"/>
      <point x="809.6984848484849" y="568.5477272727272" type="line"/>
      <point x="749.7206060606061" y="507.0838181818182" type="line"/>
      <point x="860.100696969697" y="369.1618181818182" type="line"/>
    </contour>
    <contour>
      <point x="194.782303030303" y="264.0221212121212" type="line"/>
      <point x="296.43596969696966" y="369.1618181818182" type="line"/>
      <point x="406.8160606060606" y="507.0838181818182" type="line"/>
      <point x="346.8381818181818" y="568.5477272727272" type="line"/>
      <point x="207.43015151515152" y="458.16763636363635" type="line"/>
      <point x="102.29045454545454" y="356.5139696969697" type="line"/>
    </contour>
    <contour>
      <point x="578.2683333333333" y="396.86583333333334" type="curve" smooth="yes"/>
      <point x="773.0058181818182" y="396.86583333333334"/>
      <point x="909.5701363636364" y="533.7764848484849"/>
      <point x="909.5701363636364" y="740.0" type="curve" smooth="yes"/>
      <point x="909.5701363636364" y="944.2235151515151"/>
      <point x="773.0058181818182" y="1081.1341666666667"/>
      <point x="578.2683333333333" y="1081.1341666666667" type="curve" smooth="yes"/>
      <point x="382.0448181818182" y="1081.1341666666667"/>
      <point x="246.9665303030303" y="944.2235151515151"/>
      <point x="246.9665303030303" y="740.0" type="curve" smooth="yes"/>
      <point x="246.9665303030303" y="533.7764848484849"/>
      <point x="382.0448181818182" y="396.86583333333334"/>
    </contour>
    <contour>
      <point x="578.2683333333333" y="500.4973787878788" type="curve" smooth="yes"/>
      <point x="446.71536363636363" y="500.4973787878788"/>
      <point x="355.22380303030303" y="589.4749696969697"/>
      <point x="355.22380303030303" y="740.0" type="curve" smooth="yes"/>
      <point x="355.22380303030303" y="890.5250303030303"/>
      <point x="446.71536363636363" y="979.5026212121212"/>
      <point x="580.2683333333333" y="979.5026212121212" type="curve" smooth="yes"/>
      <point x="721.2514545454545" y="979.5026212121212"/>
      <point x="801.3128636363637" y="879.5529696969697"/>
      <point x="801.3128636363637" y="740.0" type="curve" smooth="yes"/>
      <point x="801.3128636363637" y="587.9889393939394"/>
      <point x="709.821303030303" y="500.4973787878788"/>
    </contour>
  </outline>
</glyph>
<glyph name="yen" format="2">
  <advance width="1213.5980757575758"/>
  <unicode hex="00A5"/>
  <outline>
    <contour>
      <point x="526.4132727272727" y="0.0" type="line"/>
      <point x="688.4697272727273" y="0.0" type="line"/>
      <point x="688.4697272727273" y="723.961" type="line"/>
      <point x="652.9947575757576" y="603.4298636363636" type="line"/>
      <point x="1219.302090909091" y="1480.0" type="line"/>
      <point x="1051.4132727272727" y="1480.0" type="line"/>
      <point x="583.2179848484849" y="758.8047121212121" type="line"/>
      <point x="638.2907424242425" y="758.8047121212121" type="line"/>
      <point x="169.8105303030303" y="1480.0" type="line"/>
      <point x="-9.04481818181818" y="1480.0" type="line"/>
      <point x="561.8882424242424" y="603.4298636363636" type="line"/>
      <point x="526.4132727272727" y="725.502909090909" type="line"/>
    </contour>
    <contour>
      <point x="208.9831212121212" y="298.67025757575755" type="line"/>
      <point x="1005.8998787878788" y="298.67025757575755" type="line"/>
      <point x="1005.8998787878788" y="408.4135606060606" type="line"/>
      <point x="208.9831212121212" y="408.4135606060606" type="line"/>
    </contour>
    <contour>
      <point x="208.9831212121212" y="639.5864393939394" type="line"/>
      <point x="1005.8998787878788" y="639.5864393939394" type="line"/>
      <point x="1005.8998787878788" y="749.3297424242425" type="line"/>
      <point x="208.9831212121212" y="749.3297424242425" type="line"/>
    </contour>
  </outline>
</glyph>
<glyph name="brokenbar" format="2">
  <advance width="485.8787878787879"/>
  <unicode hex="00A6"/>
  <outline>
    <contour>
      <point x="169.54545454545453" y="836.0" type="line"/>
      <point x="316.33333333333337" y="836.0" type="line"/>
      <point x="316.33333333333337" y="1616.0" type="line"/>
      <point x="169.54545454545453" y="1616.0" type="line"/>
    </contour>
    <contour>
      <point x="169.54545454545453" y="-440.0" type="line"/>
      <point x="316.33333333333337" y="-440.0" type="line"/>
      <point x="316.33333333333337" y="340.0" type="line"/>
      <point x="169.54545454545453" y="340.0" type="line"/>
    </contour>
  </outline>
</glyph>
<glyph name="section" format="2">
  <advance width="1014.4807878787879"/>
  <unicode hex="00A7"/>
  <outline>
    <contour>
      <point x="439.7319545454545" y="-19.027939393939395" type="curve" smooth="yes"/>
      <point x="722.9723484848485" y="-19.027939393939395"/>
      <point x="866.3914393939394" y="102.16763636363636"/>
      <point x="866.3914393939394" y="296.70401515151514" type="curve" smooth="yes"/>
      <point x="866.3914393939394" y="447.5867272727273"/>
      <point x="785.8550606060606" y="535.7878333333333"/>
      <point x="589.7936515151515" y="578.961" type="curve" smooth="yes"/>
      <point x="429.18451515151514" y="612.100696969697" type="line" smooth="yes"/>
      <point x="302.5142575757576" y="639.961"/>
      <point x="256.7657121212121" y="701.8827121212121"/>
      <point x="256.7657121212121" y="792.8937727272727" type="curve" smooth="yes"/>
      <point x="256.7657121212121" y="856.8713636363636"/>
      <point x="285.883" y="912.1338787878788"/>
      <point x="347.91646969696967" y="954.9327727272728" type="curve"/>
      <point x="254.5139696969697" y="1022.860303030303" type="line"/>
      <point x="168.77648484848484" y="967.5474393939394"/>
      <point x="118.58090909090909" y="885.4915606060606"/>
      <point x="118.58090909090909" y="784.7540757575757" type="curve" smooth="yes"/>
      <point x="118.58090909090909" y="628.9327727272728"/>
      <point x="201.65919696969698" y="534.1897575757575"/>
      <point x="387.6926666666667" y="493.27357575757577" type="curve" smooth="yes"/>
      <point x="548.0448181818182" y="460.1338787878788" type="line" smooth="yes"/>
      <point x="667.7764848484849" y="433.81548484848486"/>
      <point x="715.7261363636363" y="385.89377272727273"/>
      <point x="715.7261363636363" y="286.33527272727275" type="curve" smooth="yes"/>
      <point x="715.7261363636363" y="171.11757575757576"/>
      <point x="635.9441212121212" y="103.50872727272727"/>
      <point x="440.41909090909087" y="103.50872727272727" type="curve" smooth="yes"/>
      <point x="343.9665303030303" y="103.50872727272727"/>
      <point x="252.91618181818183" y="115.27968181818181"/>
      <point x="146.14522727272728" y="146.25174242424242" type="curve"/>
      <point x="146.14522727272728" y="22.229045454545457" type="line"/>
      <point x="238.56984848484848" y="-5.770954545454545"/>
      <point x="337.90512121212123" y="-19.027939393939395"/>
    </contour>
    <contour>
      <point x="759.542196969697" y="454.79889393939396" type="line"/>
      <point x="844.1344545454546" y="509.88271212121214"/>
      <point x="895.8998787878788" y="590.7374848484849"/>
      <point x="895.8998787878788" y="697.9889393939394" type="curve" smooth="yes"/>
      <point x="895.8998787878788" y="855.8102424242425"/>
      <point x="815.3634999999999" y="947.0392878787878"/>
      <point x="621.6149545454546" y="989.1845151515151" type="curve" smooth="yes"/>
      <point x="458.69295454545454" y="1021.8102424242425" type="line" smooth="yes"/>
      <point x="338.96128787878786" y="1048.1286363636364"/>
      <point x="296.18480303030304" y="1104.4525606060606"/>
      <point x="296.18480303030304" y="1191.6088484848485" type="curve" smooth="yes"/>
      <point x="296.18480303030304" y="1293.1673484848484"/>
      <point x="370.564606060606" y="1373.9773030303031"/>
      <point x="587.681893939394" y="1373.9773030303031" type="curve" smooth="yes"/>
      <point x="670.2238030303031" y="1373.9773030303031"/>
      <point x="740.8774696969697" y="1365.9773030303031"/>
      <point x="828.8495303030303" y="1343.5192121212121" type="curve"/>
      <point x="828.8495303030303" y="1467.541909090909" type="line"/>
      <point x="751.0506363636364" y="1486.5139696969698"/>
      <point x="668.3131515151515" y="1496.5139696969698"/>
      <point x="579.2013939393939" y="1496.5139696969698" type="curve" smooth="yes"/>
      <point x="280.11175757575757" y="1496.5139696969698"/>
      <point x="145.5195" y="1365.3742727272727"/>
      <point x="145.5195" y="1183.4691515151515" type="curve" smooth="yes"/>
      <point x="145.5195" y="1037.156287878788"/>
      <point x="228.08381818181817" y="944.6702575757575"/>
      <point x="419.5139696969697" y="902.9831212121212" type="curve" smooth="yes"/>
      <point x="579.8661212121212" y="869.8434242424242" type="line" smooth="yes"/>
      <point x="706.5363787878788" y="841.9831212121212"/>
      <point x="757.7150757575757" y="788.4636212121212"/>
      <point x="757.7150757575757" y="686.3352727272727" type="curve" smooth="yes"/>
      <point x="757.7150757575757" y="616.6426060606061"/>
      <point x="727.5698484848485" y="564.6370757575758"/>
      <point x="662.340803030303" y="523.0392878787878" type="curve"/>
    </contour>
  </outline>
</glyph>
<glyph name="copyright" format="2">
  <advance width="1702.2828282828282"/>
  <unicode hex="00A9"/>
  <outline>
    <contour>
      <point x="851.1414141414141" y="-22.0" type="curve" smooth="yes"/>
      <point x="1298.6565656565656" y="-22.0"/>
      <point x="1596.6565656565656" y="282.0"/>
      <point x="1596.6565656565656" y="740.0" type="curve" smooth="yes"/>
      <point x="1596.6565656565656" y="1198.0"/>
      <point x="1298.6565656565656" y="1502.0"/>
      <point x="851.1414141414141" y="1502.0" type="curve" smooth="yes"/>
      <point x="403.62626262626264" y="1502.0"/>
      <point x="105.62626262626262" y="1198.0"/>
      <point x="105.62626262626262" y="740.0" type="curve" smooth="yes"/>
      <point x="105.62626262626262" y="282.0"/>
      <point x="403.62626262626264" y="-22.0"/>
    </contour>
    <contour>
      <point x="894.2323232323232" y="324.0" type="curve" smooth="yes"/>
      <point x="973.2424242424242" y="324.0"/>
      <point x="1045.2424242424242" y="336.0"/>
      <point x="1108.6969696969697" y="362.96969696969694" type="curve"/>
      <point x="1108.6969696969697" y="475.4343434343435" type="line"/>
      <point x="1027.7070707070707" y="446.969696969697"/>
      <point x="963.2828282828283" y="437.979797979798"/>
      <point x="905.7878787878788" y="437.979797979798" type="curve" smooth="yes"/>
      <point x="731.0" y="437.979797979798"/>
      <point x="624.1515151515151" y="533.8383838383838"/>
      <point x="624.1515151515151" y="736.4848484848485" type="curve" smooth="yes"/>
      <point x="624.1515151515151" y="935.1515151515151"/>
      <point x="729.4848484848485" y="1030.020202020202"/>
      <point x="925.2626262626262" y="1030.020202020202" type="curve" smooth="yes"/>
      <point x="991.7272727272727" y="1030.020202020202"/>
      <point x="1047.20202020202" y="1021.030303030303"/>
      <point x="1108.6969696969697" y="1005.0505050505051" type="curve"/>
      <point x="1108.6969696969697" y="1117.5151515151515" type="line"/>
      <point x="1046.7171717171718" y="1136.0"/>
      <point x="986.2121212121212" y="1144.0"/>
      <point x="916.6969696969697" y="1144.0" type="curve" smooth="yes"/>
      <point x="648.6565656565657" y="1144.0"/>
      <point x="494.57575757575756" y="994.989898989899"/>
      <point x="494.57575757575756" y="733.4949494949495" type="curve" smooth="yes"/>
      <point x="494.57575757575756" y="465.03030303030306"/>
      <point x="653.6262626262626" y="324.0"/>
    </contour>
    <contour>
      <point x="851.1414141414141" y="82.36363636363637" type="curve" smooth="yes"/>
      <point x="462.3131313131313" y="82.36363636363637"/>
      <point x="212.51515151515153" y="341.6969696969697"/>
      <point x="212.51515151515153" y="740.0" type="curve" smooth="yes"/>
      <point x="212.51515151515153" y="1138.3030303030303"/>
      <point x="462.3131313131313" y="1397.6363636363635"/>
      <point x="851.1414141414141" y="1397.6363636363635" type="curve" smooth="yes"/>
      <point x="1239.969696969697" y="1397.6363636363635"/>
      <point x="1489.7676767676767" y="1138.3030303030303"/>
      <point x="1489.7676767676767" y="740.0" type="curve" smooth="yes"/>
      <point x="1489.7676767676767" y="341.6969696969697"/>
      <point x="1239.969696969697" y="82.36363636363637"/>
    </contour>
  </outline>
</glyph>
<glyph name="ordfeminine" format="2">
  <advance width="866.8888888888889"/>
  <unicode hex="00AA"/>
  <outline>
    <contour>
      <point x="346.19191919191917" y="594.989898989899" type="curve" smooth="yes"/>
      <point x="452.14141414141415" y="594.989898989899"/>
      <point x="550.3434343434343" y="634.6969696969697"/>
      <point x="610.3030303030303" y="706.6969696969697" type="curve"/>
      <point x="619.0808080808081" y="706.6969696969697" type="line"/>
      <point x="630.6363636363636" y="610.0" type="line"/>
      <point x="754.5656565656566" y="610.0" type="line"/>
      <point x="754.5656565656566" y="1171.6868686868686" type="line" smooth="yes"/>
      <point x="754.5656565656566" y="1414.4242424242425"/>
      <point x="634.4848484848485" y="1494.5252525252524"/>
      <point x="395.1212121212121" y="1494.5252525252524" type="curve" smooth="yes"/>
      <point x="308.8181818181818" y="1494.5252525252524"/>
      <point x="208.49494949494948" y="1481.030303030303"/>
      <point x="128.4141414141414" y="1454.5353535353536" type="curve"/>
      <point x="128.4141414141414" y="1336.2424242424242" type="line"/>
      <point x="213.63636363636363" y="1363.7171717171716"/>
      <point x="301.4040404040404" y="1376.4646464646464"/>
      <point x="372.92929292929296" y="1376.4646464646464" type="curve" smooth="yes"/>
      <point x="533.4040404040404" y="1376.4646464646464"/>
      <point x="607.989898989899" y="1332.5050505050506"/>
      <point x="607.989898989899" y="1186.3131313131314" type="curve" smooth="yes"/>
      <point x="607.989898989899" y="805.1515151515151" type="line"/>
      <point x="546.8888888888889" y="734.6262626262626"/>
      <point x="465.34343434343435" y="705.2222222222223"/>
      <point x="389.3030303030303" y="705.2222222222223" type="curve" smooth="yes"/>
      <point x="274.52525252525254" y="705.2222222222223"/>
      <point x="216.87878787878793" y="756.8686868686868"/>
      <point x="216.87878787878793" y="851.6868686868687" type="curve" smooth="yes"/>
      <point x="216.87878787878793" y="941.2626262626262"/>
      <point x="274.5151515151515" y="990.6666666666666"/>
      <point x="415.73737373737373" y="1004.6262626262626" type="curve" smooth="yes"/>
      <point x="661.1515151515151" y="1028.060606060606" type="line"/>
      <point x="646.5353535353536" y="1117.6161616161617" type="line"/>
      <point x="399.5858585858586" y="1093.6767676767677" type="line" smooth="yes"/>
      <point x="166.64646464646464" y="1073.7070707070707"/>
      <point x="69.08080808080807" y="988.6767676767677"/>
      <point x="69.08080808080807" y="835.0808080808081" type="curve" smooth="yes"/>
      <point x="69.08080808080807" y="688.8080808080808"/>
      <point x="172.58585858585857" y="594.989898989899"/>
    </contour>
  </outline>
</glyph>
<glyph name="logicalnot" format="2">
  <advance width="1333.4949494949494"/>
  <unicode hex="00AC"/>
  <outline>
    <contour>
      <point x="1058.7373737373737" y="194.02020202020202" type="line"/>
      <point x="1193.909090909091" y="194.02020202020202" type="line"/>
      <point x="1193.909090909091" y="824.3232323232323" type="line"/>
      <point x="149.07070707070707" y="824.3232323232323" type="line"/>
      <point x="149.07070707070707" y="695.6767676767677" type="line"/>
      <point x="1058.7373737373737" y="695.6767676767677" type="line"/>
    </contour>
  </outline>
</glyph>
<glyph name="registered" format="2">
  <advance width="1503.1313131313132"/>
  <unicode hex="00AE"/>
  <outline>
    <contour>
      <point x="751.5656565656566" y="268.0" type="curve" smooth="yes"/>
      <point x="1113.5656565656566" y="268.0"/>
      <point x="1361.5656565656566" y="518.0"/>
      <point x="1361.5656565656566" y="882.0" type="curve" smooth="yes"/>
      <point x="1361.5656565656566" y="1246.0"/>
      <point x="1113.5656565656566" y="1498.0"/>
      <point x="751.5656565656566" y="1498.0" type="curve" smooth="yes"/>
      <point x="389.5656565656566" y="1498.0"/>
      <point x="141.56565656565655" y="1246.0"/>
      <point x="141.56565656565655" y="882.0" type="curve" smooth="yes"/>
      <point x="141.56565656565655" y="518.0"/>
      <point x="389.5656565656566" y="268.0"/>
    </contour>
    <contour>
      <point x="911.3838383838383" y="600.0" type="line"/>
      <point x="1014.1515151515151" y="600.0" type="line"/>
      <point x="844.2121212121212" y="849.8989898989898" type="line"/>
      <point x="757.9494949494949" y="823.8989898989898" type="line"/>
    </contour>
    <contour>
      <point x="751.5656565656566" y="356.72727272727275" type="curve" smooth="yes"/>
      <point x="438.7171717171717" y="356.72727272727275"/>
      <point x="234.8181818181818" y="563.6363636363636"/>
      <point x="234.8181818181818" y="882.0" type="curve" smooth="yes"/>
      <point x="234.8181818181818" y="1200.8686868686868"/>
      <point x="438.7171717171717" y="1409.2727272727273"/>
      <point x="751.5656565656566" y="1409.2727272727273" type="curve" smooth="yes"/>
      <point x="1064.4141414141413" y="1409.2727272727273"/>
      <point x="1268.3131313131312" y="1200.8686868686868"/>
      <point x="1268.3131313131312" y="882.0" type="curve" smooth="yes"/>
      <point x="1268.3131313131312" y="563.6363636363636"/>
      <point x="1064.4141414141413" y="356.72727272727275"/>
    </contour>
    <contour>
      <point x="540.030303030303" y="600.0" type="line"/>
      <point x="631.2828282828283" y="600.0" type="line"/>
      <point x="632.7979797979798" y="815.8989898989898" type="line"/>
      <point x="739.0808080808081" y="815.8989898989898" type="line" smooth="yes"/>
      <point x="905.6262626262626" y="815.8989898989898"/>
      <point x="988.1313131313132" y="881.3939393939394"/>
      <point x="988.1313131313132" y="1002.9494949494949" type="curve" smooth="yes"/>
      <point x="988.1313131313132" y="1124.5050505050506"/>
      <point x="903.6262626262626" y="1192.0"/>
      <point x="739.0808080808081" y="1192.0" type="curve" smooth="yes"/>
      <point x="540.030303030303" y="1192.0" type="line"/>
    </contour>
    <contour>
      <point x="632.7979797979798" y="895.5757575757576" type="line"/>
      <point x="632.7979797979798" y="1112.3232323232323" type="line"/>
      <point x="754.6161616161617" y="1112.3232323232323" type="line" smooth="yes"/>
      <point x="850.4545454545454" y="1112.3232323232323"/>
      <point x="897.8888888888889" y="1076.3636363636363"/>
      <point x="897.8888888888889" y="1002.9494949494949" type="curve" smooth="yes"/>
      <point x="897.8888888888889" y="929.5353535353536"/>
      <point x="852.4545454545454" y="895.5757575757576"/>
      <point x="754.6161616161617" y="895.5757575757576" type="curve" smooth="yes"/>
    </contour>
  </outline>
</glyph>
<glyph name="degree" format="2">
  <advance width="979.4545454545455"/>
  <unicode hex="00B0"/>
  <outline>
    <contour>
      <point x="489.72727272727275" y="804.2222222222222" type="curve" smooth="yes"/>
      <point x="692.3131313131313" y="804.2222222222222"/>
      <point x="837.8888888888889" y="950.2828282828283"/>
      <point x="837.8888888888889" y="1150.8686868686868" type="curve" smooth="yes"/>
      <point x="837.8888888888889" y="1351.4545454545455"/>
      <point x="692.3131313131313" y="1497.010101010101"/>
      <point x="489.72727272727275" y="1497.010101010101" type="curve" smooth="yes"/>
      <point x="287.14141414141415" y="1497.010101010101"/>
      <point x="141.56565656565655" y="1351.4545454545455"/>
      <point x="141.56565656565655" y="1150.8686868686868" type="curve" smooth="yes"/>
      <point x="141.56565656565655" y="950.2828282828283"/>
      <point x="287.14141414141415" y="804.2222222222222"/>
    </contour>
    <contour>
      <point x="489.72727272727275" y="911.9090909090909" type="curve" smooth="yes"/>
      <point x="353.4141414141414" y="911.9090909090909"/>
      <point x="255.53535353535355" y="1004.2929292929293"/>
      <point x="255.53535353535355" y="1150.8686868686868" type="curve" smooth="yes"/>
      <point x="255.53535353535355" y="1297.6969696969697"/>
      <point x="353.9191919191919" y="1389.3232323232323"/>
      <point x="489.72727272727275" y="1389.3232323232323" type="curve" smooth="yes"/>
      <point x="625.5353535353536" y="1389.3232323232323"/>
      <point x="723.9191919191919" y="1297.6969696969697"/>
      <point x="723.9191919191919" y="1150.8686868686868" type="curve" smooth="yes"/>
      <point x="723.9191919191919" y="1004.2929292929293"/>
      <point x="626.040404040404" y="911.9090909090909"/>
    </contour>
  </outline>
</glyph>
<glyph name="plusminus" format="2">
  <advance width="1075.6363636363637"/>
  <unicode hex="00B1"/>
  <outline>
    <contour>
      <point x="470.2323232323232" y="336.7070707070707" type="line"/>
      <point x="605.4040404040404" y="336.7070707070707" type="line"/>
      <point x="605.4040404040404" y="668.0202020202021" type="line"/>
      <point x="926.5656565656566" y="668.0202020202021" type="line"/>
      <point x="926.5656565656566" y="796.6666666666667" type="line"/>
      <point x="605.4040404040404" y="796.6666666666667" type="line"/>
      <point x="605.4040404040404" y="1127.979797979798" type="line"/>
      <point x="470.2323232323232" y="1127.979797979798" type="line"/>
      <point x="470.2323232323232" y="796.6666666666667" type="line"/>
      <point x="149.07070707070707" y="796.6666666666667" type="line"/>
      <point x="149.07070707070707" y="668.0202020202021" type="line"/>
      <point x="470.2323232323232" y="668.0202020202021" type="line"/>
    </contour>
    <contour>
      <point x="149.07070707070707" y="0.25252525252525265" type="line"/>
      <point x="926.5656565656566" y="0.25252525252525265" type="line"/>
      <point x="926.5656565656566" y="128.89898989898995" type="line"/>
      <point x="149.07070707070707" y="128.89898989898995" type="line"/>
    </contour>
  </outline>
</glyph>
<glyph name="micro" format="2">
  <advance width="1125.989898989899"/>
  <unicode hex="00B5"/>
  <outline>
    <contour>
      <point x="510.24242424242425" y="-18.252525252525253" type="curve" smooth="yes"/>
      <point x="625.6161616161617" y="-18.252525252525253"/>
      <point x="735.969696969697" y="27.737373737373737"/>
      <point x="819.8686868686868" y="118.94949494949495" type="curve"/>
      <point x="829.8888888888889" y="118.94949494949495" type="line"/>
      <point x="841.4444444444445" y="0.0" type="line"/>
      <point x="974.4242424242425" y="0.0" type="line"/>
      <point x="974.4242424242425" y="1085.050505050505" type="line"/>
      <point x="816.2727272727273" y="1085.050505050505" type="line"/>
      <point x="816.2727272727273" y="268.1818181818182" type="line"/>
      <point x="738.929292929293" y="164.67676767676772"/>
      <point x="617.9090909090909" y="122.74747474747478"/>
      <point x="520.5757575757576" y="122.74747474747478" type="curve" smooth="yes"/>
      <point x="388.31313131313135" y="122.74747474747478"/>
      <point x="297.7373737373738" y="184.8888888888889"/>
      <point x="297.7373737373738" y="371.33333333333337" type="curve" smooth="yes"/>
      <point x="297.7373737373738" y="528.0808080808081" type="line"/>
      <point x="210.34343434343435" y="528.0808080808081" type="line"/>
      <point x="210.34343434343435" y="364.2525252525253" type="line" smooth="yes"/>
      <point x="210.34343434343435" y="83.0909090909091"/>
      <point x="327.0808080808081" y="-18.252525252525253"/>
    </contour>
    <contour>
      <point x="139.58585858585857" y="-440.0" type="line"/>
      <point x="297.7373737373738" y="-440.0" type="line"/>
      <point x="297.7373737373738" y="1084.79797979798" type="line"/>
      <point x="139.58585858585857" y="1084.79797979798" type="line"/>
    </contour>
  </outline>
</glyph>
<glyph name="paragraph" format="2">
  <advance width="1231.7272727272727"/>
  <unicode hex="00B6"/>
  <outline>
    <contour>
      <point x="682.5454545454545" y="0.0" type="line"/>
      <point x="807.3636363636364" y="0.0" type="line"/>
      <point x="807.3636363636364" y="1480.0" type="line"/>
      <point x="726.3434343434343" y="1489.2626262626263"/>
      <point x="632.3131313131313" y="1495.5151515151515"/>
      <point x="535.8080808080808" y="1495.5151515151515" type="curve" smooth="yes"/>
      <point x="240.15151515151516" y="1495.5151515151515"/>
      <point x="89.65656565656565" y="1339.7171717171718"/>
      <point x="89.65656565656565" y="991.3434343434343" type="curve" smooth="yes"/>
      <point x="89.65656565656565" y="662.7171717171717"/>
      <point x="232.17171717171718" y="485.9292929292929"/>
      <point x="546.5353535353536" y="485.9292929292929" type="curve" smooth="yes"/>
      <point x="596.6969696969696" y="485.9292929292929"/>
      <point x="636.6262626262626" y="488.4242424242424"/>
      <point x="682.5454545454545" y="493.65656565656565" type="curve"/>
    </contour>
    <contour>
      <point x="937.3636363636364" y="0.0" type="line"/>
      <point x="1062.1818181818182" y="0.0" type="line"/>
      <point x="1062.1818181818182" y="1480.0" type="line"/>
      <point x="937.3636363636364" y="1480.0" type="line"/>
    </contour>
  </outline>
</glyph>
<glyph name="periodcentered" format="2">
  <advance width="460.04040404040404"/>
  <unicode hex="00B7"/>
  <anchor x="230.02020202020202" y="560.0" name="_periodcentered"/>
  <outline>
    <contour>
      <point x="230.02020202020202" y="449.2828282828283" type="curve" smooth="yes"/>
      <point x="298.0909090909091" y="449.2828282828283"/>
      <point x="344.0404040404041" y="492.22222222222223"/>
      <point x="344.0404040404041" y="558.5050505050505" type="curve" smooth="yes"/>
      <point x="344.0404040404041" y="624.7878787878788"/>
      <point x="299.10101010101016" y="669.2222222222223"/>
      <point x="230.02020202020202" y="669.2222222222223" type="curve" smooth="yes"/>
      <point x="160.93939393939394" y="669.2222222222223"/>
      <point x="115.99999999999999" y="625.7979797979798"/>
      <point x="115.99999999999999" y="558.5050505050505" type="curve" smooth="yes"/>
      <point x="115.99999999999999" y="491.2121212121212"/>
      <point x="161.94949494949495" y="449.2828282828283"/>
    </contour>
  </outline>
</glyph>
<glyph name="ordmasculine" format="2">
  <advance width="941.8787878787879"/>
  <unicode hex="00BA"/>
  <outline>
    <contour>
      <point x="470.93939393939394" y="594.989898989899" type="curve" smooth="yes"/>
      <point x="711.7171717171717" y="594.989898989899"/>
      <point x="866.5454545454546" y="738.3535353535353"/>
      <point x="866.5454545454546" y="1046.2525252525252" type="curve" smooth="yes"/>
      <point x="866.5454545454546" y="1354.1515151515152"/>
      <point x="711.7171717171717" y="1494.5252525252524"/>
      <point x="470.93939393939394" y="1494.5252525252524" type="curve" smooth="yes"/>
      <point x="230.16161616161617" y="1494.5252525252524"/>
      <point x="75.33333333333333" y="1355.4141414141413"/>
      <point x="75.33333333333333" y="1046.2525252525252" type="curve" smooth="yes"/>
      <point x="75.33333333333333" y="737.0909090909091"/>
      <point x="230.16161616161617" y="594.989898989899"/>
    </contour>
    <contour>
      <point x="470.93939393939394" y="713.7979797979798" type="curve" smooth="yes"/>
      <point x="322.22222222222223" y="713.7979797979798"/>
      <point x="225.15151515151518" y="797.1414141414142"/>
      <point x="225.15151515151518" y="1046.2525252525252" type="curve" smooth="yes"/>
      <point x="225.15151515151518" y="1295.6161616161617"/>
      <point x="322.22222222222223" y="1375.7171717171716"/>
      <point x="470.93939393939394" y="1375.7171717171716" type="curve" smooth="yes"/>
      <point x="620.1616161616162" y="1375.7171717171716"/>
      <point x="716.7272727272727" y="1295.6161616161617"/>
      <point x="716.7272727272727" y="1046.2525252525252" type="curve" smooth="yes"/>
      <point x="716.7272727272727" y="797.1414141414142"/>
      <point x="620.1616161616162" y="713.7979797979798"/>
    </contour>
  </outline>
</glyph>
<glyph name="questiondown" format="2">
  <advance width="903.6260151515152"/>
  <unicode hex="00BF"/>
  <outline>
    <contour>
      <point x="548.7657121212121" y="725.5192121212121" type="line"/>
      <point x="447.0558787878788" y="725.5192121212121" type="line"/>
      <point x="432.17316666666665" y="402.70954545454543" type="line"/>
      <point x="164.5363787878788" y="302.10069696969697"/>
      <point x="59.11728787878788" y="174.78783333333334"/>
      <point x="59.11728787878788" y="-30.809954545454545" type="curve" smooth="yes"/>
      <point x="59.11728787878788" y="-262.88824242424243"/>
      <point x="222.39668181818183" y="-400.0"/>
      <point x="527.0058181818182" y="-400.0" type="curve" smooth="yes"/>
      <point x="644.6315454545454" y="-400.0"/>
      <point x="770.7098333333333" y="-379.9720606060606"/>
      <point x="864.2517424242424" y="-345.7430151515151" type="curve"/>
      <point x="864.2517424242424" y="-211.1839393939394" type="line"/>
      <point x="760.3076212121211" y="-248.89901515151516"/>
      <point x="650.6260151515152" y="-266.9269545454546"/>
      <point x="541.1120454545454" y="-266.9269545454546" type="curve" smooth="yes"/>
      <point x="326.3300303030303" y="-266.9269545454546"/>
      <point x="217.26309090909092" y="-178.34604545454545"/>
      <point x="217.26309090909092" y="-21.044530303030303" type="curve" smooth="yes"/>
      <point x="217.26309090909092" y="134.9720606060606"/>
      <point x="303.3245" y="234.35186363636365"/>
      <point x="576.4417878787879" y="318.39086363636363" type="curve"/>
    </contour>
    <contour>
      <point x="497.782303030303" y="1097.7095454545454" type="curve" smooth="yes"/>
      <point x="427.65919696969695" y="1097.7095454545454"/>
      <point x="382.84342424242425" y="1053.9775909090908"/>
      <point x="382.84342424242425" y="990.9941818181818" type="curve" smooth="yes"/>
      <point x="382.84342424242425" y="926.5247424242424"/>
      <point x="428.11728787878786" y="882.7927878787879"/>
      <point x="497.782303030303" y="882.7927878787879" type="curve" smooth="yes"/>
      <point x="567.4473181818182" y="882.7927878787879"/>
      <point x="612.7211818181818" y="925.496803030303"/>
      <point x="612.7211818181818" y="990.9941818181818" type="curve" smooth="yes"/>
      <point x="612.7211818181818" y="1055.0055303030304"/>
      <point x="566.4193787878788" y="1097.7095454545454"/>
    </contour>
  </outline>
</glyph>
<glyph name="AE" format="2">
  <advance width="1845.1515151515152"/>
  <unicode hex="00C6"/>
  <anchor x="987.3636363636364" y="0.0" name="bottom"/>
  <anchor x="919.3434343434344" y="1520.0" name="top"/>
  <outline>
    <contour>
      <point x="28.666666666666664" y="0.0" type="line"/>
      <point x="190.05050505050508" y="0.0" type="line"/>
      <point x="676.969696969697" y="1344.3030303030303" type="line"/>
      <point x="914.5757575757576" y="1344.3030303030303" type="line"/>
      <point x="916.0707070707072" y="1480.0" type="line"/>
      <point x="569.3333333333333" y="1480.0" type="line"/>
    </contour>
    <contour>
      <point x="310.95959595959596" y="480.020202020202" type="line"/>
      <point x="958.6464646464647" y="480.020202020202" type="line"/>
      <point x="958.6464646464647" y="615.7171717171717" type="line"/>
      <point x="348.8888888888889" y="615.7171717171717" type="line"/>
    </contour>
    <contour>
      <point x="939.4646464646464" y="0.0" type="line"/>
      <point x="1773.8989898989898" y="0.0" type="line"/>
      <point x="1773.8989898989898" y="135.69696969696975" type="line"/>
      <point x="1089.060606060606" y="135.69696969696975" type="line"/>
      <point x="1004.5959595959596" y="1344.3030303030303" type="line"/>
      <point x="1763.8989898989898" y="1344.3030303030303" type="line"/>
      <point x="1763.8989898989898" y="1480.0" type="line"/>
      <point x="839.4040404040404" y="1480.0" type="line"/>
    </contour>
    <contour>
      <point x="981.3535353535353" y="691.6363636363636" type="line"/>
      <point x="1666.3737373737374" y="691.6363636363636" type="line"/>
      <point x="1666.3737373737374" y="827.3333333333334" type="line"/>
      <point x="981.3535353535353" y="827.3333333333334" type="line"/>
    </contour>
  </outline>
</glyph>
<glyph name="multiply" format="2">
  <advance width="999.6426060606061"/>
  <unicode hex="00D7"/>
  <outline>
    <contour>
      <point x="208.78230303030304" y="378.1897575757576" type="line"/>
      <point x="499.82130303030306" y="669.2287575757575" type="line"/>
      <point x="790.860303030303" y="378.1897575757576" type="line"/>
      <point x="881.6315454545454" y="468.961" type="line"/>
      <point x="590.5925454545454" y="760.0" type="line"/>
      <point x="881.6315454545454" y="1051.039" type="line"/>
      <point x="790.860303030303" y="1141.8102424242425" type="line"/>
      <point x="499.82130303030306" y="850.7712424242425" type="line"/>
      <point x="208.78230303030304" y="1141.8102424242425" type="line"/>
      <point x="118.01106060606061" y="1051.039" type="line"/>
      <point x="409.0500606060606" y="760.0" type="line"/>
      <point x="118.01106060606061" y="468.961" type="line"/>
    </contour>
  </outline>
</glyph>
<glyph name="Thorn" format="2">
  <advance width="1241.7272727272727"/>
  <unicode hex="00DE"/>
  <outline>
    <contour>
      <point x="169.54545454545453" y="0.0" type="line"/>
      <point x="329.969696969697" y="0.0" type="line"/>
      <point x="329.969696969697" y="264.06060606060606" type="line"/>
      <point x="398.11111111111114" y="258.0808080808081"/>
      <point x="456.5353535353536" y="255.33333333333331"/>
      <point x="525.939393939394" y="255.33333333333331" type="curve" smooth="yes"/>
      <point x="948.4444444444445" y="255.33333333333331"/>
      <point x="1142.0707070707072" y="431.6161616161616"/>
      <point x="1142.0707070707072" y="760.7474747474747" type="curve" smooth="yes"/>
      <point x="1142.0707070707072" y="1109.1212121212122"/>
      <point x="938.969696969697" y="1264.919191919192"/>
      <point x="550.2020202020202" y="1264.919191919192" type="curve" smooth="yes"/>
      <point x="461.4343434343435" y="1264.919191919192"/>
      <point x="387.3434343434344" y="1256.939393939394"/>
      <point x="329.969696969697" y="1247.969696969697" type="curve"/>
      <point x="329.969696969697" y="1480.7474747474748" type="line"/>
      <point x="169.54545454545453" y="1480.7474747474748" type="line"/>
    </contour>
    <contour>
      <point x="528.1818181818182" y="385.4747474747475" type="curve" smooth="yes"/>
      <point x="455.03030303030306" y="385.4747474747475"/>
      <point x="394.13131313131316" y="388.969696969697"/>
      <point x="329.969696969697" y="397.4545454545455" type="curve"/>
      <point x="329.969696969697" y="1116.3131313131312" type="line"/>
      <point x="400.0909090909091" y="1128.2929292929293"/>
      <point x="472.1919191919192" y="1134.7777777777778"/>
      <point x="559.040404040404" y="1134.7777777777778" type="curve" smooth="yes"/>
      <point x="844.1515151515151" y="1134.7777777777778"/>
      <point x="982.4444444444445" y="1021.4242424242424"/>
      <point x="982.4444444444445" y="758.0" type="curve" smooth="yes"/>
      <point x="982.4444444444445" y="505.2727272727273"/>
      <point x="847.1414141414141" y="385.4747474747475"/>
    </contour>
  </outline>
</glyph>
<glyph name="germandbls" format="2">
  <advance width="1388.5050505050506"/>
  <unicode hex="00DF"/>
  <outline>
    <contour>
      <point x="892.6666666666667" y="-19.01010101010101" type="curve" smooth="yes"/>
      <point x="1173.939393939394" y="-19.01010101010101"/>
      <point x="1319.6161616161617" y="102.06060606060606"/>
      <point x="1319.6161616161617" y="298.4343434343434" type="curve" smooth="yes"/>
      <point x="1319.6161616161617" y="460.5959595959596"/>
      <point x="1240.0" y="550.0808080808081"/>
      <point x="1038.5353535353536" y="593.5454545454545" type="curve" smooth="yes"/>
      <point x="892.1111111111112" y="623.0606060606061" type="line" smooth="yes"/>
      <point x="772.6262626262627" y="649.4949494949495"/>
      <point x="729.4747474747476" y="705.8383838383838"/>
      <point x="729.4747474747476" y="792.6161616161617" type="curve" smooth="yes"/>
      <point x="729.4747474747476" y="895.1212121212121"/>
      <point x="802.5757575757576" y="975.7070707070707"/>
      <point x="1015.7373737373738" y="975.7070707070707" type="curve" smooth="yes"/>
      <point x="1080.959595959596" y="975.7070707070707"/>
      <point x="1124.0" y="969.969696969697"/>
      <point x="1164.5252525252527" y="962.7272727272727" type="curve"/>
      <point x="1179.050505050505" y="1018.8282828282828"/>
      <point x="1192.060606060606" y="1101.0707070707072"/>
      <point x="1192.060606060606" y="1173.3939393939395" type="curve" smooth="yes"/>
      <point x="1192.060606060606" y="1500.121212121212"/>
      <point x="996.6363636363637" y="1636.0"/>
      <point x="731.0707070707072" y="1636.0" type="curve" smooth="yes"/>
      <point x="412.13131313131316" y="1636.0"/>
      <point x="223.38383838383837" y="1461.010101010101"/>
      <point x="223.38383838383837" y="1111.5959595959596" type="curve" smooth="yes"/>
      <point x="223.38383838383837" y="0.0" type="line"/>
      <point x="381.5353535353536" y="0.0" type="line"/>
      <point x="381.5353535353536" y="1108.8787878787878" type="line" smooth="yes"/>
      <point x="381.5353535353536" y="1398.939393939394"/>
      <point x="510.4343434343435" y="1514.4444444444443"/>
      <point x="739.6565656565657" y="1514.4444444444443" type="curve" smooth="yes"/>
      <point x="928.8282828282829" y="1514.4444444444443"/>
      <point x="1069.4747474747476" y="1428.2424242424242"/>
      <point x="1068.7272727272727" y="1180.2424242424242" type="curve" smooth="yes"/>
      <point x="1068.7272727272727" y="1128.9292929292928"/>
      <point x="1061.4646464646464" y="1073.1515151515152"/>
      <point x="1049.4444444444443" y="1023.3535353535353" type="curve"/>
      <point x="1137.2020202020203" y="1088.0404040404042" type="line"/>
      <point x="1093.959595959596" y="1094.2828282828282"/>
      <point x="1039.080808080808" y="1097.030303030303"/>
      <point x="999.8282828282829" y="1097.030303030303" type="curve" smooth="yes"/>
      <point x="715.3232323232323" y="1097.030303030303"/>
      <point x="577.4141414141415" y="969.7575757575758"/>
      <point x="577.4141414141415" y="786.6060606060606" type="curve" smooth="yes"/>
      <point x="577.4141414141415" y="633.2424242424242"/>
      <point x="654.7272727272727" y="535.2121212121212"/>
      <point x="853.0202020202021" y="493.4848484848485" type="curve" smooth="yes"/>
      <point x="999.4444444444445" y="463.96969696969694" type="line" smooth="yes"/>
      <point x="1120.4242424242425" y="437.5353535353535"/>
      <point x="1167.5555555555557" y="389.9090909090909"/>
      <point x="1167.5555555555557" y="290.4141414141414" type="curve" smooth="yes"/>
      <point x="1167.5555555555557" y="173.93939393939397"/>
      <point x="1086.7171717171718" y="106.83838383838386"/>
      <point x="891.89898989899" y="106.83838383838386" type="curve" smooth="yes"/>
      <point x="797.0909090909091" y="106.83838383838386"/>
      <point x="701.4343434343434" y="119.11111111111114"/>
      <point x="597.959595959596" y="149.09090909090912" type="curve"/>
      <point x="597.959595959596" y="21.494949494949495" type="line"/>
      <point x="690.2727272727273" y="-6.505050505050505"/>
      <point x="790.1515151515152" y="-19.01010101010101"/>
    </contour>
    <contour>
      <point x="18.535353535353536" y="950.8686868686868" type="line"/>
      <point x="298.3939393939394" y="950.8686868686868" type="line"/>
      <point x="298.3939393939394" y="1085.050505050505" type="line"/>
      <point x="18.535353535353536" y="1085.050505050505" type="line"/>
    </contour>
  </outline>
</glyph>
<glyph name="ae" format="2">
  <advance width="1656.262803030303"/>
  <unicode hex="00E6"/>
  <anchor x="814.1845151515151" y="0.0" name="bottom"/>
  <anchor x="814.1845151515151" y="1200.0" name="top"/>
  <outline>
    <contour>
      <point x="1237.9834090909092" y="-19.027939393939395" type="curve" smooth="yes"/>
      <point x="1328.6370757575758" y="-19.027939393939395"/>
      <point x="1420.2907424242424" y="-6.312863636363637"/>
      <point x="1523.743303030303" y="24.37427272727273" type="curve"/>
      <point x="1523.743303030303" y="154.8215909090909" type="line"/>
      <point x="1425.0561666666667" y="125.93334848484848"/>
      <point x="1336.6874242424242" y="110.96128787878789"/>
      <point x="1256.3745606060606" y="110.96128787878789" type="curve" smooth="yes"/>
      <point x="1008.9164696969697" y="110.96128787878789"/>
      <point x="890.3300303030303" y="219.11757575757576"/>
      <point x="890.3300303030303" y="519.3239242424243" type="curve" smooth="yes"/>
      <point x="890.3300303030303" y="575.4415" type="line" smooth="yes"/>
      <point x="890.3300303030303" y="880.0724696969697"/>
      <point x="993.7153636363637" y="986.5416212121212"/>
      <point x="1160.4470303030303" y="986.5416212121212" type="curve" smooth="yes"/>
      <point x="1326.921712121212" y="986.5416212121212"/>
      <point x="1424.1059393939395" y="881.3015151515151"/>
      <point x="1424.1059393939395" y="570.7264242424243" type="curve"/>
      <point x="1459.8434242424241" y="598.8716515151515" type="line"/>
      <point x="852.7936515151515" y="598.8716515151515" type="line"/>
      <point x="852.7936515151515" y="489.698196969697" type="line"/>
      <point x="1577.5980757575758" y="489.698196969697" type="line"/>
      <point x="1577.5980757575758" y="540.7150757575757" type="line" smooth="yes"/>
      <point x="1577.5980757575758" y="928.8044242424243"/>
      <point x="1422.860590909091" y="1102.3966818181818"/>
      <point x="1166.8716515151516" y="1102.3966818181818" type="curve" smooth="yes"/>
      <point x="912.340803030303" y="1102.3966818181818"/>
      <point x="756.1172878787879" y="927.4636212121212"/>
      <point x="756.1172878787879" y="558.7095454545455" type="curve"/>
      <point x="734.4412121212122" y="544.3128636363637" type="line"/>
      <point x="734.4412121212122" y="144.08381818181817"/>
      <point x="905.3518636363636" y="-19.027939393939395"/>
    </contour>
    <contour>
      <point x="432.22351515151513" y="-17.54190909090909" type="curve" smooth="yes"/>
      <point x="574.2514545454545" y="-17.54190909090909"/>
      <point x="714.9665303030304" y="32.17316666666667"/>
      <point x="836.5698484848485" y="200.26804545454544" type="curve"/>
      <point x="778.5529696969697" y="293.87718181818184" type="line"/>
      <point x="690.0893484848485" y="151.22933333333333"/>
      <point x="573.502909090909" y="105.76571212121212"/>
      <point x="462.9778787878788" y="105.76571212121212" type="curve" smooth="yes"/>
      <point x="326.10651515151517" y="105.76571212121212"/>
      <point x="253.44178787878786" y="170.4304393939394"/>
      <point x="253.44178787878786" y="291.2738636363636" type="curve" smooth="yes"/>
      <point x="253.44178787878786" y="407.4580909090909"/>
      <point x="321.8774696969697" y="492.0110606060606"/>
      <point x="518.3856212121212" y="492.0110606060606" type="curve" smooth="yes"/>
      <point x="774.977590909091" y="492.0110606060606" type="line"/>
      <point x="774.977590909091" y="598.8716515151515" type="line"/>
      <point x="510.2793939393939" y="598.8716515151515" type="line" smooth="yes"/>
      <point x="209.08934848484847" y="598.8716515151515"/>
      <point x="91.5529696969697" y="466.301803030303"/>
      <point x="91.5529696969697" y="278.0782878787879" type="curve" smooth="yes"/>
      <point x="91.5529696969697" y="92.4525606060606"/>
      <point x="219.86583333333334" y="-17.54190909090909"/>
    </contour>
    <contour>
      <point x="734.4412121212122" y="544.3128636363637" type="line"/>
      <point x="868.9109393939394" y="529.4525606060606" type="line"/>
      <point x="868.9109393939394" y="716.3629242424242" type="line" smooth="yes"/>
      <point x="868.9109393939394" y="1001.7206060606061"/>
      <point x="733.542196969697" y="1101.6536666666666"/>
      <point x="469.3352727272727" y="1101.6536666666666" type="curve" smooth="yes"/>
      <point x="370.22351515151513" y="1101.6536666666666"/>
      <point x="254.91065151515153" y="1085.681606060606"/>
      <point x="160.60331818181817" y="1053.681606060606" type="curve"/>
      <point x="160.60331818181817" y="922.7203181818181" type="line"/>
      <point x="262.5474393939394" y="957.1504696969697"/>
      <point x="370.63125757575756" y="971.1504696969697"/>
      <point x="452.88824242424243" y="971.1504696969697" type="curve" smooth="yes"/>
      <point x="638.7764848484849" y="971.1504696969697"/>
      <point x="734.4412121212122" y="917.0052424242424"/>
      <point x="734.4412121212122" y="719.9607121212122" type="curve" smooth="yes"/>
    </contour>
  </outline>
</glyph>
<glyph name="eth" format="2">
  <advance width="1110.5252525252527"/>
  <unicode hex="00F0"/>
  <outline>
    <contour>
      <point x="556.7575757575758" y="-19.515151515151516" type="curve" smooth="yes"/>
      <point x="836.5555555555557" y="-19.515151515151516"/>
      <point x="1015.1717171717172" y="162.04040404040404"/>
      <point x="1015.6767676767677" y="582.8787878787879" type="curve" smooth="yes"/>
      <point x="1016.1818181818182" y="980.5252525252525"/>
      <point x="790.1818181818182" y="1405.20202020202"/>
      <point x="504.1515151515152" y="1616.0" type="curve"/>
      <point x="307.88888888888886" y="1616.0" type="line"/>
      <point x="574.3535353535353" y="1417.79797979798"/>
      <point x="731.0808080808081" y="1179.020202020202"/>
      <point x="804.8282828282828" y="936.2424242424242" type="curve"/>
      <point x="869.7979797979798" y="910.9191919191919" type="line"/>
      <point x="791.5858585858585" y="1053.7777777777778"/>
      <point x="673.3535353535353" y="1099.030303030303"/>
      <point x="544.9090909090909" y="1099.030303030303" type="curve" smooth="yes"/>
      <point x="275.4848484848485" y="1099.030303030303"/>
      <point x="94.1111111111111" y="933.4646464646464"/>
      <point x="94.1111111111111" y="541.5151515151515" type="curve" smooth="yes"/>
      <point x="94.1111111111111" y="148.59595959595958"/>
      <point x="275.4848484848485" y="-19.515151515151516"/>
    </contour>
    <contour>
      <point x="556.7575757575758" y="109.61616161616165" type="curve" smooth="yes"/>
      <point x="370.5353535353536" y="109.61616161616165"/>
      <point x="255.50505050505055" y="216.69696969696972"/>
      <point x="255.50505050505055" y="543.5050505050505" type="curve" smooth="yes"/>
      <point x="255.50505050505055" y="866.0808080808081"/>
      <point x="371.04040404040404" y="972.1717171717171"/>
      <point x="555.2626262626263" y="972.1717171717171" type="curve" smooth="yes"/>
      <point x="739.4848484848485" y="972.1717171717171"/>
      <point x="855.020202020202" y="866.0808080808081"/>
      <point x="855.020202020202" y="538.5151515151515" type="curve" smooth="yes"/>
      <point x="855.020202020202" y="227.90909090909093"/>
      <point x="738.4949494949495" y="109.61616161616165"/>
    </contour>
    <contour>
      <point x="204.15151515151516" y="1224.5151515151515" type="line"/>
      <point x="991.1414141414142" y="1357.4444444444443" type="line"/>
      <point x="973.0505050505051" y="1457.111111111111" type="line"/>
      <point x="186.06060606060606" y="1324.1818181818182" type="line"/>
    </contour>
  </outline>
</glyph>
